<?xml version="1.0" encoding="utf-8"?>
<!-- Generator: Adobe Illustrator 19.0.0, SVG Export Plug-In . SVG Version: 6.00 Build 0)  -->
<svg version="1.1" id="Layer_1" xmlns="http://www.w3.org/2000/svg" xmlns:xlink="http://www.w3.org/1999/xlink" x="0px" y="0px"
	 viewBox="0 0 96 96" style="enable-background:new 0 0 96 96;" xml:space="preserve">
<style type="text/css">
	.st0{fill:#333333;}
</style>
<g id="XMLID_2_">
	<path id="XMLID_6_" class="st0" d="M62.8,46.6l0.4,7.5c0.1,1.1-0.6,2.1-2,3.1c-1.4,0.9-3.2,1.7-5.6,2.2s-4.9,0.8-7.7,0.8
		s-5.3-0.3-7.7-0.8s-4.2-1.3-5.6-2.2c-1.4-0.9-2-2-2-3.1l0.4-7.5l13.7,4.3c0.4,0.1,0.7,0.2,1.1,0.2s0.8-0.1,1.1-0.2L62.8,46.6z
		 M75.5,38.8c0,0.4-0.2,0.6-0.5,0.7L48.2,48c-0.1,0-0.1,0-0.2,0s-0.2,0-0.2,0l-15.6-4.9c-0.7,0.5-1.2,1.4-1.7,2.7
		c-0.4,1.2-0.7,2.7-0.8,4.3c1,0.6,1.5,1.4,1.5,2.6c0,1.1-0.5,1.9-1.4,2.6l1.4,10.3c0,0.2,0,0.4-0.2,0.6c-0.1,0.2-0.3,0.3-0.6,0.3
		h-4.6c-0.2,0-0.4-0.1-0.6-0.3c-0.2-0.2-0.2-0.4-0.2-0.6l1.4-10.3c-0.9-0.6-1.4-1.5-1.4-2.6c0-1.2,0.5-2,1.6-2.6
		c0.2-3.3,1-5.9,2.3-7.9L21,39.6c-0.4-0.1-0.5-0.4-0.5-0.7s0.2-0.6,0.5-0.7l26.7-8.4c0.1,0,0.1,0,0.2,0s0.2,0,0.2,0L75,38.1
		C75.3,38.2,75.5,38.5,75.5,38.8z"/>
</g>
</svg>
