<svg height="512pt" viewBox="-27 0 512 512" width="512pt" xmlns="http://www.w3.org/2000/svg"><path d="m448 317.671875c-2.628906 0-5.210938 1.058594-7.070312 2.929687-1.859376 1.859376-2.929688 4.429688-2.929688 7.070313 0 2.628906 1.070312 5.207031 2.929688 7.066406 1.859374 1.863281 4.441406 2.933594 7.070312 2.933594s5.210938-1.070313 7.070312-2.933594c1.859376-1.859375 2.929688-4.4375 2.929688-7.066406 0-2.640625-1.070312-5.210937-2.929688-7.070313-1.859374-1.871093-4.441406-2.929687-7.070312-2.929687zm0 0"/><path d="m391.023438 0h-324.046876c-36.929687 0-66.976562 30.046875-66.976562 66.976562v40.945313c0 5.523437 4.476562 10 10 10s10-4.476563 10-10v-40.945313c0-25.902343 21.074219-46.976562 46.976562-46.976562h324.046876c25.902343 0 46.976562 21.074219 46.976562 46.976562v220.691407c0 5.523437 4.476562 10 10 10s10-4.476563 10-10v-220.691407c0-36.929687-30.046875-66.976562-66.976562-66.976562zm0 0"/><path d="m10 157.921875c2.628906 0 5.210938-1.070313 7.070312-2.933594 1.859376-1.859375 2.929688-4.4375 2.929688-7.066406 0-2.632813-1.070312-5.210937-2.929688-7.070313-1.859374-1.863281-4.441406-2.929687-7.070312-2.929687s-5.210938 1.066406-7.070312 2.929687c-1.859376 1.859376-2.929688 4.429688-2.929688 7.070313 0 2.628906 1.070312 5.207031 2.929688 7.066406 1.859374 1.863281 4.441406 2.933594 7.070312 2.933594zm0 0"/><path d="m448 357.667969c-5.523438 0-10 4.476562-10 10v23.355469c0 25.902343-21.074219 46.976562-46.976562 46.976562h-324.046876c-25.902343 0-46.976562-21.074219-46.976562-46.976562v-203.101563c0-5.523437-4.476562-10-10-10s-10 4.476563-10 10v203.101563c0 36.929687 30.046875 66.976562 66.976562 66.976562h120.023438v44c0 5.523438 4.476562 10 10 10h64c5.523438 0 10-4.476562 10-10v-44h120.023438c36.929687 0 66.976562-30.046875 66.976562-66.976562v-23.359376c0-5.519531-4.476562-9.996093-10-9.996093zm-197 134.332031h-44v-34h44zm0 0"/><path d="m181.417969 165.117188v13.527343c-56.242188 6.820313-99.144531 54.53125-99.144531 112.136719 0 62.292969 50.679687 112.972656 112.972656 112.972656 24.851562 0 48.433594-7.917968 68.1875-22.894531 12.503906-9.480469 22.910156-21.578125 30.523437-35.210937l11.757813 30.144531c3.664062 9.386719 12.542968 15.453125 22.617187 15.453125h33.28125c7.105469 0 13.9375-3.007813 18.734375-8.25 4.800782-5.238282 7.191406-12.316406 6.5625-19.425782-1.144531-12.964843-12.40625-23.121093-25.644531-23.121093h-7.621094l-26.027343-70.050781c-6.996094-18.820313-25.1875-31.464844-45.261719-31.464844h-16.550781v-17.816406h48.570312c15.871094 0 28.78125-12.910157 28.78125-28.777344 0-15.871094-12.910156-28.78125-28.78125-28.78125h-48.585938c-.277343-11.144532-5.027343-21.863282-13.128906-29.554688-.472656-.449218-.957031-.882812-1.445312-1.304687 10.109375-8.109375 16.601562-20.554688 16.601562-34.492188 0-24.375-19.832031-44.207031-44.207031-44.207031s-44.207031 19.832031-44.207031 44.207031c0 13.964844 6.519531 26.429688 16.660156 34.535157-8.984375 7.847656-14.644531 19.460937-14.644531 32.375zm42.191406 144.304687h16.871094c-7.394531 17.917969-25.109375 30.328125-45.277344 30.328125-27 0-48.964844-21.964844-48.964844-48.960938 0-22.082031 14.785157-40.992187 35.179688-46.980468v23.417968c0 23.265626 18.929687 42.195313 42.191406 42.195313zm-28.367187 74.328125c-51.265626 0-92.972657-41.707031-92.972657-92.972656 0-46.566406 34.074219-85.28125 79.148438-91.953125v24.394531c-31.597657 6.425781-55.179688 34.476562-55.179688 67.570312 0 38.023438 30.9375 68.960938 68.960938 68.960938 31.179687 0 58.199219-21.058594 66.410156-50.332031h18.214844l3.890625 9.96875c-12.289063 38.007812-48.335938 64.363281-88.472656 64.363281zm60.5625-200.191406h58.574218c4.839844 0 8.777344 3.9375 8.777344 8.78125 0 4.839844-3.9375 8.777344-8.777344 8.777344h-58.574218c-5.519532 0-10 4.480468-10 10v37.816406c0 5.523437 4.480468 10 10 10h26.550781c11.761719 0 22.417969 7.40625 26.511719 18.433594l4.398437 11.835937 24.054687 64.734375c1.457032 3.917969 5.195313 6.515625 9.375 6.515625h14.574219c2.964844 0 5.476563 2.144531 5.722657 4.875.183593 2.101563-.792969 3.511719-1.394532 4.164063-.597656.65625-1.914062 1.753906-3.980468 1.753906h-33.28125c-1.777344 0-3.339844-1.066406-3.984376-2.71875l-28.375-72.742188c-1.496093-3.835937-5.195312-6.363281-9.316406-6.363281h-63.046875c-12.238281 0-22.191406-9.957031-22.191406-22.195313v-102.109374c0-12.105469 9.222656-22.0625 20.996094-22.671876.398437-.023437.800781-.03125 1.195312-.03125 5.726563 0 11.113281 2.140626 15.277344 6.09375 4.460937 4.234376 6.917969 9.953126 6.917969 16.097657v8.953125c-.003906 5.523437 4.472656 10 9.996094 10zm-32.195313-109.558594c13.351563 0 24.207031 10.859375 24.207031 24.207031 0 13.34375-10.851562 24.199219-24.195312 24.207031-.019532 0-.042969-.003906-.0625-.003906-13.324219-.027344-24.152344-10.875-24.152344-24.203125 0-13.347656 10.859375-24.207031 24.203125-24.207031zm0 0"/></svg>