<svg height="512pt" viewBox="0 0 512 512" width="512pt" xmlns="http://www.w3.org/2000/svg"><path d="m502 0h-492c-5.523438 0-10 4.476562-10 10v58c0 5.523438 4.476562 10 10 10s10-4.476562 10-10v-48h472v315.453125c0 5.523437 4.476562 10 10 10s10-4.476563 10-10v-325.453125c0-5.523438-4.476562-10-10-10zm0 0"/><path d="m10 118c2.628906 0 5.210938-1.070312 7.070312-2.929688 1.859376-1.859374 2.929688-4.441406 2.929688-7.070312s-1.070312-5.210938-2.929688-7.070312c-1.859374-1.859376-4.441406-2.929688-7.070312-2.929688s-5.210938 1.070312-7.070312 2.929688c-1.859376 1.859374-2.929688 4.441406-2.929688 7.070312s1.070312 5.210938 2.929688 7.070312c1.859374 1.859376 4.441406 2.929688 7.070312 2.929688zm0 0"/><path d="m502 405.453125c-5.523438 0-10 4.476563-10 10v76.546875h-472v-344c0-5.523438-4.476562-10-10-10s-10 4.476562-10 10v354c0 5.523438 4.476562 10 10 10h492c5.523438 0 10-4.476562 10-10v-86.546875c0-5.523437-4.476562-10-10-10zm0 0"/><path d="m502 365.449219c-2.628906 0-5.210938 1.070312-7.070312 2.929687-1.859376 1.859375-2.929688 4.441406-2.929688 7.070313 0 2.640625 1.070312 5.222656 2.929688 7.070312 1.859374 1.871094 4.441406 2.941407 7.070312 2.941407s5.210938-1.070313 7.070312-2.941407c1.859376-1.859375 2.929688-4.429687 2.929688-7.070312 0-2.628907-1.070312-5.199219-2.929688-7.070313-1.859374-1.859375-4.441406-2.929687-7.070312-2.929687zm0 0"/><path d="m314.304688 158c4.3125 0 8.136718-2.765625 9.492187-6.855469l11.691406-35.324219 11.695313 35.324219c1.355468 4.089844 5.179687 6.855469 9.492187 6.855469s8.136719-2.765625 9.492188-6.855469l21.1875-64c1.738281-5.246093-1.105469-10.902343-6.351563-12.636719-5.238281-1.738281-10.898437 1.105469-12.636718 6.351563l-11.691407 35.320313-11.691406-35.320313c-1.355469-4.09375-5.183594-6.859375-9.496094-6.859375-4.308593 0-8.136719 2.765625-9.492187 6.855469l-11.691406 35.324219-11.695313-35.324219c-1.734375-5.242188-7.390625-8.082031-12.632813-6.347657-5.246093 1.734376-8.085937 7.390626-6.351562 12.632813l21.183594 64c1.355468 4.09375 5.183594 6.859375 9.496094 6.859375zm0 0"/><path d="m427.886719 94c4.746093 0 9.148437 2.371094 11.777343 6.339844 3.050782 4.601562 9.253907 5.859375 13.859376 2.8125 4.605468-3.050782 5.863281-9.257813 2.8125-13.859375-6.34375-9.574219-16.980469-15.292969-28.449219-15.292969-18.808594 0-34.109375 15.304688-34.109375 34.113281v15.648438c0 18.808593 15.300781 34.109375 34.109375 34.109375 11.472656 0 22.105469-5.714844 28.449219-15.292969 3.050781-4.601563 1.792968-10.808594-2.8125-13.855469-4.605469-3.050781-10.808594-1.792968-13.859376 2.8125-2.628906 3.96875-7.03125 6.335938-11.777343 6.335938-7.78125 0-14.109375-6.332032-14.109375-14.109375v-15.648438c-.003906-7.78125 6.328125-14.113281 14.109375-14.113281zm0 0"/><path d="m153.441406 199.324219v13.523437c-56.242187 6.824219-99.148437 54.535156-99.148437 112.136719 0 62.292969 50.679687 112.972656 112.972656 112.972656 24.855469 0 48.433594-7.914062 68.191406-22.890625 12.503907-9.480468 22.910157-21.578125 30.523438-35.210937l11.757812 30.140625c3.660157 9.390625 12.539063 15.457031 22.617188 15.457031h33.28125c7.105469 0 13.933593-3.007813 18.734375-8.25 4.800781-5.238281 7.191406-12.320313 6.5625-19.425781-1.144532-12.964844-12.40625-23.121094-25.644532-23.121094h-7.621093l-26.03125-70.050781c-6.992188-18.824219-25.183594-31.46875-45.261719-31.46875h-16.546875v-17.8125h48.570313c15.871093 0 28.78125-12.914063 28.78125-28.78125 0-15.871094-12.910157-28.78125-28.78125-28.78125h-48.582032c-.28125-11.140625-5.03125-21.859375-13.132812-29.550781-.472656-.449219-.957032-.882813-1.445313-1.308594 10.113281-8.105469 16.601563-20.550782 16.601563-34.492188 0-24.375-19.828125-44.207031-44.207032-44.207031-24.375 0-44.207031 19.832031-44.207031 44.207031 0 13.964844 6.515625 26.429688 16.660157 34.535156-8.988282 7.851563-14.644532 19.464844-14.644532 32.378907zm42.195313 144.304687h16.902343c-7.367187 18.066406-25.023437 30.328125-45.3125 30.328125-27 0-48.964843-21.964843-48.964843-48.960937 0-22.082032 14.785156-40.992188 35.179687-46.980469v23.417969c0 23.265625 18.925782 42.195312 42.195313 42.195312zm-28.371094 74.328125c-51.261719 0-92.972656-41.707031-92.972656-92.972656 0-46.570313 34.070312-85.28125 79.148437-91.953125v24.394531c-31.597656 6.425781-55.179687 34.476563-55.179687 67.570313 0 38.023437 30.9375 68.960937 68.960937 68.960937 31.335938 0 58.195313-20.777343 66.410156-50.332031h18.214844l3.886719 9.96875c-12.289063 38.007812-48.332031 64.363281-88.46875 64.363281zm60.5625-200.191406h58.570313c4.84375 0 8.78125 3.9375 8.78125 8.78125 0 4.839844-3.9375 8.777344-8.78125 8.777344h-58.570313c-5.523437 0-10 4.476562-10 10v37.816406c0 5.519531 4.476563 10 10 10h26.550781c11.761719 0 22.414063 7.40625 26.511719 18.429687l4.398437 11.839844 24.054688 64.730469c1.453125 3.917969 5.191406 6.515625 9.371094 6.515625h14.574218c2.96875 0 5.480469 2.144531 5.722657 4.878906.1875 2.097656-.792969 3.507813-1.390625 4.164063-.601563.652343-1.917969 1.753906-3.984375 1.753906h-33.28125c-1.777344 0-3.339844-1.070313-3.984375-2.722656l-28.375-72.738281c-1.496094-3.839844-5.195313-6.367188-9.3125-6.367188h-63.046875c-12.238281 0-22.195313-9.957031-22.195313-22.191406v-102.109375c0-12.105469 9.222656-22.0625 21-22.675781.398438-.019532.796875-.03125 1.195313-.03125 5.726562 0 11.109375 2.140624 15.277343 6.097656 4.457032 4.234375 6.914063 9.953125 6.914063 16.097656v8.953125c0 5.523437 4.476563 10 10 10zm-32.191406-109.558594c13.347656 0 24.207031 10.859375 24.207031 24.207031 0 13.347657-10.859375 24.207032-24.207031 24.207032-13.351563 0-24.207031-10.859375-24.207031-24.207032 0-13.347656 10.855468-24.207031 24.207031-24.207031zm0 0"/></svg>