<svg height="512pt" viewBox="0 0 512 512" width="512pt" xmlns="http://www.w3.org/2000/svg"><path d="m224.984375 342c0-22.597656-18.386719-40.984375-40.984375-40.984375s-40.984375 18.386719-40.984375 40.984375 18.386719 40.984375 40.984375 40.984375 40.984375-18.386719 40.984375-40.984375zm-61.96875 0c0-11.570312 9.414063-20.984375 20.984375-20.984375s20.984375 9.414063 20.984375 20.984375-9.414063 20.984375-20.984375 20.984375-20.984375-9.414063-20.984375-20.984375zm0 0"/><path d="m91.917969 419.574219c-3.917969 3.894531-3.941407 10.226562-.046875 14.144531l.246094.246094c1.953124 1.953125 4.511718 2.929687 7.070312 2.929687s5.121094-.976562 7.070312-2.929687c3.90625-3.90625 3.90625-10.238282 0-14.144532l-.199218-.199218c-3.894532-3.917969-10.226563-3.9375-14.140625-.046875zm0 0"/><path d="m334 422c0 27.570312 22.429688 50 50 50 24.144531 0 44.347656-17.203125 48.992188-40h15.007812c5.523438 0 10-4.476562 10-10s-4.476562-10-10-10h-15.007812c-3.984376-19.5625-19.429688-35.007812-38.992188-38.992188v-95.007812c0-36.394531-29.605469-66-66-66h-144c-4.085938 0-8.121094.199219-12.109375.570312v-60.375c0-11.136718-9.0625-20.195312-20.195313-20.195312h-67.835937c-16.464844 0-29.859375 13.394531-29.859375 29.859375s13.394531 29.859375 29.859375 29.859375h68.03125v24.296875c-56.203125 14.332031-97.890625 65.378906-97.890625 125.984375 0 20.4375 4.609375 40.003906 13.703125 58.15625 2.476563 4.9375 8.484375 6.9375 13.421875 4.460938 4.9375-2.472657 6.9375-8.480469 4.460938-13.417969-7.6875-15.347657-11.585938-31.898438-11.585938-49.199219 0-60.652344 49.347656-110 110-110s110 49.347656 110 110-49.347656 110-110 110c-15.914062 0-31.257812-3.320312-45.609375-9.867188-5.023437-2.292968-10.953125-.082031-13.25 4.945313-2.289063 5.023437-.078125 10.953125 4.949219 13.246094 16.972656 7.746093 35.113281 11.675781 53.910156 11.675781 71.683594 0 130-58.316406 130-130 0-3.476562-.140625-6.925781-.410156-10.332031h60.410156v41.339843c-22.796875 4.644532-40 24.847657-40 48.992188zm-250.140625-250.28125c-5.4375 0-9.859375-4.421875-9.859375-9.859375s4.421875-9.859375 9.859375-9.859375h67.835937c.105469 0 .195313.085938.195313.195312v19.523438zm330.074219 248.390625c-.117188.613281-.183594 1.242187-.183594 1.890625s.066406 1.277344.183594 1.890625c-.976563 15.664063-14.027344 28.109375-29.933594 28.109375-16.542969 0-30-13.457031-30-30s13.457031-30 30-30c15.90625 0 28.957031 12.445312 29.933594 28.109375zm-103.515625-108.441406c-8.015625-33.402344-28.953125-61.824219-57.214844-79.667969h74.796875c25.363281 0 46 20.636719 46 46v33.667969zm0 0"/><path d="m502 0h-492c-5.523438 0-10 4.476562-10 10v492c0 5.523438 4.476562 10 10 10h492c5.523438 0 10-4.476562 10-10v-256.542969c0-5.523437-4.476562-10-10-10s-10 4.476563-10 10v246.542969h-472v-398.542969c8.597656 6.605469 19.34375 10.542969 31 10.542969 16.785156 0 31.699219-8.15625 41-20.710938 9.300781 12.554688 24.214844 20.710938 41 20.710938s31.699219-8.15625 41-20.710938c9.300781 12.554688 24.214844 20.710938 41 20.710938s31.699219-8.15625 41-20.710938c9.300781 12.554688 24.214844 20.710938 41 20.710938s31.699219-8.15625 41-20.710938c9.300781 12.554688 24.214844 20.710938 41 20.710938s31.699219-8.15625 41-20.710938c9.300781 12.554688 24.214844 20.710938 41 20.710938 11.65625 0 22.402344-3.9375 31-10.542969v72c0 5.523438 4.476562 10 10 10s10-4.476562 10-10v-155.457031c0-5.523438-4.476562-10-10-10zm-451 84c-17.09375 0-31-13.90625-31-31v-33h62v33c0 17.09375-13.90625 31-31 31zm82 0c-17.09375 0-31-13.90625-31-31v-33h62v33c0 17.09375-13.90625 31-31 31zm82 0c-17.09375 0-31-13.90625-31-31v-33h62v33c0 17.09375-13.90625 31-31 31zm82 0c-17.09375 0-31-13.90625-31-31v-33h62v33c0 17.09375-13.90625 31-31 31zm82 0c-17.09375 0-31-13.90625-31-31v-33h62v33c0 17.09375-13.90625 31-31 31zm82 0c-17.09375 0-31-13.90625-31-31v-33h62v33c0 17.09375-13.90625 31-31 31zm0 0"/><path d="m502 195.460938c-2.628906 0-5.210938 1.070312-7.070312 2.929687-1.859376 1.859375-2.929688 4.4375-2.929688 7.070313 0 2.628906 1.070312 5.210937 2.929688 7.070312 1.859374 1.859375 4.441406 2.929688 7.070312 2.929688s5.210938-1.070313 7.070312-2.929688c1.859376-1.859375 2.929688-4.441406 2.929688-7.070312 0-2.640626-1.070312-5.210938-2.929688-7.070313-1.859374-1.859375-4.441406-2.929687-7.070312-2.929687zm0 0"/></svg>