<svg height="512pt" viewBox="-27 0 512 512.001" width="512pt" xmlns="http://www.w3.org/2000/svg"><path d="m424.003906 404c-2.628906 0-5.210937 1.070312-7.070312 2.929688-1.859375 1.859374-2.929688 4.441406-2.929688 7.070312s1.070313 5.210938 2.929688 7.070312c1.859375 1.859376 4.441406 2.929688 7.070312 2.929688s5.210938-1.070312 7.070313-2.929688c1.859375-1.859374 2.929687-4.441406 2.929687-7.070312s-1.070312-5.210938-2.929687-7.070312c-1.859375-1.859376-4.441407-2.929688-7.070313-2.929688zm0 0"/><path d="m424.003906 444c-18.746094 0-34 15.253906-34 34s15.253906 34 34 34c18.75 0 34-15.253906 34-34s-15.253906-34-34-34zm0 48c-7.71875 0-14-6.28125-14-14s6.28125-14 14-14 14 6.28125 14 14-6.28125 14-14 14zm0 0"/><path d="m414.003906 297.988281v76.011719c0 5.523438 4.476563 10 10 10 5.523438 0 10-4.476562 10-10v-135.496094c0-19.207031-15.625-34.832031-34.832031-34.832031h-98.488281c1.664062-4.113281 2.460937-8.570313 2.300781-13.160156-.613281-17.292969-14.894531-30.839844-32.507813-30.839844h-23.773437c-3.335937 0-6.703125-.164063-10-.488281-25.050781-2.445313-45.894531-21.277344-51.867187-46.855469-1.121094-4.789063-2.933594-9.273437-5.308594-13.363281 21.972656-5.34375 38.339844-25.175782 38.339844-48.769532 0-27.675781-22.519532-50.195312-50.195313-50.195312-27.679687 0-50.195313 22.519531-50.195313 50.195312 0 9.710938 2.777344 18.78125 7.574219 26.46875-13.105469 3.621094-24.46875 12.683594-30.648437 25.265626-16.308594 33.199218-24.925782 70.296874-24.925782 107.285156v36.785156c0 18.011719 3.792969 35.710938 10.890626 51.972656l-11.5625 63.25-47.464844 61.097656c-.007813.007813-.015625.019532-.019532.03125-.195312.246094-.371093.507813-.539062.773438-.015625.023438-.035156.046875-.050781.070312 0 0-.003907.003907-.003907.007813l-18.523437 30.011719c-2.066406 3.347656-2.707031 7.300781-1.800781 11.132812.90625 3.828125 3.25 7.074219 6.597656 9.140625l59.984375 37.023438c1.59375.980469 3.414063 1.488281 5.253906 1.488281.769531 0 1.542969-.089844 2.300781-.269531 2.582032-.609375 4.8125-2.21875 6.207032-4.476563 7.015625-11.367187 9.183594-24.78125 6.109375-37.777344-.894531-3.769531-2.207031-7.367187-3.882813-10.753906l21.589844-24.3125-3.355469 26.324219c-.003906.039063-.003906.074219-.007812.109375-.023438.199219-.03125.398438-.042969.601562-.007812.152344-.019531.304688-.023438.457032 0 .03125-.003906.066406-.003906.097656v40c0 5.523438 4.476563 10 10 10h75.21875c5.523438 0 10-4.476562 10-10 0-16.269531-7.816406-30.746094-19.886718-39.882812l16.070312-97.605469c3.1875-19.351563 1.734375-39.464844-4.195312-58.164063l-19.636719-61.894531v-40.332031c23.820312 12.832031 50.457031 19.550781 78.007812 19.550781h16.925781c-2.128906 4.5-3.324218 9.527344-3.324218 14.832031v263.167969c0 5.519531 4.476562 10 10 10 5.523437 0 10-4.480469 10-10v-203.683594zm0-59.484375v39.484375h-133.699218v-39.484375c0-8.179687 6.65625-14.832031 14.832031-14.832031h104.035156c8.179687 0 14.832031 6.652344 14.832031 14.832031zm-246.332031-218.503906c16.648437 0 30.195313 13.546875 30.195313 30.195312 0 16.648438-13.546876 30.195313-30.195313 30.195313-16.652344 0-30.195313-13.546875-30.195313-30.195313 0-16.648437 13.542969-30.195312 30.195313-30.195312zm-100.140625 467.347656-45.542969-28.113281 10.503907-17.015625 21.460937 13.246094c6.816406 4.207031 11.589844 10.820312 13.4375 18.617187 1.046875 4.429688 1.078125 8.941407.140625 13.265625zm3.3125-45.085937-26.863281-16.488281 42.117187-54.214844c.988282-1.269532 1.652344-2.753906 1.941406-4.335938l7.816407-42.761718c4.410156 5.839843 9.324219 11.335937 14.722656 16.394531l5.277344 4.949219-6.8125 53.4375zm50.28125 49.738281v-20h25.21875c13.039062 0 24.160156 8.359375 28.289062 20zm51.667969-130.738281-14.9375 90.738281h-35.375l6.003906-47.09375c.003906-.003906.003906-.011719.003906-.019531l7.855469-61.621094c.40625-3.183594-.742188-6.367187-3.082031-8.5625l-9.007813-8.441406c-19.660156-18.421875-31.851562-43.605469-34.308594-70.261719h61.429688l17.890625 56.398438c4.984375 15.707031 6.203125 32.605468 3.527344 48.863281zm-8.257813-183.113281c-.039062-.027344-.082031-.046876-.117187-.070313-7.148438-4.957031-13.925781-10.617187-20.140625-16.835937-3.902344-3.902344-10.234375-3.902344-14.140625 0-3.90625 3.90625-3.90625 10.238281 0 14.144531 5.792969 5.792969 12.023437 11.15625 18.5625 16.011719 0 .117187-.003907.234374-.003907.347656v44.253906h-59.21875v-26.785156c0-33.949219 7.910157-67.996094 22.875-98.46875 5.140626-10.464844 16.398438-16.777344 28-15.710938 12.164063 1.117188 22.214844 9.894532 25.007813 21.84375 7.925781 33.929688 35.8125 58.929688 69.398437 62.210938 3.941407.386718 7.960938.582031 11.945313.582031h23.773437c6.679688 0 12.292969 5.183594 12.519532 11.550781.117187 3.296875-1.074219 6.417969-3.355469 8.78125-2.28125 2.363282-5.347656 3.667969-8.636719 3.667969h-24.300781c-29.625 0-58.039063-8.828125-82.167969-25.523437zm0 0"/></svg>