<svg height="512pt" viewBox="0 -3 512.00036 512" width="512pt" xmlns="http://www.w3.org/2000/svg"><path d="m499.238281 5.730469c-7.167969-5.140625-16.203125-6.933594-24.789062-4.925781-8.589844 2.007812-15.890625 7.625-20.035157 15.410156l-20.585937 38.6875c-5.199219-22.195313-25.144531-38.78125-48.902344-38.78125-27.699219 0-50.234375 22.535156-50.234375 50.234375 0 11.847656 4.128906 22.738281 11.015625 31.335937-5.535156 1.398438-10.707031 4.074219-15.070312 7.882813l-54.667969 47.714843c-6.125-2.664062-12.875-4.152343-19.96875-4.152343s-13.84375 1.488281-19.96875 4.152343l-54.667969-47.714843c-4.363281-3.808594-9.535156-6.484375-15.070312-7.882813 6.882812-8.597656 11.015625-19.488281 11.015625-31.335937 0-27.699219-22.535156-50.234375-50.234375-50.234375-23.757813 0-43.703125 16.585937-48.902344 38.78125l-20.585937-38.683594c-4.144532-7.789062-11.445313-13.40625-20.03125-15.414062-8.589844-2.007813-17.625-.210938-24.792969 4.925781-11.984375 8.597656-16.128907 24.523437-9.851563 37.871093l64.925782 138.019532.089843 109.144531c0 5.527344 4.480469 10.007813 10.007813 10.007813s10.007812-4.480469 10.007812-10.007813v-30.023437h75.96875v48.792968c-3.832031 5.039063-6.113281 11.324219-6.113281 18.132813v119.097656h-21.824219l-.082031-136.449219c-.003906-5.523437-4.484375-10-10.007813-10-.003906 0-.003906 0-.007812 0-5.527344 0-10.003906 4.484375-10 10.011719l.082031 136.4375h-28.015625v-75.933594c0-5.527343-4.480468-10.007812-10.007812-10.007812s-10.007813 4.480469-10.007813 10.007812v85.941407c0 1.808593.488281 3.503906 1.332031 4.96875-.917968 2.476562-1.421874 5.152343-1.421874 7.945312v27.398438c0 5.527343 4.480468 10.007812 10.007812 10.007812h96.253906c1.800782 0 3.484375-.480469 4.945313-1.3125 2.777343.851562 5.722656 1.3125 8.777343 1.3125 7.003907 0 13.449219-2.417969 18.5625-6.457031 4.390626 3.839843 10.128907 6.171875 16.40625 6.171875h66.167969c6.277344 0 12.015625-2.332032 16.40625-6.171875 5.113281 4.039062 11.558594 6.457031 18.5625 6.457031 3.117188 0 6.121094-.476562 8.949219-1.363281 1.480469.859375 3.191406 1.363281 5.027344 1.363281h96.253906c5.527344 0 10.007812-4.480469 10.007812-10.007812v-27.398438c0-2.792969-.503906-5.46875-1.417968-7.945312.839844-1.464844 1.328125-3.15625 1.328125-4.964844l.015625-38.03125c.003906-5.527344-4.476563-10.011719-10.003906-10.011719 0 0 0 0-.003907 0-5.523437 0-10.003906 4.476563-10.007812 10.003906l-.011719 28.027344h-28.019531l.082031-136.4375c.003906-5.527344-4.472656-10.011719-10-10.011719-.003906 0-.003906 0-.007812 0-5.523438 0-10.003907 4.476563-10.007813 10l-.082031 136.449219h-22.078125v-119.097656c0-6.660157-2.179688-12.816407-5.867188-17.800781 0-.03125.007813-.0625.007813-.09375v-49.03125h76.054687l-.035156 77.929687c0 5.527344 4.476563 10.011719 10.003906 10.011719h.003907c5.527343 0 10.007812-4.476563 10.007812-10.003906l.039062-87.941407v-69.117187l64.925782-138.019532c6.277344-13.347656 2.132812-29.273437-9.851563-37.871093zm-383.273437 481.347656h-28.113282v-17.390625c0-1.605469 1.304688-2.90625 2.90625-2.90625h22.300782c1.601562 0 2.90625 1.300781 2.90625 2.90625zm20.015625 0v-17.390625c0-1.605469 1.304687-2.90625 2.90625-2.90625h18.910156v10.289062c0 3.507813.609375 6.875 1.71875 10.007813zm260.054687-17.390625c0-1.605469 1.304688-2.90625 2.90625-2.90625h22.300782c1.601562 0 2.90625 1.300781 2.90625 2.90625v17.390625h-28.113282zm-42.085937 7.382812v-10.292968h19.164062c1.605469 0 2.90625 1.304687 2.90625 2.90625v17.390625h-23.789062c1.109375-3.128907 1.71875-6.496094 1.71875-10.003907zm30.976562-440.933593c16.664063 0 30.21875 13.558593 30.21875 30.21875 0 16.664062-13.554687 30.222656-30.21875 30.222656-16.660156 0-30.21875-13.558594-30.21875-30.222656 0-16.660157 13.558594-30.21875 30.21875-30.21875zm-128.925781 133.015625c16.664062 0 30.21875 13.554687 30.21875 30.21875 0 16.664062-13.554688 30.21875-30.21875 30.21875s-30.21875-13.554688-30.21875-30.21875c0-16.660156 13.554688-30.21875 30.21875-30.21875zm-128.925781-133.015625c16.660156 0 30.21875 13.558593 30.21875 30.21875 0 16.664062-13.554688 30.222656-30.21875 30.222656-16.664063 0-30.21875-13.558594-30.21875-30.222656 0-16.660157 13.554687-30.21875 30.21875-30.21875zm42.605469 134.183593c-3.519532 1.644532-5.769532 5.179688-5.769532 9.066407v61.339843h-76.058594v-61.339843c0-1.476563-.324218-2.929688-.953124-4.261719l-65.875-140.042969c-2.167969-4.609375-.738282-10.113281 3.402343-13.085937 2.515625-1.800782 5.558594-2.40625 8.566407-1.703125 3.011718.707031 5.46875 2.597656 6.921874 5.324219l32.242188 60.585937c9.972656 18.746094 29.355469 30.386719 50.589844 30.386719h34.621094c3.984374 0 7.832031 1.445312 10.835937 4.066406l51.027344 44.535156c-7.035157 7.566406-11.765625 17.292969-13.082031 28.066406l-25.816407-21.554687c-2.980469-2.488281-7.132812-3.027344-10.652343-1.382813zm28.148437 191.875v114.875c0 5.519532-4.492187 10.007813-10.007813 10.007813-5.519531 0-10.007812-4.488281-10.007812-10.007813v-149.402343c0-5.515625 4.488281-10.007813 10.007812-10.007813 5.515626 0 10.007813 4.492188 10.007813 10.007813zm0-74.558593v11.730469c-3.132813-1.109376-6.5-1.722657-10.007813-1.722657-1.320312 0-2.617187.097657-3.890624.261719v-97.128906l28.777343 24.03125c3.140625 5.328125 7.238281 10.023437 12.054688 13.863281-16.175781 10.3125-26.933594 28.402344-26.933594 48.964844zm20.015625 84.566406h28.019531v74.5625h-28.019531zm76.058594 104.867187v4.78125c0 2.726563-2.21875 4.941407-4.945313 4.941407h-66.167969c-2.726562 0-4.945312-2.21875-4.945312-4.941407v-10.125c0-2.730468 2.21875-4.949218 4.945312-4.949218h66.167969c2.726563 0 4.945313 2.21875 4.945313 4.949218zm0-30.304687h-28.019532v-74.5625h28.019532zm0-119.097656v24.519531h-76.058594v-64.550781c0-20.96875 17.058594-38.027344 38.027344-38.027344 20.972656 0 38.03125 17.058594 38.03125 38.027344zm-6.777344-88.90625c4.863281-3.855469 9-8.585938 12.167969-13.957031l28.78125-24.027344v97.160156c-1.359375-.1875-2.738281-.292969-4.148438-.292969-3.507812 0-6.875.609375-10.007812 1.71875v-11.726562c0-20.503907-10.695313-38.546875-26.792969-48.875zm46.808594 238.308593c0 5.515626-4.488282 10.007813-10.007813 10.007813-5.515625 0-10.007812-4.492187-10.007812-10.007813v-149.402343c0-5.519531 4.492187-10.007813 10.007812-10.007813 5.519531 0 10.007813 4.488282 10.007813 10.007813zm157.042968-441.988281-65.875 140.042969c-.628906 1.332031-.953124 2.789062-.953124 4.261719v61.339843h-76.058594v-61.339843c0-3.886719-2.25-7.421875-5.769532-9.066407-3.519531-1.648437-7.671874-1.109374-10.652343 1.382813l-25.816407 21.554687c-1.316406-10.773437-6.046874-20.5-13.082031-28.0625l51.027344-44.539062c3.003906-2.621094 6.851563-4.0625 10.835937-4.0625h34.621094c21.230469 0 40.617188-11.644531 50.589844-30.386719l32.242188-60.585937c1.449218-2.730469 3.910156-4.621094 6.921874-5.328125 3.007813-.703125 6.050782-.097657 8.5625 1.703125 4.144532 2.972656 5.574219 8.476562 3.40625 13.085937zm0 0"/><path d="m77.933594 340.804688c2.628906 0 5.210937-1.0625 7.074218-2.933594 1.859376-1.859375 2.933594-4.433594 2.933594-7.074219 0-2.632813-1.074218-5.214844-2.933594-7.078125-1.863281-1.859375-4.445312-2.929688-7.074218-2.929688-2.632813 0-5.214844 1.070313-7.078125 2.929688-1.859375 1.863281-2.929688 4.445312-2.929688 7.078125 0 2.640625 1.070313 5.214844 2.929688 7.074219 1.863281 1.871094 4.445312 2.933594 7.078125 2.933594zm0 0"/><path d="m434.097656 368.292969c-.015625 0-.03125 0-.046875 0-5.527343.027343-9.988281 4.53125-9.960937 10.058593l.003906.40625c.023438 5.511719 4.5 9.960938 10.003906 9.960938h.050782c5.527343-.027344 9.988281-4.53125 9.960937-10.058594l-.003906-.40625c-.023438-5.511718-4.5-9.960937-10.007813-9.960937zm0 0"/></svg>