<svg height="512pt" viewBox="0 0 512 512" width="512pt" xmlns="http://www.w3.org/2000/svg"><path d="m255.1875 316.339844h36.648438c4.09375 0 7.773437-2.496094 9.289062-6.300782l16.125-40.492187c6.964844 12.089844 16.332031 22.820313 27.503906 31.285156 18.238282 13.828125 40.007813 21.136719 62.949219 21.136719 11.6875 0 23.164063-1.921875 34.109375-5.710938 5.222656-1.804687 7.988281-7.5 6.183594-12.71875-1.808594-5.21875-7.5-7.984374-12.71875-6.179687-8.84375 3.058594-18.117188 4.609375-27.574219 4.609375-36.34375 0-68.992187-23.84375-80.175781-58.234375l3.246094-8.148437h50.953124c21.769532 0 39.480469-17.710938 39.480469-39.484376v-61.636718c40.386719 6.460937 70.792969 41.316406 70.792969 83.207031 0 10.238281-1.8125 20.238281-5.386719 29.722656-1.949219 5.167969.664063 10.9375 5.832031 12.886719 1.160157.4375 2.351563.644531 3.523438.644531 4.042969 0 7.847656-2.46875 9.359375-6.476562 4.425781-11.746094 6.671875-24.121094 6.671875-36.777344 0-52.925781-39.234375-96.800781-90.792969-103.425781v-11.578125c0-11.664063-5.011719-22.28125-13.003906-29.644531 9.066406-7.585938 14.847656-18.980469 14.847656-31.699219 0-22.785157-18.539062-41.324219-41.324219-41.324219-22.785156 0-41.324218 18.539062-41.324218 41.324219 0 12.671875 5.742187 24.027343 14.753906 31.613281-.097656.089844-.195312.167969-.292969.257812-6.773437 6.292969-11.105469 14.792969-12.289062 23.875h-28.359375c-16.269532 0-29.503906 13.234376-29.503906 29.503907s13.234374 29.503906 29.503906 29.503906h28.03125v13.269531h-22.90625c-18.738282 0-35.710938 11.800782-42.238282 29.363282l-23.652343 63.660156c-14.085938.898437-25.273438 12.644531-25.273438 26.953125 0 14.898437 12.117188 27.015625 27.011719 27.015625zm126.539062-296.339844c11.757813 0 21.324219 9.566406 21.324219 21.324219 0 11.757812-9.566406 21.324219-21.324219 21.324219-11.757812 0-21.324218-9.566407-21.324218-21.324219 0-11.757813 9.566406-21.324219 21.324218-21.324219zm-126.539062 262.316406h5.234375c4.179687 0 7.917969-2.597656 9.375-6.515625l26.050781-70.117187c3.632813-9.769532 13.070313-16.332032 23.492188-16.332032h32.90625c5.523437 0 10-4.476562 10-10v-33.269531c0-5.523437-4.476563-10-10-10h-38.03125c-5.238282 0-9.503906-4.265625-9.503906-9.503906 0-5.242187 4.265624-9.503906 9.503906-9.503906h33.089844c8.238281 0 14.941406-6.703125 14.941406-14.941407 0-5.480468 2.210937-10.550781 6.230468-14.28125 4.011719-3.726562 9.25-5.550781 14.757813-5.144531 10.078125.746094 17.976563 9.515625 17.976563 19.960938v93.4375c0 10.742187-8.742188 19.480469-19.480469 19.480469h-57.738281c-4.09375 0-7.773438 2.496093-9.289063 6.300781l-29.648437 74.453125h-29.867188c-3.863281 0-7.011719-3.144532-7.011719-7.011719s3.144531-7.011719 7.011719-7.011719zm0 0"/><path d="m466.84375 277.742188c-.046875.046874-.132812.128906-.179688.175781-3.902343 3.90625-3.902343 10.230469.003907 14.136719 1.949219 1.953124 4.507812 2.929687 7.070312 2.929687 2.539063 0 5.082031-.960937 7.03125-2.886719 3.917969-3.835937 4.019531-10.117187.210938-14.078125-3.828125-3.980469-10.15625-4.105469-14.136719-.277343zm0 0"/><path d="m454.507812 361.386719-66.0625 47.492187c-1.289062-6.828125-4.46875-13.234375-9.328124-18.09375-5.667969-5.667968-13.203126-8.789062-21.214844-8.789062h-71.035156c-5.34375 0-10.363282-2.078125-14.125-5.839844l-53.199219-53.449219c-11.335938-11.332031-26.402344-17.574219-42.429688-17.574219h-86.753906c-.121094-.003906-.238281-.019531-.359375-.019531h-80c-5.523438 0-10 4.480469-10 10v186.882813c0 5.523437 4.476562 10 10 10h80c5.523438 0 10-4.476563 10-10v-7.476563l47.308594 13.257813c9.996094 2.800781 20.328125 4.21875 30.710937 4.21875h169.042969c22.058594 0 43.726562-7.542969 61.015625-21.238282l90.164063-71.4375c8.089843-6.410156 13.082031-15.996093 13.691406-26.300781.613281-10.304687-3.207032-20.414062-10.480469-27.738281-12.640625-12.726562-32.382813-14.363281-46.945313-3.894531zm-374.507812 130.613281h-60v-166.882812h20v95.015624c0 5.523438 4.476562 10 10 10s10-4.476562 10-10v-95.015624h20zm411.972656-100.167969c-.28125 4.695313-2.464844 8.886719-6.152344 11.808594l-90.164062 71.4375c-13.769531 10.910156-31.027344 16.917969-48.59375 16.917969h-169.042969c-8.558593 0-17.074219-1.171875-25.3125-3.476563l-52.707031-14.769531v-148.617188h77.113281c10.6875 0 20.730469 4.164063 28.269531 11.699219l53.199219 53.449219c7.554688 7.554688 17.601563 11.714844 28.285157 11.714844h71.035156c2.671875 0 5.183594 1.042968 7.070312 2.929687 4.585938 4.585938 4.957032 12.140625 2.976563 16.917969-.660157 1.597656-1.453125 2.691406-2.261719 3.449219-.085938.070312-.175781.140625-.257812.214843-1.707032 1.4375-3.445313 1.449219-4.1875 1.449219h-110.492188c-6.910156 0-13.625-1.992187-19.417969-5.761719l-32.117187-20.886718-.117188-.078125c-4.632812-3.003907-10.824218-1.683594-13.832031 2.949219-3.003906 4.636718-1.683594 10.828124 2.949219 13.832031l32.210937 20.949219c9.046875 5.886718 19.53125 8.996093 30.320313 8.996093h110.492187c6.527344 0 12.429688-2.210937 17.125-6.195312l87.816407-63.136719c6.539062-4.703125 15.410156-3.964844 21.082031 1.75 3.316406 3.335938 4.988281 7.761719 4.710937 12.457031zm0 0"/><path d="m50 450.136719c-2.628906 0-5.210938 1.0625-7.070312 2.921875-1.859376 1.859375-2.929688 4.4375-2.929688 7.078125 0 2.628906 1.070312 5.210937 2.929688 7.070312 1.859374 1.859375 4.441406 2.921875 7.070312 2.921875s5.210938-1.0625 7.070312-2.921875c1.859376-1.859375 2.929688-4.441406 2.929688-7.070312 0-2.640625-1.070312-5.21875-2.929688-7.078125-1.859374-1.859375-4.441406-2.921875-7.070312-2.921875zm0 0"/></svg>