<svg height="512pt" viewBox="0 0 512 512.001" width="512pt" xmlns="http://www.w3.org/2000/svg"><path d="m508.183594 325.699219-42.132813-33.335938v-36.363281c0-2.679688-1.074219-5.246094-2.980469-7.125s-4.503906-2.890625-7.167968-2.875c-17.449219.261719-33.308594 10.734375-40.40625 26.675781l-5.402344 12.136719-19.324219 31.621094c-7.300781 11.949218-20.535156 19.367187-34.535156 19.367187h-64.742187c-17.652344 0-33.757813 7.289063-45.304688 19.148438-15.332031 13.101562-35.101562 19.527343-55.0625 18.039062l1.394531-8.476562c3.1875-19.355469 1.738281-39.46875-4.195312-58.164063l-19.636719-61.898437v-40.328125c23.820312 12.832031 50.460938 19.546875 78.007812 19.546875h24.300782c3.894531 0 7.671875-.6875 11.203125-2.003907l52.332031 52.335938c1.953125 1.953125 4.511719 2.929688 7.070312 2.929688 2.558594 0 5.121094-.976563 7.070313-2.929688 3.90625-3.90625 3.90625-10.238281 0-14.140625l-50.804687-50.808594c3.550781-5.457031 5.34375-11.859375 5.105468-18.539062-.613281-17.292969-14.890625-30.84375-32.503906-30.84375h-17.96875c-.027344-.339844-.066406-.675781-.066406-1.019531 0-6.609376 5.378906-11.988282 11.988281-11.988282h18.21875c5.523437 0 10-4.476562 10-10 0-5.523437-4.476563-10-10-10h-18.21875c-17.621094 0-31.957031 14.320313-31.988281 31.9375-23.125-4.046875-41.976563-22.15625-47.609375-46.269531-1.121094-4.789063-2.929688-9.273437-5.308594-13.367187 21.972656-5.339844 38.339844-25.171876 38.339844-48.765626.003906-27.675781-22.515625-50.195312-50.191407-50.195312-27.679687 0-50.195312 22.519531-50.195312 50.195312 0 9.710938 2.78125 18.777344 7.574219 26.46875-13.105469 3.621094-24.46875 12.683594-30.648438 25.265626-16.308593 33.199218-24.925781 70.296874-24.925781 107.285156v36.785156c0 18.011719 3.792969 35.710938 10.886719 51.96875l-11.558594 63.25-47.46875 61.097656c0 .003906-.003906.011719-.007813.015625-.171874.21875-.328124.457031-.480468.691407-.039063.058593-.082032.113281-.117188.171874-.003906 0-.003906.003907-.003906.003907l-18.527344 30.019531c-4.265625 6.910156-2.1093748 16.003906 4.800782 20.265625l59.980468 37.023437c1.636719 1.011719 3.453125 1.492188 5.242188 1.492188 3.355468 0 6.628906-1.6875 8.519531-4.746094 7.015625-11.367187 9.1875-24.78125 6.109375-37.78125-.890625-3.765625-2.207031-7.363281-3.882812-10.75l21.59375-24.3125-3.359376 26.324219c-.003906.035156-.003906.074219-.007812.109375-.019531.199219-.03125.398438-.042969.601562-.007812.152344-.019531.304688-.023437.457032 0 .03125-.003906.0625-.003906.097656v40c0 5.523438 4.476562 10 10 10h75.21875c5.523437 0 10-4.476562 10-10 0-16.269531-7.8125-30.746094-19.882813-39.882812l11.414063-69.34375c2.980468.277343 5.953124.429687 8.921874.429687 11.152344 0 22.15625-1.953125 32.542969-5.699219-.25 1.367188-.476562 2.75-.640625 4.152344l-11.730468 99.8125c-.613282 5.207031 1.035156 10.441406 4.519531 14.363281 3.488281 3.917969 8.496093 6.167969 13.738281 6.167969h23.59375c4.25 0 8.035156-2.6875 9.4375-6.699219 1.300781-3.714843 2.722656-7.773437 4.203125-11.980469l1.9375 5.96875c2.46875 7.601563 9.496094 12.707032 17.488281 12.707032h18.710938c5.792968 0 11.128906-2.644532 14.636718-7.253906 3.503907-4.613282 4.628907-10.457032 3.082032-16.042969l-11.226563-40.488281h41.808594l-11.707031 40.269531c-1.628906 5.605469-.554688 11.5 2.949218 16.167969 3.507813 4.671874 8.867188 7.351562 14.707032 7.351562h18.535156c8.035156 0 15.074219-5.144531 17.515625-12.796875l.65625-2.058594 3.402344 5.78125c3.285156 5.597657 9.359375 9.070313 15.851562 9.070313h18.828125c6.058594 0 11.722656-2.976563 15.152344-7.972656 3.429688-4.992188 4.179688-11.347657 2.007812-17.003907l-21.757812-56.628906c7.878906-9.144531 13.289062-20.300781 15.585938-32.570313.015624-.074218.035156-.148437.046874-.226562.007813-.039062.019532-.078125.027344-.117188l5.128906-28.1875h16.523438c15.945312 0 30.039062-9.582031 35.90625-24.410156l3.027344-7.660156c1.625-4.101562.367187-8.78125-3.09375-11.519531zm-340.519532-305.699219c16.648438 0 30.195313 13.546875 30.195313 30.195312 0 16.648438-13.546875 30.195313-30.195313 30.195313-16.648437 0-30.195312-13.546875-30.195312-30.195313 0-16.648437 13.542969-30.195312 30.195312-30.195312zm-78.195312 189.214844c0-33.945313 7.910156-68 22.875-98.46875 5.140625-10.460938 16.382812-16.773438 28-15.710938 12.164062 1.117188 22.214844 9.894532 25.003906 21.84375 7.929688 33.929688 35.816406 58.933594 69.398438 62.210938 3.441406.335937 6.9375.519531 10.417968.5625.078126.003906.15625.015625.234376.015625.054687 0 .109374-.011719.164062-.011719.375.003906 24.90625.015625 24.90625.015625 6.675781 0 12.292969 5.183594 12.519531 11.554687.117188 3.296876-1.074219 6.414063-3.355469 8.777344-2.28125 2.367188-5.351562 3.667969-8.636718 3.667969h-24.300782c-29.625 0-58.039062-8.828125-82.171874-25.523437-.035157-.027344-.078126-.042969-.113282-.070313-7.148437-4.953125-13.921875-10.617187-20.140625-16.832031-3.90625-3.90625-10.238281-3.90625-14.140625 0-3.90625 3.90625-3.90625 10.238281 0 14.140625 5.792969 5.796875 12.023438 11.160156 18.558594 16.015625v.347656 44.25h-59.21875zm-21.945312 278.128906-45.542969-28.109375 10.503906-17.019531 21.460937 13.246094c6.816407 4.210937 11.589844 10.820312 13.4375 18.621093 1.046876 4.429688 1.078126 8.941407.140626 13.261719zm3.308593-45.085938-26.859375-16.488281 42.117188-54.210937c.988281-1.269532 1.652344-2.757813 1.941406-4.335938l7.816406-42.765625c4.410156 5.84375 9.324219 11.339844 14.722656 16.398438l5.277344 4.945312-6.8125 53.441407zm50.285157 49.742188v-20h25.21875c13.039062 0 24.160156 8.359375 28.289062 20zm1.355468-40 6-47.082031c.003906-.015625.003906-.03125.007813-.046875l7.855469-61.605469c.402343-3.183594-.742188-6.367187-3.082032-8.5625l-9.007812-8.441406c-19.660156-18.421875-31.851563-43.605469-34.3125-70.261719h61.433594l17.890624 56.394531c4.984376 15.707031 6.203126 32.605469 3.523438 48.867188l-14.933594 90.738281zm276.3125-113.746094 35.835938 35.835938-2.113282 11.59375h-50.296874v-35.804688c6.113281-2.917968 11.726562-6.847656 16.574218-11.625zm-90.316406 153.746094h-15.414062l-9.621094-29.636719c2.007812-5.59375 3.789062-10.519531 5.132812-14.152343h7.761719zm-26.761719-63.789062c-3.980469 0-7.582031 2.359374-9.171875 6.011718-2.492187 5.742188-15.296875 42.054688-20.8125 57.773438h-14.6875l11.519532-98.007813c1.128906-9.617187 5.367187-18.183593 11.628906-24.757812.027344-.027344.054687-.054688.082031-.085938 7.910156-8.257812 19.027344-13.34375 31.226563-13.34375h64.742187c2.003906 0 4-.101562 5.976563-.304687v72.714844zm100.488281 63.789062h-15.203124l14.765624-50.804688c.003907-.011718.007813-.027343.011719-.042968l.042969-.152344c.019531-.058594.027344-.117188.042969-.175781.070312-.273438.136719-.546875.1875-.828125.023437-.121094.039062-.246094.058593-.371094.03125-.230469.058594-.460938.074219-.699219.011719-.144531.019531-.289062.023438-.4375 0-.09375.011719-.183593.011719-.277343v-32.527344h45.09375c-2.535157 5.550781-6.054688 10.570312-10.421876 14.816406-.207031.175781-.402343.359375-.589843.550781-3.234375 3.039063-6.894531 5.679688-10.9375 7.808594-2.324219 1.222656-4.070313 3.308594-4.867188 5.808594zm39.527344 0-12.011718-20.441406 8.640624-27.078125c.183594-.109375.355469-.234375.535157-.34375l18.390625 47.863281zm67.929688-154.476562c-2.828125 7.148437-9.621094 11.765624-17.308594 11.765624h-24.867188c-2.574218 0-4.949218.992188-6.742187 2.628907l-29.921875-29.925781 16.683594-27.304688c.226562-.367188.429687-.753906.605468-1.148438l5.664063-12.730468c2.488281-5.589844 6.921875-9.96875 12.285156-12.472656v28.867187c0 3.058594 1.398438 5.945313 3.796875 7.84375l40.101563 31.726563zm0 0"/><path d="m439.699219 314.320312c-1.859375 1.859376-2.929688 4.4375-2.929688 7.070313 0 2.628906 1.070313 5.207031 2.929688 7.070313 1.863281 1.859374 4.441406 2.929687 7.070312 2.929687 2.632813 0 5.210938-1.070313 7.070313-2.929687 1.859375-1.863282 2.929687-4.441407 2.929687-7.070313 0-2.632813-1.070312-5.210937-2.929687-7.070313-1.859375-1.859374-4.4375-2.929687-7.070313-2.929687-2.628906 0-5.207031 1.070313-7.070312 2.929687zm0 0"/><path d="m369.890625 305.210938c2.628906 0 5.210937-1.0625 7.070313-2.929688 1.859374-1.863281 2.929687-4.433594 2.929687-7.070312 0-2.632813-1.070313-5.210938-2.929687-7.070313-1.859376-1.859375-4.441407-2.929687-7.070313-2.929687-2.640625 0-5.210937 1.070312-7.070313 2.929687-1.859374 1.859375-2.929687 4.4375-2.929687 7.070313 0 2.636718 1.070313 5.21875 2.929687 7.070312 1.859376 1.867188 4.429688 2.929688 7.070313 2.929688zm0 0"/></svg>