<svg height="512pt" viewBox="0 0 512 512" width="512pt" xmlns="http://www.w3.org/2000/svg"><path d="m339.0625 403.304688-28.226562-72.542969c-9.140626-23.484375-31.328126-38.660157-56.527344-38.660157h-28.445313c-.28125 0-.558593.019532-.835937.042969-.835938-.882812-1.683594-1.757812-2.546875-2.625-.777344-.777343-1.5625-1.539062-2.355469-2.292969v-27.386718c29.78125-3.664063 57.523438-17.160156 78.945312-38.578125 5.664063-5.667969 8.785157-13.199219 8.785157-21.214844 0-8.011719-3.121094-15.546875-8.785157-21.210937-11.699218-11.695313-30.730468-11.699219-42.414062-.011719l-.410156.402343c-14.886719 14.675782-38.421875 15.664063-54.742188 2.296876-.726562-.59375-1.472656-1.160157-2.230468-1.710938 11.605468-8.972656 19.101562-23.019531 19.101562-38.789062 0-27.03125-21.992188-49.023438-49.023438-49.023438-27.035156 0-49.027343 21.992188-49.027343 49.023438 0 15.777343 7.5 29.832031 19.117187 38.804687-12.636718 9.242187-20.867187 24.175781-20.867187 40.996094v31.117187c-8.4375.757813-16.8125 2.328125-25 4.722656v-55.75c0-5.523437-4.476563-10-10-10h-54.15625c-16.222657.003907-29.417969 13.199219-29.417969 29.421876 0 16.21875 13.195312 29.414062 29.417969 29.414062h44.15625v14.605469c-12.804688 6.175781-24.796875 14.558593-35.402344 25.164062-13.097656 13.097657-23.058594 28.445313-29.613281 45.621094-1.96875 5.160156.617187 10.941406 5.777344 12.910156 5.160156 1.96875 10.941406-.621093 12.90625-5.777343 5.542968-14.527344 13.980468-27.519532 25.070312-38.609376 43.015625-43.015624 113.007812-43.015624 156.023438 0 43.015624 43.015626 43.015624 113.007813 0 156.023438-43.015626 43.015625-113.007813 43.015625-156.023438 0-12.558594-12.5625-21.65625-27.441406-27.039062-44.222656-1.683594-5.257813-7.308594-8.15625-12.574219-6.46875-5.257813 1.6875-8.15625 7.316406-6.46875 12.574218 6.273437 19.566407 17.316406 37.636719 31.941406 52.257813 25.40625 25.40625 58.777344 38.109375 92.152344 38.109375 33.371093 0 66.746093-12.703125 92.152343-38.109375 4.515626-4.515625 8.621094-9.28125 12.332032-14.253906h46.492187c-2.453125 4.878906-3.847656 10.386719-3.847656 16.210937 0 19.96875 16.246094 36.214844 36.214844 36.214844s36.214843-16.246094 36.214843-36.214844c0-5.824218-1.394531-11.332031-3.847656-16.210937h16.121094c5.523438 0 10-4.476563 10-10v-6.714844c0-19.738281-14.304688-36.199219-33.09375-39.554687zm-309.644531-173.554688c-5.191407 0-9.417969-4.222656-9.417969-9.414062 0-5.195313 4.226562-9.417969 9.417969-9.417969h44.15625v18.835937h-44.15625zm110.90625-88.726562c0-16.003907 13.023437-29.023438 29.023437-29.023438 16.003906 0 29.023438 13.019531 29.023438 29.023438 0 16.003906-13.019532 29.023437-29.023438 29.023437-16 0-29.023437-13.019531-29.023437-29.023437zm29.027343 49.027343c7.191407 0 13.929688 2.402344 19.476563 6.945313 24.253906 19.863281 59.273437 18.34375 81.453125-3.519532l.503906-.5c3.898438-3.898437 10.242188-3.898437 14.144532 0 1.886718 1.886719 2.925781 4.398438 2.925781 7.070313s-1.039063 5.183594-2.929688 7.070313c-20.171875 20.175781-46.921875 32.101562-75.320312 33.578124-5.3125.277344-9.476563 4.667969-9.476563 9.988282v20.925781c-18.820312-11.9375-40.046875-18.582031-61.554687-19.933594v-30.851562c0-16.96875 13.804687-30.773438 30.777343-30.773438zm90.832032 181.417969 30.921875 68.105469h-44.011719c10.539062-21.300781 14.898438-44.898438 13.089844-68.105469zm69.699218 104.316406c0 8.941406-7.273437 16.214844-16.210937 16.214844-8.941406 0-16.214844-7.273438-16.214844-16.214844 0-8.9375 7.273438-16.210937 16.214844-16.210937 8.9375 0 16.210937 7.273437 16.210937 16.210937zm-16.8125-36.210937-37.8125-83.289063c-1.625-3.574218-5.183593-5.867187-9.105468-5.867187h-9.339844c-3.28125-13.378907-8.710938-26.332031-16.277344-38.3125h13.773438c16.890625 0 31.761718 10.167969 37.886718 25.910156l30.46875 78.292969c1.496094 3.84375 5.195313 6.375 9.320313 6.375 10.003906 0 18.332031 7.324218 19.90625 16.890625zm0 0"/><path d="m10.023438 389.304688c5.425781 0 9.878906-4.386719 10-9.832032 0-.019531 0-.039062 0-.058594.089843-5.515624-4.304688-10.113281-9.820313-10.210937-5.511719-.074219-10.070313 4.34375-10.1796875 9.859375-.1015625 5.515625 4.2773435 10.128906 9.7968745 10.242188zm0 0"/><path d="m130.324219 340.605469c-22.644531 0-41.066407 18.425781-41.066407 41.070312s18.421876 41.066407 41.066407 41.066407 41.070312-18.421876 41.070312-41.066407-18.421875-41.070312-41.070312-41.070312zm0 62.136719c-11.617188 0-21.066407-9.449219-21.066407-21.066407 0-11.617187 9.449219-21.070312 21.066407-21.070312 11.617187 0 21.070312 9.453125 21.070312 21.070312 0 11.617188-9.453125 21.066407-21.070312 21.066407zm0 0"/><path d="m512 30c0-16.542969-13.457031-30-30-30h-104c-16.542969 0-30 13.457031-30 30 0 7.953125 3.117188 15.191406 8.1875 20.566406.121094.132813.238281.277344.371094.40625 14.0625 14.0625 21.804687 32.757813 21.804687 52.644532v24.382812c0 5.523438 4.480469 10 10 10 5.523438 0 10-4.476562 10-10v-21.136719h21.636719v21.136719c0 5.523438 4.476562 10 10 10s10-4.476562 10-10v-21.136719h21.636719v21.136719c0 5.523438 4.476562 10 10 10 5.523437 0 10-4.476562 10-10v-24.382812c0-19.886719 7.746093-38.582032 21.808593-52.644532.128907-.128906.246094-.269531.367188-.40625 5.070312-5.375 8.1875-12.613281 8.1875-20.566406zm-134-10h104c5.515625 0 10 4.484375 10 10s-4.484375 10-10 10h-104c-5.515625 0-10-4.484375-10-10s4.484375-10 10-10zm18.886719 66.863281c-1.675781-9.414062-4.765625-18.449219-9.152344-26.863281h32.265625v26.863281zm43.113281-26.863281h32.265625c-4.386719 8.414062-7.476563 17.449219-9.152344 26.863281h-23.113281zm0 0"/><path d="m286.152344 153.253906c30.375 0 55.085937-24.710937 55.085937-55.085937s-24.710937-55.085938-55.085937-55.085938-55.089844 24.710938-55.089844 55.085938 24.714844 55.085937 55.089844 55.085937zm0-90.171875c19.34375 0 35.085937 15.738281 35.085937 35.085938 0 19.347656-15.742187 35.085937-35.085937 35.085937-19.347656 0-35.089844-15.738281-35.089844-35.085937 0-19.347657 15.742188-35.085938 35.089844-35.085938zm0 0"/><path d="m160.628906 457.21875c1.824219 3.296875 5.238282 5.160156 8.757813 5.160156 1.636719 0 3.300781-.402344 4.835937-1.253906 28.902344-16 46.859375-46.441406 46.859375-79.449219 0-5.523437-4.480469-10-10-10-5.523437 0-10 4.476563-10 10 0 25.734375-14.003906 49.472657-36.546875 61.953125-4.832031 2.675782-6.582031 8.757813-3.90625 13.589844zm0 0"/><path d="m130.441406 452.433594c-5.582031-.050782-10.070312 4.425781-10.082031 9.980468-.007813 5.519532 4.488281 10 10.007813 10.019532v-.003906c.078124.003906.160156.003906.242187.003906 5.523437-.039063 9.921875-4.542969 9.886719-10.0625-.03125-5.5-4.546875-9.9375-10.042969-9.9375-.003906 0-.007813 0-.011719 0zm0 0"/></svg>