<svg height="512pt" viewBox="0 0 512 512.001" width="512pt" xmlns="http://www.w3.org/2000/svg"><path d="m192 384c-2.628906 0-5.210938 1.070312-7.070312 2.929688-1.859376 1.859374-2.929688 4.441406-2.929688 7.070312s1.070312 5.210938 2.929688 7.070312c1.863281 1.859376 4.441406 2.929688 7.070312 2.929688s5.210938-1.070312 7.070312-2.929688c1.859376-1.859374 2.929688-4.441406 2.929688-7.070312s-1.070312-5.210938-2.929688-7.070312c-1.859374-1.859376-4.441406-2.929688-7.070312-2.929688zm0 0"/><path d="m96 280c-16.542969 0-30 13.457031-30 30s13.457031 30 30 30 30-13.457031 30-30-13.457031-30-30-30zm0 40c-5.515625 0-10-4.488281-10-10 0-5.515625 4.484375-10 10-10s10 4.484375 10 10c0 5.511719-4.484375 10-10 10zm0 0"/><path d="m96 54c-23.160156 0-42 18.839844-42 42s18.839844 42 42 42 42-18.839844 42-42-18.839844-42-42-42zm0 64c-12.128906 0-22-9.871094-22-22 0-12.132812 9.871094-22 22-22 12.132812 0 22 9.867188 22 22 0 12.128906-9.867188 22-22 22zm0 0"/><path d="m352 138c23.160156 0 42-18.839844 42-42s-18.839844-42-42-42-42 18.839844-42 42 18.839844 42 42 42zm0-64c12.128906 0 22 9.867188 22 22 0 12.128906-9.871094 22-22 22-12.132812 0-22-9.871094-22-22 0-12.132812 9.871094-22 22-22zm0 0"/><path d="m96 160c-23.160156 0-42 18.839844-42 42s18.839844 42 42 42 42-18.839844 42-42-18.839844-42-42-42zm0 64c-12.128906 0-22-9.871094-22-22 0-12.132812 9.871094-22 22-22 12.132812 0 22 9.867188 22 22 0 12.128906-9.867188 22-22 22zm0 0"/><path d="m224 138c23.160156 0 42-18.839844 42-42s-18.839844-42-42-42-42 18.839844-42 42 18.839844 42 42 42zm0-64c12.132812 0 22 9.867188 22 22 0 12.128906-9.867188 22-22 22s-22-9.871094-22-22c0-12.132812 9.871094-22 22-22zm0 0"/><path d="m498.242188 354.5c-9.160157-22.15625-22.398438-41.980469-39.347657-58.933594l-9.152343-9.152344v-248.414062c0-20.953125-17.046876-38-38-38h-373.742188c-20.953125 0-38 17.046875-38 38v328c0 20.953125 17.046875 38 38 38h114c5.523438 0 10-4.476562 10-10s-4.476562-10-10-10h-114c-9.925781 0-18-8.074219-18-18v-328c0-9.925781 8.074219-18 18-18h373.742188c9.921874 0 18 8.074219 18 18v228.414062l-71.359376-71.359374c-11.847656-11.84375-31.117187-11.839844-42.960937 0-2.59375 2.59375-4.617187 5.542968-6.074219 8.691406l-.8125-.808594c-5.734375-5.738281-13.363281-8.898438-21.476562-8.898438-7.925782 0-15.386719 3.023438-21.074219 8.511719 0-.183593.015625-.367187.015625-.550781 0-23.160156-18.839844-42-42-42s-42 18.839844-42 42c0 18.769531 12.550781 35.074219 30.074219 40.269531 1.058593 5.890625 3.851562 11.53125 8.394531 16.074219l.472656.476562c-3.160156 1.476563-6.070312 3.507813-8.609375 6.050782-5.738281 5.734375-8.898437 13.363281-8.898437 21.476562 0 8.113282 3.160156 15.742188 8.898437 21.480469l96.414063 96.414063c.871094.871093 1.355468 2.03125 1.359375 3.265624.003906 1.671876-.84375 2.777344-1.351563 3.289063-.503906.507813-1.605468 1.363281-3.273437 1.367187l-3.128907.007813c-.003906 0-.007812 0-.011718 0-1.222656 0-2.417969-.496094-3.28125-1.359375l-20.304688-20.304688c-6.28125-6.277343-14.632812-9.738281-23.515625-9.738281-8.878906 0-17.230469 3.457031-23.511719 9.738281s-9.738281 14.632813-9.738281 23.515626c0 8.878906 3.457031 17.230468 9.738281 23.511718l18.539063 18.539063c30.816406 30.8125 71.65625 50.273437 114.996094 54.789062l10.382812 1.082031c.351563.039063.703125.054688 1.046875.054688 5.058594 0 9.398438-3.824219 9.9375-8.964844.570313-5.492187-3.417968-10.40625-8.910156-10.980468l-10.382812-1.082032c-38.792969-4.042968-75.347657-21.457031-102.925782-49.039062l-18.539062-18.539063c-2.503906-2.503906-3.882813-5.832031-3.882813-9.371093 0-3.542969 1.378907-6.871094 3.882813-9.371094 2.5-2.503906 5.828125-3.882813 9.367187-3.882813 3.542969 0 6.871094 1.378907 9.371094 3.882813l20.304687 20.304687c4.589844 4.585938 10.9375 7.214844 17.425782 7.214844h.066406l3.125-.007813c6.585938-.019531 12.765625-2.601562 17.40625-7.269531s7.1875-10.867187 7.167969-17.453125c-.023438-6.550781-2.585938-12.710937-7.21875-17.34375l-96.414063-96.414062c-1.960937-1.960938-3.039062-4.5625-3.039062-7.335938 0-2.769531 1.078125-5.378906 3.039062-7.335937 1.960938-1.960938 4.566406-3.039063 7.335938-3.039063 2.710937 0 5.253906 1.035156 7.199218 2.910156l84.398438 84.402344c.042969.039063.089844.074219.132812.117188l3.859376 3.859375c3.90625 3.902343 10.234374 3.902343 14.140624 0 3.90625-3.90625 3.90625-10.238281 0-14.144531l-88.25-88.25c-.09375-.089844-.1875-.175782-.28125-.269532l-20.398437-20.394531c-4.046875-4.046875-4.046875-10.628906 0-14.675781 4.042969-4.042969 10.628906-4.046875 14.675781 0l15.097656 15.097656c.386719.429688.78125.855469 1.195313 1.269531l63.667969 63.671875c.25.246094.503906.476563.769531.691406l27.769531 27.769532c3.90625 3.902344 10.234375 3.902344 14.144532 0 3.902343-3.90625 3.902343-10.238282 0-14.144532l-92.914063-92.914062c-1.511719-1.84375-2.335937-4.136719-2.335937-6.554688 0-2.769531 1.082031-5.375 3.042968-7.335937 1.957032-1.960937 4.5625-3.039063 7.335938-3.039063 2.769531 0 5.375 1.078126 7.335937 3.039063l82.667969 82.667969c.265625.265625.542969.507812.832031.738281l1.199219 1.199219c3.90625 3.90625 10.234375 3.90625 14.140625 0 3.90625-3.902344 3.90625-10.234375 0-14.140625l-63.667969-63.671875c-4.046875-4.046875-4.046875-10.628906 0-14.675782 4.042969-4.042968 10.628906-4.046874 14.671875 0l100.511719 100.515626c30.527344 30.523437 47.304688 71.105468 47.25 114.277343-.007812 5.519531 4.464844 10.003907 9.988281 10.011719h.011719c5.515625 0 9.992188-4.46875 10-9.988281.03125-23.972657-4.597656-47.359375-13.757812-69.511719zm-277.773438-139.113281c-2.078125 2.074219-3.78125 4.386719-5.128906 6.839843-7.894532-3.394531-13.339844-11.273437-13.339844-20.226562 0-12.132812 9.867188-22 22-22s22 9.867188 22 22c0 1.609375-.175781 3.183594-.511719 4.714844-8.910156-1.035156-18.195312 1.847656-25.019531 8.671875zm0 0"/></svg>