<svg height="512pt" viewBox="-26 0 512 512" width="512pt" xmlns="http://www.w3.org/2000/svg"><path d="m284.480469 268.773438c3.386719 0 6.691406-1.714844 8.585937-4.816407l.148438-.246093c2.871094-4.746094 1.355468-10.917969-3.390625-13.789063-4.746094-2.871094-10.914063-1.351563-13.785157 3.390625l-.121093.199219c-2.882813 4.734375-1.386719 10.910156 3.351562 13.796875 1.628907.992187 3.433594 1.464844 5.210938 1.464844zm0 0"/><path d="m414.117188 111.332031c-29.886719-40.960937-71.203126-70.796875-119.488282-86.277343l-41.914062-13.4375c-21.378906-7.628907-44.800782-11.617188-69.40625-11.617188-31.078125 0-61.730469 7.960938-88.789063 23-24.722656 3.757812-47.210937 17.402344-61.933593 37.65625-10.921876 15.023438-16.953126 32.386719-17.699219 50.34375-9.867188 22.890625-14.886719 47.210938-14.886719 72.320312v88.527344c0 5.546875 4.496094 10.039063 10.039062 10.039063 5.542969 0 10.039063-4.492188 10.039063-10.039063v-88.527344c0-9.679687.84375-19.222656 2.503906-28.589843 1.175781 3.289062 2.453125 6.539062 3.859375 9.734375.085938.195312.175782.386718.273438.574218l36.046875 69.640626c.222656.433593.476562.84375.753906 1.230468 3.664063 7.671875 9.199219 14.441406 16.253906 19.542969 7.46875 5.394531 12.167969 13.757813 12.898438 22.941406.730469 9.183594-2.589844 18.183594-9.113281 24.691407l-2.253907 2.25c-14.730469 14.703124-22.84375 34.257812-22.84375 55.070312v24.097656c0 5.542969 4.492188 10.039063 10.039063 10.039063 5.542968 0 10.039062-4.496094 10.039062-10.039063v-24.097656c0-15.441406 6.019532-29.949219 16.949219-40.855469l2.253906-2.25c10.695313-10.671875 16.144531-25.433593 14.945313-40.496093-.265625-3.359376-.875-6.648438-1.765625-9.832032.921875.042969 1.847656.066406 2.78125.066406 14.742187 0 28.601562-5.742187 39.027343-16.164062 9.546876-9.550781 14.847657-21.753906 15.921876-34.257812l2.40625 2.398437c12.496093 12.476563 19.378906 29.070313 19.378906 46.726563 0 14.269531-4.734375 28.398437-13.332032 39.785156l-36.863281 48.832031c-3.339843 4.425781-2.460937 10.71875 1.964844 14.0625 1.808594 1.367187 3.933594 2.027344 6.039063 2.027344 3.042968 0 6.046874-1.378907 8.023437-3.992188l36.863281-48.832031c11.210938-14.847656 17.382813-33.273438 17.382813-51.882812 0-23.027344-8.972657-44.667969-25.277344-60.941407l-33.621094-33.507812c-.792969-.792969-1.691406-1.414063-2.644531-1.886719-15.09375-12.5625-35.363281-15.816406-53.140625-9.761719l-7.394531-14.289062c5.175781-11.027344 12.304687-21.203125 21.21875-30.105469 19.859375-19.835938 46.027344-30.75 73.707031-30.75h.128906c31.605469.035156 59.242188 10.394531 77.816407 29.164062 17.855468 18.039063 27.121093 43.988282 26.796874 75.042969-.109374 10.5625-.679687 20.167969-1.6875 28.554688-.660156 5.503906 3.265626 10.503906 8.773438 11.164062 5.492188.652344 10.5-3.265625 11.164062-8.769531 1.09375-9.109375 1.707032-19.449219 1.828126-30.738281.378906-36.539063-10.894532-67.445313-32.605469-89.375-22.367188-22.605469-55.066407-35.078125-92.066407-35.125-.050781 0-.097656 0-.148437 0-33.039063 0-64.25 13.003906-87.898437 36.625-6.050782 6.046875-11.410157 12.589843-16.042969 19.53125-5.355469-28.554688 3.683593-59.746094 24.367187-79.761719 24.199219-13.558594 51.667969-20.734375 79.523438-20.734375 18.257812 0 35.753906 2.414063 52.058594 7.0625l10.933593 3.503906c21.832031 7.84375 41.175781 19.910157 56.859375 35.761719 28.878906 29.171875 43.882813 69.5625 43.390625 116.796875-.441406 42.359375-6.710937 69.679687-16.886719 89.308594-.015624.023437-.03125.046875-.042968.070312l-2.085938 3.828125c-12.117187 21.085938-29.078125 32.941406-48.101562 46.234375-25.605469 17.886719-54.628906 38.164063-76.714844 84.886719l-.429688.90625c-16.652343 35.234375-39.453124 83.484375-110.878906 83.484375-22.328125 0-39.800781-8.535156-51.933594-25.367187-12.691406-17.605469-19.398437-44.394532-19.398437-77.472657v-36.917969c0-5.546874-4.496094-10.039062-10.039063-10.039062-5.542968 0-10.039062 4.492188-10.039062 10.039062v36.917969c0 37.855469 7.800781 67.867188 23.1875 89.210938 15.894531 22.050781 39.484375 33.707031 68.222656 33.707031 84.144532 0 112.242188-59.457031 129.027344-94.972656l.429688-.90625c19.8125-41.90625 45.359374-59.753906 70.078124-77.023438 6.097657-4.261718 12.140626-8.484375 17.996094-12.992187-.082031 6.9375.945313 13.925781 3.148438 20.753906 5.5 17.046875 17.417968 30.707031 33.558594 38.464844 8.859374 4.257812 18.449218 6.375 28.027343 6.375 10.835938 0 21.652344-2.707031 31.375-8.09375 33.765625-18.710938 54.746094-54.316407 54.746094-92.921875v-39.222656c0-50.707032-15.796875-99.160157-45.679687-140.128907zm-300.417969 65.417969c8.988281 0 17.980469 3.421875 24.828125 10.269531 13.6875 13.691407 13.6875 35.96875 0 49.65625-13.691406 13.695313-35.96875 13.691407-49.660156 0-6.632813-6.628906-10.285157-15.449219-10.285157-24.828125s3.652344-18.195312 10.285157-24.828125c6.847656-6.847656 15.839843-10.269531 24.832031-10.269531zm-55.054688 6.296875-13.949219-26.949219c-3.90625-8.941406-6.789062-18.328125-8.570312-27.90625-3.652344-19.644531.859375-39.4375 12.699219-55.726562 5.757812-7.917969 13.019531-14.554688 21.261719-19.585938-14.78125 28.324219-16.773438 63.121094-3.761719 93.273438-4.386719 11.742187-6.992188 24.148437-7.679688 36.894531zm381.074219 107.636719c0 31.308594-17.011719 60.183594-44.398438 75.355468-12.636718 7.003907-27.953124 7.445313-40.972656 1.1875-11.136718-5.351562-19.355468-14.773437-23.148437-26.53125-3.792969-11.757812-2.628907-24.207031 3.28125-35.054687l12.773437-23.453125c.171875-.320312.324219-.640625.460938-.96875 11.207031-22.042969 18.4375-52.40625 18.914062-97.804688.515625-49.292968-14.328125-92.136718-43.015625-124.527343 70.710938 37.128906 116.105469 110.484375 116.105469 192.574219zm0 0"/><path d="m388.386719 340.910156c2.640625 0 5.21875-1.0625 7.097656-2.941406 1.867187-1.867188 2.929687-4.445312 2.929687-7.097656 0-2.640625-1.0625-5.230469-2.929687-7.097656-1.867187-1.867188-4.457031-2.941407-7.097656-2.941407-2.652344 0-5.242188 1.074219-7.105469 2.941407-1.871094 1.867187-2.933594 4.457031-2.933594 7.097656s1.0625 5.230468 2.933594 7.097656c1.875 1.878906 4.453125 2.941406 7.105469 2.941406zm0 0"/><path d="m401.570312 308.707031c2.636719 0 5.230469-1.074219 7.09375-2.941406 1.867188-1.867187 2.945313-4.457031 2.945313-7.097656s-1.074219-5.230469-2.945313-7.097657c-1.863281-1.867187-4.457031-2.941406-7.09375-2.941406-2.640624 0-5.230468 1.074219-7.097656 2.941406-1.867187 1.867188-2.941406 4.457032-2.941406 7.097657s1.070312 5.230469 2.941406 7.097656c1.867188 1.867187 4.457032 2.941406 7.097656 2.941406zm0 0"/><path d="m414.75 276.5c2.652344 0 5.230469-1.074219 7.097656-2.941406 1.867188-1.867188 2.941406-4.457032 2.941406-7.097656 0-2.652344-1.074218-5.230469-2.941406-7.097657-1.867187-1.878906-4.449218-2.941406-7.097656-2.941406-2.640625 0-5.230469 1.0625-7.097656 2.941406-1.867188 1.867188-2.941406 4.445313-2.941406 7.097657 0 2.640624 1.074218 5.230468 2.941406 7.097656 1.867187 1.867187 4.457031 2.941406 7.097656 2.941406zm0 0"/><path d="m10.039062 322.046875c5.542969 0 10.039063-4.496094 10.039063-10.042969v-.140625c0-5.542969-4.496094-10.039062-10.039063-10.039062-5.542968 0-10.039062 4.496093-10.039062 10.039062v.140625c0 5.546875 4.496094 10.042969 10.039062 10.042969zm0 0"/></svg>