<svg height="512pt" viewBox="0 -86 512 512" width="512pt" xmlns="http://www.w3.org/2000/svg"><path d="m332.003906 238c-2.640625 0-5.210937 1.070312-7.070312 2.929688-1.871094 1.859374-2.929688 4.441406-2.929688 7.070312s1.058594 5.210938 2.929688 7.070312c1.859375 1.859376 4.429687 2.929688 7.070312 2.929688 2.628906 0 5.210938-1.070312 7.070313-2.929688 1.859375-1.859374 2.929687-4.441406 2.929687-7.070312s-1.070312-5.210938-2.929687-7.070312c-1.859375-1.859376-4.441407-2.929688-7.070313-2.929688zm0 0"/><path d="m457.796875 184.386719c2.050781-4.371094 3.203125-9.246094 3.203125-14.386719 0-18.746094-15.253906-34-34-34h-125.6875c-2.199219-8.71875-9.585938-15.417969-18.910156-16.414062l-103.449219-11.054688c-13.484375-1.4375-27 2.933594-37.082031 12-2.582032 2.316406-4.875 4.898438-6.867188 7.671875-8.445312-9.902344-21-16.203125-35.003906-16.203125-9.644531 0-18.597656 2.988281-26 8.078125v-83.078125c0-20.402344-16.597656-37-37-37s-37 16.597656-37 37v293c0 5.523438 4.476562 10 10 10h54c5.523438 0 10-4.476562 10-10v-72h218c5.523438 0 10-4.476562 10-10s-4.476562-10-10-10h-218v-34h377c22.605469 0 41 18.394531 41 41v75h-34v-72c0-5.523438-4.476562-10-10-10h-76c-5.523438 0-10 4.476562-10 10s4.476562 10 10 10h66v72c0 5.523438 4.476562 10 10 10h54c5.523438 0 10-4.476562 10-10v-85c0-31.339844-23.757812-57.222656-54.203125-60.613281zm-89.699219-.386719 28-28h21.824219l-28 28zm-12.558594-15.726562-12.273437-12.273438h24.550781zm-255.539062-36.273438c14.335938 0 26 11.664062 26 26 0 14.328125-11.652344 25.988281-25.980469 26h-.039062c-14.328125-.011719-25.980469-11.671875-25.980469-26 0-14.335938 11.664062-26 26-26zm-46 188h-34v-283c0-9.375 7.625-17 17-17s17 7.625 17 17zm124.207031-136h-4.335937c-15.367188 0-27.871094-12.503906-27.871094-27.871094 0-8.011718 3.28125-15.371094 9.238281-20.726562 5.191407-4.664063 11.679688-7.148438 18.53125-7.148438 1.011719 0 2.035157.054688 3.058594.164063l103.449219 11.054687c.980468.101563 1.722656.929688 1.722656 1.917969v42.609375h-21.230469c.929688-2.835938 1.4375-5.859375 1.4375-9 0-15.992188-13.007812-29-29-29h-55c-5.523437 0-10 4.476562-10 10s4.476563 10 10 10h55c4.960938 0 9 4.039062 9 9s-4.039062 9-9 9zm123.792969-28h12.980469l26.417969 26.417969-1.582032 1.582031h-37.816406zm116.207031 28 20.9375-20.9375c1.171875 2.046875 1.855469 4.414062 1.855469 6.9375 0 7.71875-6.28125 14-14 14zm0 0"/></svg>