<svg height="512pt" viewBox="0 -74 512.00041 512" width="512pt" xmlns="http://www.w3.org/2000/svg"><path d="m294.007812 267.882812-23.996093-61.664062c-8.066407-20.738281-27.664063-34.136719-49.914063-34.136719h-24.460937c-.074219 0-.144531.007813-.214844.011719-1.085937-1.132812-2.191406-2.238281-3.320313-3.324219v-19.359375c17.15625.914063 34.429688-1.984375 50.554688-8.542968 13.925781-5.664063 20.933594-21.453126 15.617188-35.195313-2.667969-6.894531-7.871094-12.289063-14.65625-15.199219-6.789063-2.910156-14.285157-2.957031-21.105469-.136718-.777344.320312-1.558594.625-2.34375.914062-14.117188 5.203125-29.820313 1.429688-40.011719-9.617188-1.585938-1.722656-3.296875-3.304687-5.117188-4.746093 9.503907-7.996094 15.554688-19.964844 15.554688-33.328125 0-24.019532-19.539062-43.558594-43.558594-43.558594-24.019531 0-43.558594 19.542969-43.558594 43.558594 0 13.449218 6.128907 25.492187 15.738282 33.488281-1.265625 1.019531-2.484375 2.105469-3.652344 3.273437-8.640625 8.621094-13.59375 20.492188-13.59375 32.558594v24.738282c-6.40625.648437-12.652344 1.835937-18.699219 3.507812v-46.058594c0-5.523437-4.476562-10-10-10h-46.570312c-14.722657-.003906-26.699219 11.972656-26.699219 26.695313 0 14.722656 11.976562 26.699219 26.699219 26.699219h36.570312v10.304687c-37.453125 18.558594-63.269531 57.1875-63.269531 101.746094 0 14.859375 2.832031 29.3125 8.417969 42.957031 2.089843 5.113281 7.929687 7.5625 13.042969 5.46875 5.109374-2.09375 7.558593-7.929688 5.464843-13.042969-4.597656-11.230469-6.925781-23.132812-6.925781-35.382812 0-51.542969 41.933594-93.476563 93.476562-93.476563 51.539063 0 93.472657 41.933594 93.472657 93.476563s-41.933594 93.476562-93.472657 93.476562c-12.28125 0-24.210937-2.34375-35.464843-6.960937-5.109375-2.09375-10.953125.347656-13.046875 5.457031-2.097656 5.109375.34375 10.949219 5.453125 13.046875 13.675781 5.609375 28.160156 8.457031 43.058593 8.457031 36.90625 0 69.75-17.714843 90.488282-45.085937h37.15625c-1.617188 3.863281-2.515625 8.097656-2.515625 12.542968 0 17.945313 14.597656 32.542969 32.539062 32.542969 17.945313 0 32.542969-14.601562 32.542969-32.542969 0-4.445312-.894531-8.679687-2.515625-12.542968h11.671875c5.523438 0 10-4.476563 10-10v-5.777344c0-17.386719-12.40625-31.933594-28.835938-35.242188zm-267.308593-149.421874c-3.695313 0-6.699219-3.003907-6.699219-6.699219 0-3.691407 3.003906-6.699219 6.699219-6.699219h36.570312v13.398438zm200.382812-8.445313c1.027344-.378906 2.050781-.777344 3.066407-1.195313 1.804687-.746093 3.789062-.734374 5.585937.035157s3.175781 2.199219 3.882813 4.03125c1.40625 3.632812-.609376 7.875-4.496094 9.457031-16.394532 6.664062-34.199219 8.78125-51.492188 6.109375-2.882812-.445313-5.820312.390625-8.035156 2.292969-2.214844 1.898437-3.492188 4.671875-3.492188 7.589844v15.050781c-14.839843-8.992188-31.890624-14.675781-50.132812-16.035157v-24.472656c0-6.796875 2.816406-13.503906 7.726562-18.40625 4.757813-4.75 10.960938-7.378906 17.382813-7.351562 7.058594.011718 13.585937 2.875 18.378906 8.070312 15.699219 17.019532 39.890625 22.835938 61.625 14.824219zm-80.046875-90.015625c12.992188 0 23.5625 10.566406 23.5625 23.558594 0 12.992187-10.570312 23.558594-23.5625 23.558594-12.992187 0-23.558594-10.566407-23.558594-23.558594 0-12.992188 10.566407-23.558594 23.558594-23.558594zm79.914063 230.511719c0-.492188-.011719-.976563-.015625-1.46875l22.632812 49.859375h-33.46875c6.957032-14.6875 10.851563-31.089844 10.851563-48.390625zm56.742187 80.933593c0 6.914063-5.628906 12.542969-12.546875 12.542969-6.914062 0-12.539062-5.628906-12.539062-12.542969 0-6.917968 5.625-12.542968 12.539062-12.542968 6.917969 0 12.546875 5.625 12.546875 12.542968zm-12.15625-32.542968-32.148437-70.804688c-1.621094-3.574218-5.183594-5.867187-9.105469-5.867187h-6.894531c-2.769531-10.746094-7.074219-20.875-12.667969-30.148438h9.378906c13.945313 0 26.222656 8.394531 31.277344 21.390625l26.203125 67.328125c1.492187 3.84375 5.195313 6.375 9.316406 6.375 7.335938 0 13.527344 4.972657 15.386719 11.726563zm0 0"/><path d="m47.332031 316.5625c-3.886719-3.921875-10.222656-3.949219-14.140625-.058594-3.921875 3.886719-3.949218 10.21875-.0625 14.140625l.234375.234375c1.949219 1.933594 4.496094 2.898438 7.042969 2.898438 2.570312 0 5.144531-.988282 7.097656-2.957032 3.890625-3.921874 3.863282-10.253906-.058594-14.144531zm0 0"/><path d="m113.476562 287.226562c20.246094 0 36.714844-16.46875 36.714844-36.714843 0-20.246094-16.46875-36.71875-36.714844-36.71875-20.246093 0-36.71875 16.472656-36.71875 36.71875 0 20.246093 16.472657 36.714843 36.71875 36.714843zm0-53.433593c9.21875 0 16.71875 7.5 16.71875 16.71875s-7.5 16.71875-16.71875 16.71875-16.71875-7.5-16.71875-16.71875 7.5-16.71875 16.71875-16.71875zm0 0"/><path d="m489.253906 278.765625-10.207031-5.941406c-3.671875-2.132813-8.289063-1.71875-11.519531 1.039062-3.230469 2.753907-4.367188 7.25-2.839844 11.210938l8.46875 21.914062c.484375 1.261719.46875 2.640625-.054688 3.890625-.8125 1.9375-2.699218 3.191406-4.804687 3.191406-10.84375 0-20.183594-7.363281-22.710937-17.910156l-26.378907-110.003906-9.609375-81.332031c-.53125-4.53125-4.0625-8.121094-8.582031-8.738281-4.515625-.617188-8.878906 1.910156-10.601563 6.128906l-9.28125 22.722656-22.949218 6.609375c-2.039063.589844-3.839844 1.808594-5.140625 3.488281l-8.828125 11.398438h-14.605469c-5.15625 0-9.921875 2.339844-13.082031 6.414062-3.15625 4.074219-4.230469 9.273438-2.945313 14.265625l4.105469 15.929688c1.492188 5.796875 6.011719 10.347656 11.796875 11.875l12.207031 3.226562 4.667969 11.75-4.25 9.242188c-7.5625 16.453125-10.011719 34.59375-7.074219 52.460937l7.144532 43.5c1.3125 7.972656-2.492188 16.074219-9.464844 20.160156-3.0625 1.792969-4.941406 5.078126-4.941406 8.625v10.105469c0 5.519531 4.476562 10 10 10h128.496093c20.351563 0 37.953125-13.101562 43.789063-32.601562 6.082031-20.316407-2.472656-41.957031-20.804688-52.621094zm-152.703125-102.667969-2.492187-9.664062h15.0625c3.09375 0 6.011718-1.433594 7.90625-3.878906l9.832031-12.695313 24.46875-7.046875c.886719-.257812 1.722656-.628906 2.492187-1.105469l4.71875 39.953125-35.800781 15.292969-4.324219-10.882813c-1.171874-2.945312-3.671874-5.164062-6.738281-5.972656zm154.347657 149.554688c-3.28125 10.964844-13.183594 18.335937-24.628907 18.335937h-66.136719c.414063-.90625.734376-1.855469.941407-2.84375.90625-4.277343-.289063-8.777343-3.199219-12.039062l-2.578125-2.890625c-1.546875-1.734375-2.398437-3.96875-2.398437-6.292969 0-5.214844 4.242187-9.457031 9.453124-9.457031h.839844c5.519532 0 10-4.476563 10-10 0-5.523438-4.480468-10-10-10h-.839844c-16.238281 0-29.453124 13.214844-29.453124 29.457031 0 6.527344 2.160156 12.832031 6.117187 17.96875-1.136719 1.820313-1.84375 3.902344-2.035156 6.09375h-24.03125c7.394531-8.738281 10.878906-20.503906 8.96875-32.132813l-7.148438-43.496093c-2.285156-13.921875-.378906-28.050781 5.511719-40.867188l4.429688-9.628906 37.675781-16.09375 23.753906 99.054687c4.691406 19.574219 22.03125 33.246094 42.160156 33.246094 10.183594 0 19.308594-6.066406 23.242188-15.460937.15625-.367188.300781-.738281.4375-1.109375.078125 2.699218-.269531 5.449218-1.082031 8.15625zm0 0"/></svg>