<svg height="511pt" viewBox="0 1 511 511.9995" width="511pt" xmlns="http://www.w3.org/2000/svg"><path d="m164.171875 75.578125c2.628906 0 5.207031-1.070313 7.070313-2.929687 1.859374-1.859376 2.929687-4.4375 2.929687-7.070313 0-2.628906-1.070313-5.207031-2.929687-7.070313-1.863282-1.859374-4.441407-2.929687-7.070313-2.929687-2.640625 0-5.210937 1.070313-7.070313 2.929687-1.871093 1.863282-2.929687 4.441407-2.929687 7.070313 0 2.632813 1.058594 5.210937 2.929687 7.070313 1.859376 1.859374 4.429688 2.929687 7.070313 2.929687zm0 0"/><path d="m507.523438 149.433594-245.867188-148c-3.171875-1.910156-7.140625-1.910156-10.3125 0l-57.378906 34.539062c-4.734375 2.847656-6.261719 8.992188-3.410156 13.726563 2.847656 4.730469 8.992187 6.257812 13.722656 3.410156l52.222656-31.4375 209.863281 126.328125h-419.722656l89.085937-53.628906c4.730469-2.847656 6.257813-8.992188 3.410157-13.722656-2.847657-4.734376-8.992188-6.257813-13.726563-3.410157l-119.929687 72.195313c-3.851563 2.316406-5.683594 6.914062-4.480469 11.242187s5.144531 7.324219 9.636719 7.324219h15.863281v178.082031c-16.179688 17.640625-26 41.164063-26 66.957031 0 54.566407 44.394531 98.960938 98.960938 98.960938h377.039062c5.523438 0 10-4.476562 10-10v-334h15.863281c4.492188 0 8.433594-2.996094 9.636719-7.324219s-.628906-8.925781-4.476562-11.242187zm-487.023438 263.605468c0-39.011718 28.15625-71.511718 65.65625-77.832031v18.363281c-27.371094 6.09375-47.667969 30.613282-47.667969 59.472657 0 33.605469 27.335938 60.941406 60.9375 60.941406 27.335938 0 50.820313-17.898437 58.398438-43.484375h18.597656l.765625 1.339844c-.890625 1.039062-1.589844 2.273437-2.003906 3.667968-9.855469 33.261719-40.992188 56.492188-75.722656 56.492188-43.539063 0-78.960938-35.421875-78.960938-78.960938zm131.285156-26.15625h30.925782c9.980468 0 19.148437 5.445313 23.921874 14.210938l41.652344 76.484375c1.265625 2.324219 1.511719 4.992187.699219 7.511719-.8125 2.519531-2.578125 4.539062-4.964844 5.683594-4.449219 2.132812-9.855469.449218-12.304687-3.835938l-40.808594-71.398438c-1.78125-3.113281-5.09375-5.035156-8.683594-5.035156h-58.253906c-9.820312 0-17.8125-7.992187-17.8125-17.8125v-88.152344c0-9.5625 7.21875-17.585937 16.433594-18.269531.460937-.035156.921875-.050781 1.378906-.050781 4.527344 0 8.785156 1.660156 12.117188 4.753906 3.675781 3.410156 5.699218 8.050782 5.699218 13.058594v3.636719c0 5.519531 4.476563 10 10 10h32.316406c4.566407 0 8.285157 3.714843 8.285157 8.28125 0 4.566406-3.71875 8.285156-8.285157 8.285156h-32.316406c-5.523437 0-10 4.476563-10 10v32.648437c0 5.523438 4.476563 10 10 10zm-27.8125 43.621094h12.523438c-6.585938 14.070313-20.816406 23.480469-37.070313 23.480469-22.574219 0-40.9375-18.363281-40.9375-40.9375 0-17.832031 11.523438-33.1875 27.667969-38.730469v18.371094c0 20.851562 16.964844 37.816406 37.816406 37.816406zm0-164.285156c-10.78125 0-19.554687-8.769531-19.554687-19.554688 0-10.78125 8.773437-19.550781 19.554687-19.550781 10.777344 0 19.550782 8.769531 19.550782 19.550781s-8.773438 19.554688-19.550782 19.554688zm35.222656 225.726562c13.171876-9.984374 23.695313-23.28125 30.480469-38.253906l21.898438 38.308594h-52.453125c.023437-.019531.050781-.035156.074218-.054688zm307.304688.054688h-24v-130.285156c0-5.519532-4.476562-10-10-10s-10 4.480468-10 10v130h-112v-260h112v50c0 5.523437 4.476562 10 10 10s10-4.476563 10-10v-60c0-5.523438-4.476562-10-10-10h-132c-5.523438 0-10 4.476562-10 10v270.285156h-22.75c.089844-.253906.183594-.503906.265625-.757812 2.480469-7.679688 1.691406-16.144532-2.167969-23.230469l-41.648437-76.480469c-8.28125-15.203125-24.175781-24.648438-41.488281-24.648438h-20.925782v-12.648437h22.320313c15.59375 0 28.28125-12.6875 28.28125-28.285156 0-15.597657-12.6875-28.28125-28.28125-28.28125h-22.863281c-1.382813-8.039063-5.351563-15.511719-11.351563-21.164063 8.34375-7.257812 13.632813-17.9375 13.632813-29.839844 0-21.808593-17.742188-39.550781-39.550782-39.550781s-39.554687 17.742188-39.554687 39.550781c0 11.949219 5.335937 22.667969 13.738281 29.925782-7.386719 7.035156-11.996094 17.007812-11.996094 27.949218v10.425782c-14.476562 1.933594-27.917968 6.964844-39.65625 14.394531v-161.359375h420v324zm0 0"/><path d="m432.5 311.71875c-2.628906 0-5.210938 1.0625-7.070312 2.929688-1.859376 1.859374-2.929688 4.433593-2.929688 7.070312 0 2.628906 1.070312 5.210938 2.929688 7.070312 1.859374 1.859376 4.441406 2.929688 7.070312 2.929688s5.210938-1.070312 7.070312-2.929688c1.859376-1.871093 2.929688-4.441406 2.929688-7.070312 0-2.640625-1.070312-5.210938-2.929688-7.070312-1.859374-1.867188-4.441406-2.929688-7.070312-2.929688zm0 0"/><path d="m339.886719 351.714844h-6.386719c-5.523438 0-10 4.480468-10 10 0 5.523437 4.476562 10 10 10h6.386719c5.523437 0 10-4.476563 10-10 0-5.519532-4.476563-10-10-10zm0 0"/></svg>