<svg height="512pt" viewBox="0 -77 512.002 512" width="512pt" xmlns="http://www.w3.org/2000/svg"><path d="m510.203125 187.660156h.003906l-120.945312-173.726562c-10.113281-14.53125-30.292969-18.308594-44.984375-8.417969l-36.53125 24.597656c-13.3125 8.960938-17.015625 27.195313-8.257813 40.644531 4.367188 6.703126 11.089844 11.261719 18.933594 12.839844s15.808594-.023437 22.425781-4.515625l13.167969-8.9375 80.445313 113.230469h-98.796876c-20.492187 0-38.238281 11.992188-46.585937 29.332031h-66.164063c-8.34375-17.339843-26.089843-29.332031-46.582031-29.332031h-98.792969l80.445313-113.230469 13.164063 8.933594c6.621093 4.496094 14.585937 6.097656 22.429687 4.519531s14.566406-6.136718 18.933594-12.839844c8.757812-13.449218 5.054687-31.683593-8.257813-40.644531l-36.53125-24.597656c-14.6875-9.890625-34.871094-6.113281-44.988281 8.417969l-26.378906 37.894531c-3.15625 4.53125-2.039063 10.765625 2.496093 13.917969 4.53125 3.15625 10.761719 2.039062 13.917969-2.492188l26.378907-37.894531c3.914062-5.621094 11.722656-7.082031 17.402343-3.253906l36.53125 24.597656c4.304688 2.894531 5.5 8.789063 2.667969 13.136719-1.410156 2.167968-3.585938 3.644531-6.117188 4.152344-2.535156.511718-5.109374-.007813-7.25-1.460938l-21.269531-14.433594c-4.5-3.054687-10.617187-1.953125-13.765625 2.484375l-94.34375 132.789063h-23.855468l37.90625-54.449219c3.152343-4.53125 2.039062-10.761719-2.496094-13.917969-4.53125-3.15625-10.765625-2.039062-13.917969 2.492188l-48.847656 70.164062h.007812c-1.132812 1.621094-1.800781 3.585938-1.800781 5.710938v49.835937c0 5.519531 4.476562 10 10 10 6.707031 0 12.167969 5.457031 12.167969 12.164063 0 5.523437 4.476562 10 10 10h8.363281c5.011719 47.148437 45.015625 84 93.46875 84 51.832031 0 94-42.167969 94-94v-30.332032c0-.78125-.023438-1.558593-.058594-2.332031h56.117188c-.035156.773438-.058594 1.550781-.058594 2.332031v30.332032c0 51.832031 42.167969 94 94 94 48.453125 0 88.460938-36.851563 93.46875-84h8.367188c5.523437 0 10-4.476563 10-10 0-6.707032 5.457031-12.164063 12.167968-12.164063 5.519532 0 10-4.480469 10-10v-49.835937c-.003906-2.125-.671875-4.089844-1.800781-5.710938zm-450.203125 77.710938v-30.332032c0-17.460937 14.207031-31.667968 31.667969-31.667968h61.597656l-88.386719 88.386718c-3.140625-8.203124-4.878906-17.09375-4.878906-26.386718zm-40-30.574219v-31.425781h30.886719c-6.8125 8.753906-10.886719 19.742187-10.886719 31.667968v18.742188c-3.472656-8.953125-10.828125-15.980469-20-18.984375zm54.976562 75.148437 106.203126-106.203124c9.035156 1.394531 16.816406 6.625 21.636718 13.96875l-109.457031 109.457031c-7.0625-4.660157-13.285156-10.488281-18.382813-17.222657zm59.023438 29.425782c-7.4375 0-14.617188-1.113282-21.394531-3.164063l95.394531-95.394531v24.558594c0 40.804687-33.195312 74-74 74zm230.652344-288.789063c-3.148438-4.4375-9.265625-5.539062-13.769532-2.484375l-21.265624 14.433594c-2.140626 1.453125-4.714844 1.972656-7.25 1.460938-2.535157-.511719-4.707032-1.984376-6.121094-4.152344-2.832032-4.347656-1.632813-10.242188 2.667968-13.136719l36.53125-24.597656c5.683594-3.828125 13.488282-2.367188 17.402344 3.253906l110.003906 158.011719h-23.859374zm-28.984375 152.789063h61.597656l-88.386719 88.386718c-3.140625-8.203124-4.878906-17.09375-4.878906-26.386718v-30.332032c0-17.460937 14.207031-31.667968 31.667969-31.667968zm42.332031 136c-7.4375 0-14.617188-1.113282-21.394531-3.164063l21.644531-21.648437c3.90625-3.902344 3.90625-10.234375 0-14.140625-3.902344-3.90625-10.234375-3.90625-14.140625 0l-26.75 26.75c-7.0625-4.660157-13.285156-10.492188-18.382813-17.222657l106.203126-106.203124c9.035156 1.394531 16.816406 6.625 21.636718 13.964843l-25.480468 25.484375c-3.90625 3.902344-3.90625 10.234375 0 14.140625 1.953124 1.953125 4.511718 2.929688 7.070312 2.929688s5.121094-.976563 7.070312-2.929688l16.523438-16.519531v24.5625c0 40.800781-33.195312 73.996094-74 73.996094zm114-104.574219c-9.171875 3.003906-16.527344 10.03125-20 18.984375v-18.742188c0-11.925781-4.074219-22.914062-10.886719-31.667968h30.886719zm0 0"/><path d="m82.199219 99.660156c2.640625 0 5.210937-1.070312 7.082031-2.929687 1.859375-1.859375 2.917969-4.4375 2.917969-7.070313 0-2.640625-1.058594-5.207031-2.917969-7.078125-1.871094-1.859375-4.441406-2.921875-7.082031-2.921875-2.628907 0-5.210938 1.0625-7.070313 2.921875s-2.917968 4.4375-2.917968 7.078125c0 2.632813 1.058593 5.210938 2.917968 7.070313s4.441406 2.929687 7.070313 2.929687zm0 0"/><path d="m398.851562 269.820312c-2.632812 0-5.210937 1.070313-7.070312 2.929688-1.859375 1.863281-2.929688 4.429688-2.929688 7.070312 0 2.632813 1.070313 5.210938 2.929688 7.070313s4.4375 2.929687 7.070312 2.929687c2.628907 0 5.207032-1.070312 7.070313-2.929687 1.859375-1.859375 2.929687-4.4375 2.929687-7.070313 0-2.628906-1.070312-5.207031-2.929687-7.070312-1.863281-1.859375-4.441406-2.929688-7.070313-2.929688zm0 0"/></svg>