<svg height="512pt" viewBox="0 0 512.00077 512" width="512pt" xmlns="http://www.w3.org/2000/svg"><path d="m502 328h-65.753906c-5.523438 0-10 4.480469-10 10v31h-80.121094c-5.523438 0-10 4.476562-10 10v31h-79.996094c-5.523437 0-10 4.476562-10 10v31h-80.125c-5.523437 0-10 4.476562-10 10v41c0 5.519531 4.476563 10 10 10h335.996094c5.523438 0 10-4.480469 10-10v-164c0-5.519531-4.476562-10-10-10zm-10 164h-315.996094v-21h120.050782c5.519531 0 10-4.480469 10-10 0-5.523438-4.480469-10-10-10h-29.925782v-21h79.996094c5.519531 0 10-4.476562 10-10v-31h80.121094c5.523437 0 10-4.476562 10-10v-31h45.753906zm0 0"/><path d="m497.5625 167.417969-165.871094 82.132812c-4.949218 2.453125-6.976562 8.453125-4.527344 13.402344 1.746094 3.519531 5.289063 5.5625 8.96875 5.5625 1.492188 0 3.003907-.335937 4.429688-1.039063l165.875-82.136718c4.949219-2.449219 6.972656-8.449219 4.523438-13.398438-2.453126-4.949218-8.449219-6.972656-13.398438-4.523437zm0 0"/><path d="m288.980469 271.28125c-1.859375 1.867188-2.929688 4.4375-2.929688 7.070312 0 2.640626 1.070313 5.207032 2.929688 7.078126 1.859375 1.859374 4.4375 2.921874 7.070312 2.921874 2.640625 0 5.210938-1.0625 7.070313-2.921874 1.859375-1.859376 2.929687-4.4375 2.929687-7.078126 0-2.632812-1.070312-5.203124-2.929687-7.070312-1.859375-1.859375-4.429688-2.921875-7.070313-2.921875-2.632812 0-5.199219 1.0625-7.070312 2.921875zm0 0"/><path d="m201.058594 377.25c6.269531 0 12.003906-2.332031 16.390625-6.167969 5.109375 4.035157 11.550781 6.449219 18.550781 6.449219 16.542969 0 30-13.457031 30-30v-129.140625c0-16.539063-13.457031-30-30-30-3.503906 0-6.871094.613281-10 1.722656v-11.722656c0-6.644531-1.136719-13.023437-3.203125-18.976563l283.640625-140.449218c4.949219-2.449219 6.972656-8.449219 4.523438-13.398438-2.453126-4.949218-8.449219-6.976562-13.398438-4.523437l-284.507812 140.878906c-3.910157-4.824219-8.582032-9.003906-13.828126-12.367187 11.621094-9.199219 19.097657-23.417969 19.097657-39.355469 0-27.679688-22.519531-50.195313-50.195313-50.195313-27.675781 0-50.195312 22.515625-50.195312 50.195313 0 15.886719 7.425781 30.0625 18.980468 39.265625-16.160156 10.304687-26.914062 28.378906-26.914062 48.925781v11.722656c-3.128906-1.109375-6.492188-1.722656-10-1.722656-14.296875 0-26.285156 10.0625-29.273438 23.476563l-65.21875 32.824218c-4.933593 2.484375-6.921874 8.496094-4.4375 13.429688 1.757813 3.488281 5.28125 5.503906 8.941407 5.503906 1.511719 0 3.042969-.34375 4.488281-1.070312l55.503906-27.933594v112.910156c0 10.40625 5.324219 19.585938 13.390625 24.96875l-77.828125 38.539062c-4.949218 2.449219-6.976562 8.449219-4.527344 13.398438 1.746094 3.523438 5.289063 5.5625 8.96875 5.5625 1.492188 0 3.003907-.332031 4.433594-1.039062l109.554688-54.25c3.304687 1.625 7.019531 2.539062 10.945312 2.539062zm4.941406-24.941406c0 2.726562-2.214844 4.941406-4.941406 4.941406h-66.113282c-2.726562 0-4.945312-2.21875-4.945312-4.941406v-10.117188c0-2.726562 2.21875-4.941406 4.945312-4.941406h66.113282c2.726562 0 4.941406 2.21875 4.941406 4.941406zm0-89.417969v54.359375h-28v-54.359375zm-48 54.359375h-28v-54.359375h28zm78-108.859375c5.515625 0 10 4.488281 10 10v129.140625c0 5.515625-4.484375 10-10 10-5.511719 0-10-4.484375-10-10v-129.140625c0-5.511719 4.488281-10 10-10zm-67.871094-148.386719c16.648438 0 30.195313 13.542969 30.195313 30.195313 0 16.648437-13.546875 30.195312-30.195313 30.195312-16.652344 0-30.195312-13.546875-30.195312-30.195312 0-16.652344 13.542968-30.195313 30.195312-30.195313zm-38.128906 118.386719c0-20.949219 17.046875-37.996094 38-37.996094s38 17.046875 38 37.996094v64.5h-76zm-40 40c0-5.511719 4.488281-10 10-10 5.515625 0 10 4.488281 10 10v129.140625c0 5.515625-4.484375 10-10 10-5.511719 0-10-4.484375-10-10zm0 0"/><path d="m336.050781 451c-2.632812 0-5.210937 1.070312-7.070312 2.929688-1.859375 1.859374-2.929688 4.441406-2.929688 7.070312s1.070313 5.210938 2.929688 7.070312c1.859375 1.859376 4.4375 2.929688 7.070312 2.929688 2.640625 0 5.207031-1.070312 7.070313-2.929688 1.859375-1.859374 2.929687-4.441406 2.929687-7.070312s-1.070312-5.210938-2.929687-7.070312c-1.863282-1.859376-4.429688-2.929688-7.070313-2.929688zm0 0"/></svg>