<svg height="512pt" viewBox="-102 0 512 512.001" width="512pt" xmlns="http://www.w3.org/2000/svg"><path d="m308.722656 206.847656c.582032-2.9375-.179687-5.980468-2.082031-8.292968-1.898437-2.316407-4.734375-3.65625-7.726563-3.65625h-19.917968l-31.476563-71.113282c-10.0625-22.734375-31.921875-37.875-56.488281-39.527344 7.007812-8.867187 11.207031-20.054687 11.207031-32.207031 0-28.699219-23.351562-52.050781-52.050781-52.050781s-52.050781 23.351562-52.050781 52.050781c0 12.140625 4.191406 23.3125 11.183593 32.175781-24.78125 1.472657-46.878906 16.664063-57.011718 39.558594l-49.453125 111.71875c-7.375 16.660156.039062 36.515625 16.527343 44.261719 4.707032 2.210937 9.636719 3.261719 14.484376 3.261719 12.347656 0 24.121093-6.824219 30.074218-18.664063l21.570313-42.902343v91.988281c0 5.523437 4.476562 10 10 10 5.523437 0 10-4.476563 10-10v-47.320313h88.800781v47.539063h-34.398438v-6.597657c0-5.523437-4.476562-10-10-10-5.523437 0-10 4.476563-10 10v143.085938h-34.398437v-56.707031c0-5.523438-4.476563-10-10-10s-10 4.476562-10 10v98.042969c0 11.308593 9.199219 20.507812 20.507813 20.507812h33.355468c11.308594 0 20.511719-9.199219 20.511719-20.507812v-30.875c.007813-.152344.023437-.304688.023437-.460938v-84.777344c1.589844.320313 3.230469.488282 4.914063.488282h9.042969v126.132812c0 5.523438 4.476562 10 10 10 5.523437 0 10-4.476562 10-10v-126.539062c11.609375-2.113282 20.441406-12.296876 20.441406-24.503907v-129.496093l21.570312 42.902343c5.953126 11.839844 17.726563 18.664063 30.078126 18.664063 3 0 6.03125-.40625 9.023437-1.234375-.042969 1.269531-.070313 2.535156-.070313 3.804687v8.652344h-31.332031c-5.523437 0-10 4.476562-10 10s4.476563 10 10 10h31.332031v147.75c0 5.523438 4.476563 10 10 10 5.523438 0 10-4.476562 10-10v-176.402344c0-6.15625.609376-12.339844 1.808594-18.378906l1.5625-7.871094c.75-2.371094 1.242188-4.824218 1.457032-7.320312zm-24.972656 23.050782h-30.167969v-15h33.148438zm-133.5625-209.898438c17.671875 0 32.046875 14.378906 32.046875 32.050781s-14.375 32.050781-32.046875 32.050781c-17.675781 0-32.050781-14.378906-32.050781-32.050781s14.378906-32.050781 32.050781-32.050781zm-10.296875 471.492188c0 .28125-.230469.507812-.511719.507812h-33.355468c-.28125 0-.511719-.226562-.511719-.507812v-21.335938h34.378906zm49.507813-135.625h-24.574219c-2.707031 0-4.910157-2.203126-4.910157-4.910157v-17.289062h34.398438v17.289062c0 2.707031-2.203125 4.910157-4.914062 4.910157zm14.914062-212.199219c-5.523438 0-10 4.476562-10 10v92.460937h-88.800781v-92.460937c0-5.523438-4.476563-10-10-10-5.523438 0-10 4.476562-10 10v23.273437l-39.4375 78.4375c-3.382813 6.726563-11.371094 9.492188-18.1875 6.285156-6.730469-3.160156-9.753907-11.265624-6.746094-18.0625l49.453125-111.71875c7.472656-16.875 24.222656-27.78125 42.679688-27.78125h73.277343c18.457031 0 35.207031 10.90625 42.679688 27.78125l27.894531 63.015626h-13.546875c-5.523437 0-10 4.476562-10 10v10.363281l-19.269531-38.320313v-23.273437c.003906-5.523438-4.472656-10-9.996094-10zm49.4375 111.710937-2.753906-5.480468h28.777344l-.855469 4.304687c-1.246094 3.179687-3.664063 5.90625-6.980469 7.460937-6.8125 3.203126-14.800781.441407-18.1875-6.285156zm0 0"/><path d="m284.914062 492c-2.628906 0-5.210937 1.070312-7.070312 2.929688-1.859375 1.859374-2.929688 4.441406-2.929688 7.070312 0 2.632812 1.070313 5.210938 2.929688 7.070312 1.859375 1.859376 4.441406 2.929688 7.070312 2.929688 2.628907 0 5.210938-1.070312 7.070313-2.929688 1.859375-1.859374 2.929687-4.4375 2.929687-7.070312 0-2.628906-1.070312-5.210938-2.929687-7.070312-1.859375-1.859376-4.441406-2.929688-7.070313-2.929688zm0 0"/><path d="m95.515625 363.449219c2.628906 0 5.207031-1.066407 7.070313-2.929688 1.859374-1.859375 2.929687-4.4375 2.929687-7.070312 0-2.628907-1.070313-5.207031-2.929687-7.066407-1.863282-1.863281-4.441407-2.933593-7.070313-2.933593-2.632813 0-5.210937 1.070312-7.070313 2.933593-1.859374 1.859376-2.929687 4.429688-2.929687 7.066407 0 2.632812 1.070313 5.210937 2.929687 7.070312 1.859376 1.863281 4.4375 2.929688 7.070313 2.929688zm0 0"/></svg>