<svg height="512pt" viewBox="0 0 512 512" width="512pt" xmlns="http://www.w3.org/2000/svg"><path d="m223.695312 391.53125c-8.277343-15.203125-24.175781-24.648438-41.484374-24.648438h-20.925782v-12.648437h22.316406c15.597657 0 28.285157-12.6875 28.285157-28.285156 0-15.59375-12.6875-28.28125-28.285157-28.28125h-22.863281c-1.378906-8.039063-5.351562-15.511719-11.351562-21.164063 8.34375-7.257812 13.636719-17.9375 13.636719-29.839844 0-21.808593-17.746094-39.550781-39.554688-39.550781s-39.550781 17.742188-39.550781 39.550781c0 11.949219 5.332031 22.667969 13.734375 29.929688-7.382813 7.03125-11.996094 17.007812-11.996094 27.945312v10.425782c-48.675781 6.503906-85.65625 48.023437-85.65625 98.074218 0 54.566407 44.394531 98.960938 98.960938 98.960938 21.773437 0 42.425781-6.933594 59.734374-20.054688 13.171876-9.984374 23.691407-23.28125 30.480469-38.253906l24.675781 43.171875c5.394532 9.433594 15.382813 14.816407 25.671876 14.816407 4.265624 0 8.582031-.925782 12.640624-2.871094 7.277344-3.488282 12.871094-9.894532 15.351563-17.566406 2.480469-7.679688 1.6875-16.144532-2.167969-23.226563zm-100.226562-164.417969c10.78125 0 19.554688 8.773438 19.554688 19.550781 0 10.78125-8.773438 19.554688-19.554688 19.554688s-19.550781-8.773438-19.550781-19.554688c0-10.777343 8.769531-19.550781 19.550781-19.550781zm0 203.390625h12.527344c-6.585938 14.070313-20.816406 23.480469-37.070313 23.480469-22.574219 0-40.941406-18.363281-40.941406-40.9375 0-17.828125 11.527344-33.1875 27.671875-38.730469v18.371094c0 20.851562 16.964844 37.816406 37.8125 37.816406zm51.214844 5.007813c-9.855469 33.257812-40.992188 56.488281-75.722656 56.488281-43.539063 0-78.960938-35.421875-78.960938-78.960938 0-39.011718 28.15625-71.511718 65.65625-77.832031v18.363281c-27.371094 6.09375-47.671875 30.613282-47.671875 59.476563 0 33.601563 27.339844 60.9375 60.941406 60.9375 27.335938 0 50.816407-17.894531 58.398438-43.480469h18.597656l.765625 1.339844c-.890625 1.039062-1.589844 2.269531-2.003906 3.667969zm73.800781 49.582031c-.8125 2.515625-2.578125 4.535156-4.964844 5.679688-4.449219 2.132812-9.855469.449218-12.300781-3.835938l-40.8125-71.398438c-1.78125-3.113281-5.09375-5.035156-8.683594-5.035156h-58.253906c-9.820312 0-17.8125-7.992187-17.8125-17.8125v-88.152344c0-9.5625 7.21875-17.585937 16.433594-18.269531.460937-.035156.921875-.050781 1.378906-.050781 4.527344 0 8.789062 1.660156 12.121094 4.753906 3.671875 3.414063 5.695312 8.050782 5.695312 13.058594v3.636719c0 5.519531 4.476563 10 10 10h32.316406c4.570313 0 8.285157 3.714843 8.285157 8.28125 0 4.570312-3.714844 8.285156-8.285157 8.285156h-32.316406c-5.523437 0-10 4.476563-10 10v32.648437c0 5.523438 4.476563 10 10 10h30.925782c9.980468 0 19.148437 5.445313 23.921874 14.210938l41.648438 76.484375c1.269531 2.324219 1.519531 4.992187.703125 7.515625zm0 0"/><path d="m346 0c-75.269531 0-141.265625 50.761719-160.492188 123.441406-1.410156 5.335938 1.773438 10.8125 7.109376 12.222656 5.339843 1.410157 10.816406-1.769531 12.226562-7.109374 16.90625-63.914063 74.953125-108.554688 141.15625-108.554688 80.503906 0 146 65.496094 146 146s-65.496094 146-146 146c-66.199219 0-124.246094-44.636719-141.15625-108.550781-1.410156-5.339844-6.882812-8.519531-12.222656-7.109375-5.339844 1.414062-8.523438 6.886718-7.109375 12.226562 19.226562 72.675782 85.222656 123.433594 160.488281 123.433594 91.53125 0 166-74.46875 166-166s-74.46875-166-166-166zm0 0"/><path d="m190 176.75h.0625c5.523438-.03125 9.972656-4.535156 9.941406-10.058594l-.003906-.691406c0-5.523438-4.476562-10-10-10s-10 4.476562-10 10l.003906.808594c.03125 5.503906 4.5 9.941406 9.996094 9.941406zm0 0"/><path d="m313.800781 145.773438c5.523438 0 10-4.476563 10-10 0-12.242188 9.957031-22.203126 22.199219-22.203126s22.199219 9.960938 22.199219 22.203126c0 12.238281-9.957031 22.199218-22.199219 22.199218-5.523438 0-10 4.476563-10 10v21.21875c0 5.523438 4.476562 10 10 10s10-4.476562 10-10v-12.417968c18.457031-4.5 32.199219-21.175782 32.199219-41 0-23.269532-18.929688-42.203126-42.199219-42.203126s-42.199219 18.933594-42.199219 42.203126c0 5.523437 4.476563 10 10 10zm0 0"/><path d="m346 218.429688c-2.628906 0-5.210938 1.070312-7.070312 2.929687-1.859376 1.859375-2.929688 4.429687-2.929688 7.070313 0 2.628906 1.070312 5.210937 2.929688 7.070312 1.859374 1.859375 4.441406 2.929688 7.070312 2.929688s5.210938-1.070313 7.070312-2.929688c1.859376-1.859375 2.929688-4.441406 2.929688-7.070312 0-2.640626-1.070312-5.210938-2.929688-7.070313-1.859374-1.859375-4.441406-2.929687-7.070312-2.929687zm0 0"/><path d="m346 288c67.269531 0 122-54.730469 122-122s-54.730469-122-122-122-122 54.730469-122 122 54.730469 122 122 122zm0-224c56.242188 0 102 45.757812 102 102s-45.757812 102-102 102-102-45.757812-102-102 45.757812-102 102-102zm0 0"/></svg>