<svg height="512pt" viewBox="0 -27 512 512" width="512pt" xmlns="http://www.w3.org/2000/svg"><path d="m156.253906 339.75c0-20.933594-17.027344-37.960938-37.960937-37.960938-20.933594 0-37.960938 17.027344-37.960938 37.960938 0 20.929688 17.027344 37.960938 37.960938 37.960938 20.933593 0 37.960937-17.03125 37.960937-37.960938zm-55.921875 0c0-9.902344 8.058594-17.960938 17.960938-17.960938 9.902343 0 17.960937 8.058594 17.960937 17.960938s-8.058594 17.960938-17.960937 17.960938c-9.902344 0-17.960938-8.058594-17.960938-17.960938zm0 0"/><path d="m448 438c-2.628906 0-5.210938 1.070312-7.070312 2.929688-1.859376 1.859374-2.929688 4.441406-2.929688 7.070312s1.070312 5.210938 2.929688 7.070312c1.859374 1.859376 4.441406 2.929688 7.070312 2.929688s5.210938-1.070312 7.070312-2.929688c1.859376-1.859374 2.929688-4.441406 2.929688-7.070312s-1.070312-5.210938-2.929688-7.070312c-1.859374-1.859376-4.441406-2.929688-7.070312-2.929688zm0 0"/><path d="m502 206h-35.554688c3.71875-6.179688 5.859376-13.410156 5.859376-21.132812 0-6.742188-1.679688-13.449219-4.859376-19.394532l-33.472656-62.59375v-92.878906c0-5.523438-4.480468-10-10-10-5.523437 0-10 4.476562-10 10v95.292969.078125 74.628906c0 5.523438 4.476563 10 10 10 5.519532 0 10-4.476562 10-10v-34.710938l15.835938 29.613282c1.632812 3.054687 2.496094 6.5 2.496094 9.964844 0 11.652343-9.480469 21.132812-21.132813 21.132812h-51.226563c-1.042968-20.027344-17.664062-36-37.945312-36-10.078125 0-19.25 3.949219-26.058594 10.378906-5.402344-8.625-15.125-14.378906-25.96875-14.378906h-41.171875c-16.601562 0-32.667969-3.074219-46.992187-8.925781 9.433594-8.277344 15.40625-20.40625 15.40625-33.914063 0-24.878906-20.242188-45.121094-45.121094-45.121094-24.882812 0-45.125 20.242188-45.125 45.121094 0 13.945313 6.359375 26.429688 16.328125 34.710938-11.652344 8.765625-19.203125 22.707031-19.203125 38.378906v25.347656c-1.921875-.09375-3.855469-.144531-5.800781-.144531-11.113281 0-21.871094 1.542969-32.078125 4.421875v-48.8125c0-5.523438-4.476563-10-10-10h-48.738282c-15.152343.003906-27.476562 12.328125-27.476562 27.480469 0 15.148437 12.324219 27.476562 27.476562 27.476562h38.738282v11.535157c-39.183594 19.296874-66.214844 59.644531-66.214844 106.195312 0 15.816406 3.074219 31.179688 9.136719 45.65625 2.132812 5.09375 7.992187 7.492188 13.085937 5.359375s7.496094-7.992187 5.359375-13.085937c-5.03125-12.015626-7.582031-24.78125-7.582031-37.929688 0-54.199219 44.09375-98.292969 98.292969-98.292969s98.292969 44.09375 98.292969 98.292969-44.09375 98.292969-98.292969 98.292969c-13.933594 0-27.390625-2.855469-39.996094-8.480469-5.050781-2.246094-10.957031.015625-13.207031 5.058594-2.25 5.046875.011718 10.957031 5.058594 13.207031 15.1875 6.777344 31.386718 10.214844 48.144531 10.214844 38.558593 0 72.863281-18.546875 94.472656-47.1875h39.828125c-1.847656 4.160156-2.882812 8.757812-2.882812 13.59375 0 18.523437 15.070312 33.59375 33.59375 33.59375 18.519531 0 33.589843-15.070313 33.589843-33.59375 0-4.835938-1.035156-9.433594-2.882812-13.59375h11.988281v37.144531c0 5.523438 4.476562 10 10 10s10-4.476562 10-10v-182h92v142c0 5.523438 4.476562 10 10 10s10-4.476562 10-10v-142h44c5.523438 0 10-4.476562 10-10v-40c0-5.523438-4.476562-10-10-10zm-474.523438-3.980469c-4.121093 0-7.476562-3.355469-7.476562-7.476562 0-4.121094 3.355469-7.476563 7.476562-7.476563h38.738282v14.949219h-38.738282zm314.523438-12.019531c9.25 0 16.890625 7.011719 17.890625 16h-35.78125c1-8.988281 8.640625-16 17.890625-16zm-195.03125-66.835938c0-13.851562 11.269531-25.125 25.125-25.125 13.851562 0 25.121094 11.273438 25.121094 25.125 0 13.644532-10.941406 24.777344-24.511719 25.105469-.203125-.003906-.40625-.019531-.609375-.019531-.226562 0-.445312.015625-.664062.019531-13.546876-.355469-24.460938-11.476562-24.460938-25.105469zm-2.875 101.132813v-28.046875c0-15.214844 12.203125-27.628906 27.335938-27.980469.21875 0 .4375.015625.664062.015625.207031 0 .414062-.011718.625-.015625 4.21875.089844 8.257812 1.085938 12.003906 2.988281 19.007813 9.644532 41.167969 14.742188 64.078125 14.742188h41.171875c5.390625 0 9.964844 3.980469 10.410156 9.0625.253907 2.867188-.660156 5.59375-2.578124 7.6875-1.917969 2.097656-4.539063 3.25-7.378907 3.25h-80.332031c-5.523438 0-10 4.476562-10 10v38.378906c-15.324219-14.6875-34.574219-25.296875-56-30.082031zm92.492188 115.453125c0-1.269531-.027344-2.53125-.066407-3.789062l24.921875 54.898437h-36.476562c7.445312-15.480469 11.621094-32.816406 11.621094-51.109375zm60.308593 84.699219c0 7.496093-6.097656 13.59375-13.589843 13.59375-7.496094 0-13.59375-6.097657-13.59375-13.59375 0-7.496094 6.097656-13.59375 13.59375-13.59375 7.492187 0 13.589843 6.097656 13.589843 13.59375zm-13.488281-33.59375-33.765625-74.371094c-1.621094-3.574219-5.183594-5.867187-9.105469-5.867187h-7.582031c-2.949219-11.601563-7.617187-22.527344-13.71875-32.480469h10.644531c14.785156 0 27.804688 8.902343 33.167969 22.683593l27.417969 70.460938c1.496094 3.84375 5.195312 6.375 9.320312 6.375 8.101563 0 14.90625 5.640625 16.699219 13.203125h-33.078125zm42.59375-22.34375c-5.128906-5.113281-11.730469-8.742188-19.109375-10.175781l-25.207031-64.769532c-8.375-21.527344-28.710938-35.433594-51.808594-35.433594h-9.78125v-32.132812h51.90625v30c0 5.519531 4.476562 10 10 10h44zm166-122.511719h-200v-20h200zm0 0"/><path d="m50.851562 415.472656c0 5.523438-4.476562 10-10 10-5.519531 0-10-4.476562-10-10 0-5.523437 4.480469-10 10-10 5.523438 0 10 4.476563 10 10zm0 0"/></svg>