<svg height="512pt" viewBox="-106 0 512 512.001" width="512pt" xmlns="http://www.w3.org/2000/svg"><path d="m95.914062 346c2.628907 0 5.210938-1.070312 7.066407-2.929688 1.863281-1.859374 2.933593-4.4375 2.933593-7.070312 0-2.628906-1.070312-5.210938-2.933593-7.070312-1.855469-1.859376-4.4375-2.929688-7.066407-2.929688-2.632812 0-5.210937 1.070312-7.070312 2.929688-1.859375 1.863281-2.929688 4.441406-2.929688 7.070312 0 2.632812 1.066407 5.210938 2.929688 7.070312 1.859375 1.859376 4.4375 2.929688 7.070312 2.929688zm0 0"/><path d="m296.972656 235.503906-49.453125-111.71875c-10.0625-22.734375-31.921875-37.875-56.488281-39.527344 7.007812-8.867187 11.207031-20.054687 11.207031-32.207031 0-28.699219-23.351562-52.050781-52.050781-52.050781s-52.050781 23.351562-52.050781 52.050781c0 12.140625 4.191406 23.3125 11.183593 32.175781-24.777343 1.472657-46.875 16.664063-57.011718 39.558594l-49.457032 111.722656c-7.371093 16.65625.042969 36.511719 16.53125 44.261719 4.707032 2.210938 9.636719 3.261719 14.484376 3.261719 12.347656-.003906 24.121093-6.828125 30.074218-18.667969l21.972656-43.695312v75.332031c0 5.523438 4.476563 10 10 10 5.519532 0 10-4.476562 10-10v-29.871094h88v75.070313l-5.832031 5.828125-28.167969-28.167969v-11.789063c0-5.523437-4.480468-10-10-10-5.523437 0-10 4.476563-10 10v143.085938h-34v-74.15625c0-5.519531-4.480468-10-10-10-5.523437 0-10 4.480469-10 10v126c0 5.523438 4.476563 10 10 10h54.667969c5.523438 0 10-4.476562 10-10v-22.152344c4.929688 2.433594 10.472657 3.808594 16.332031 3.808594 20.402344 0 37-16.597656 37-37v-225.988281l21.96875 43.695312c5.953126 11.839844 17.726563 18.667969 30.078126 18.667969.078124 0 .152343-.007812.230468-.007812v178.976562c0 5.523438 4.476563 10 10 10 5.523438 0 10-4.476562 10-10v-185.675781c12.363282-9.21875 17.234375-26.242188 10.78125-40.820313zm-146.785156-215.503906c17.671875 0 32.046875 14.378906 32.046875 32.050781s-14.375 32.050781-32.046875 32.050781-32.050781-14.378906-32.050781-32.050781 14.378906-32.050781 32.050781-32.050781zm9.726562 383.484375 34-34v24.785156l-34 34zm0-28.285156v-28.054688l14.027344 14.027344zm-19.332031 116.800781h-34.667969v-21.84375h34.667969zm36.332031-28.34375c-6.511718 0-12.175781-3.683594-15.027343-9.074219l32.027343-32.027343v24.101562c0 9.371094-7.625 17-17 17zm76.839844-208.277344-39.839844-79.234375v-22.476562c0-5.523438-4.480468-10-10-10-5.523437 0-10 4.476562-10 10v92.460937h-88v-92.460937c0-5.523438-4.480468-10-10-10-5.523437 0-10 4.476562-10 10v22.476562l-39.839843 79.234375c-3.382813 6.726563-11.375 9.488282-18.1875 6.285156-6.730469-3.160156-9.753907-11.265624-6.746094-18.0625l49.457031-111.71875c7.46875-16.875 24.222656-27.78125 42.675782-27.78125h73.277343c18.457031 0 35.207031 10.90625 42.679688 27.78125l49.453125 111.71875c3.011718 6.796876-.015625 14.902344-6.742188 18.0625-6.816406 3.203126-14.804687.441407-18.1875-6.285156zm0 0"/><path d="m276.191406 492c-2.628906 0-5.210937 1.070312-7.066406 2.929688-1.863281 1.859374-2.933594 4.441406-2.933594 7.070312 0 2.632812 1.070313 5.210938 2.933594 7.070312 1.855469 1.859376 4.4375 2.929688 7.066406 2.929688 2.632813 0 5.199219-1.070312 7.070313-2.929688 1.859375-1.859374 2.929687-4.4375 2.929687-7.070312 0-2.628906-1.066406-5.210938-2.929687-7.070312-1.859375-1.859376-4.4375-2.929688-7.070313-2.929688zm0 0"/></svg>