<svg height="511pt" viewBox="-87 0 511 511.99957" width="511pt" xmlns="http://www.w3.org/2000/svg"><path d="m112.082031 26.03125-34.605469-21.308594c-13.992187-8.617187-31.921874-5.15625-41.707031 8.050782-5.332031 7.199218-7.335937 16.355468-5.503906 25.125 1.832031 8.765624 7.34375 16.351562 15.109375 20.808593l16.773438 9.628907c13.125 7.527343 20.972656 21.441406 20.675781 36.503906-2.246094 8.074218-4.179688 16.222656-5.820313 24.421875l-44.902344-12.925781c-11.183593-3.21875-22.894531 3.257812-26.113281 14.441406l-4.65625 16.164062c-1.558593 5.417969-.914062 11.117188 1.8125 16.050782 2.730469 4.933593 7.214844 8.507812 12.628907 10.066406l54.667968 15.738281c-.054687 2.484375-.089844 4.96875-.089844 7.457031v305.746094c0 5.523438 4.476563 10 9.996094 10 5.523438 0 10-4.476562 10-10v-305.746094c0-29.375 4.023438-58.574218 11.96875-86.847656.058594-.195312.519532-1.832031.695313-2.453125l17.277343-59.675781c2.34375-8.089844-1.03125-16.828125-8.207031-21.246094zm-90.777343 127.808594c-.289063-.082032-.511719-.261719-.660157-.527344-.144531-.261719-.179687-.546875-.09375-.839844l4.652344-16.164062c.171875-.585938.777344-.925782 1.367187-.757813l47.058594 13.550781c-.890625 6.375-1.597656 12.773438-2.125 19.191407zm71.476562-83.457032c-5.167969-7.835937-12.179688-14.515624-20.675781-19.394531l-16.777344-9.625c-2.863281-1.644531-4.8125-4.328125-5.488281-7.558593-.675782-3.234376.035156-6.476563 2-9.128907 2.238281-3.023437 5.652344-4.640625 9.144531-4.640625 2.050781 0 4.128906.558594 6.007813 1.714844l33.835937 20.835938zm0 0"/><path d="m265.828125 54.058594c-19.582031-.292969-38.023437 7.109375-51.984375 20.859375-13.964844 13.753906-21.65625 32.097656-21.65625 51.652343v9.472657c0 12.917969 10.511719 23.429687 23.429688 23.429687h10.1875c12.917968 0 23.429687-10.511718 23.429687-23.429687v-8.933594c0-8.578125 6.726563-15.757813 14.996094-16.003906 4.195312-.132813 8.207031 1.425781 11.242187 4.367187 3.03125 2.945313 4.703125 6.886719 4.703125 11.097656v27.136719c0 1.597657.164063 3.15625.46875 4.667969-.003906.136719-.019531.273438-.019531.414062v343.210938c0 5.523438 4.476562 10 10 10h36.046875c5.523437 0 10-4.476562 10-10v-131.609375c0-5.519531-4.476563-10-10-10-5.519531 0-10 4.480469-10 10v85.617187h-16.050781v-279.070312c.980468.125 1.972656.199219 2.984375.199219h10.1875c.976562 0 1.933593-.066407 2.878906-.183594v113.445313c0 5.523437 4.476563 10 10 10 5.519531 0 10-4.476563 10-10v-131.609376c0-.011718-.003906-.019531-.003906-.03125.359375-1.628906.554687-3.316406.554687-5.050781v-26.1875c0-39.90625-32.027344-72.859375-71.394531-73.460937zm50.84375 421.945312v15.996094h-16.050781v-15.996094zm-2.878906-318.867187h-10.1875c-1.890625 0-3.429688-1.539063-3.429688-3.429688v-27.136719c0-9.664062-3.828125-18.699218-10.777343-25.445312-6.683594-6.488281-15.410157-10.027344-24.675782-10.027344-.363281 0-.722656.007813-1.085937.019532-18.96875.5625-34.402344 16.710937-34.402344 35.992187v8.933594c0 1.890625-1.535156 3.429687-3.429687 3.429687h-10.1875c-1.894532 0-3.433594-1.539062-3.433594-3.429687v-9.472657c0-14.15625 5.574218-27.4375 15.691406-37.402343 10.113281-9.960938 23.476562-15.332031 37.648438-15.113281 28.507812.433593 51.703124 24.417968 51.703124 53.464843v26.1875c0 1.890625-1.539062 3.429688-3.433593 3.429688zm0 0"/><path d="m326.667969 320.402344c-2.628907 0-5.210938 1.058594-7.070313 2.917968-1.859375 1.871094-2.929687 4.441407-2.929687 7.078126 0 2.632812 1.070312 5.199218 2.929687 7.0625 1.859375 1.867187 4.441406 2.9375 7.070313 2.9375 2.640625 0 5.207031-1.070313 7.066406-2.9375 1.871094-1.859376 2.941406-4.429688 2.941406-7.0625 0-2.636719-1.070312-5.207032-2.941406-7.078126-1.859375-1.859374-4.425781-2.917968-7.066406-2.917968zm0 0"/></svg>