<svg height="511pt" viewBox="0 -65 511.99876 511" width="511pt" xmlns="http://www.w3.org/2000/svg"><path d="m403.285156 223.800781h-95.042968c-5.523438 0-10 4.476563-10 10 0 5.523438 4.476562 10 10 10h95.042968c5.523438 0 10-4.476562 10-10 0-5.523437-4.476562-10-10-10zm0 0"/><path d="m268.246094 223.800781c-2.640625 0-5.210938 1.066407-7.070313 2.929688-1.859375 1.859375-2.929687 4.4375-2.929687 7.066406 0 2.632813 1.070312 5.210937 2.929687 7.070313 1.859375 1.863281 4.429688 2.929687 7.070313 2.929687 2.628906 0 5.207031-1.066406 7.066406-2.929687 1.863281-1.859376 2.933594-4.4375 2.933594-7.070313 0-2.628906-1.070313-5.207031-2.933594-7.066406-1.859375-1.863281-4.4375-2.929688-7.066406-2.929688zm0 0"/><path d="m443.28125 223.800781c-2.628906 0-5.210938 1.066407-7.070312 2.929688-1.859376 1.859375-2.929688 4.4375-2.929688 7.066406 0 2.632813 1.070312 5.210937 2.929688 7.070313 1.859374 1.863281 4.441406 2.929687 7.070312 2.929687 2.640625 0 5.210938-1.066406 7.070312-2.929687 1.859376-1.859376 2.929688-4.4375 2.929688-7.070313 0-2.628906-1.070312-5.207031-2.929688-7.066406-1.859374-1.863281-4.441406-2.929688-7.070312-2.929688zm0 0"/><path d="m265.753906 139.242188c-2.640625 0-5.210937 1.070312-7.070312 2.929687s-2.929688 4.429687-2.929688 7.070313c0 2.628906 1.070313 5.207031 2.929688 7.066406 1.859375 1.863281 4.441406 2.933594 7.070312 2.933594s5.210938-1.070313 7.070313-2.933594c1.859375-1.867188 2.929687-4.4375 2.929687-7.066406 0-2.632813-1.070312-5.210938-2.929687-7.070313s-4.441407-2.929687-7.070313-2.929687zm0 0"/><path d="m501.441406 272.761719v-221.652344c0-27.90625-22.703125-50.609375-50.609375-50.609375h-190.777343c-27.90625 0-50.609376 22.703125-50.609376 50.609375v221.652344c-6.480468 5.859375-10.558593 14.328125-10.558593 23.730469 0 4.207031.820312 8.21875 2.300781 11.898437l-9.476562 3.734375c-.171876-4.183594-1.21875-8.398438-3.242188-12.367188-.003906-.007812-.007812-.011718-.011719-.019531l-24.949219-48.605469c-6.394531-12.527343-20.898437-18.976562-34.484374-15.335937l-28.976563 7.761719-2.675781-9.980469 25.757812-6.902344c15.980469-4.28125 25.496094-20.761719 21.214844-36.738281-2.074219-7.742188-7.039062-14.210938-13.980469-18.21875-6.9375-4.003906-15.019531-5.070312-22.761719-2.996094l-31.824218 8.527344c-.238282-.179688-.480469-.347656-.722656-.519531.304687-.480469.605468-.964844.890624-1.460938 4.652344-8.058593 5.886719-17.445312 3.480469-26.433593-4.972656-18.550782-24.109375-29.597657-42.660156-24.628907-18.554687 4.972657-29.601563 24.109375-24.632813 42.660157 2.410157 8.988281 8.171876 16.5 16.230469 21.152343.59375.34375 1.195313.660157 1.804688.964844-2.769531 6.242187-3.328125 13.1875-1.535157 19.875l10.925782 40.777344c-12.980469 5.808593-23.75 15.566406-30.867188 28.164062-8.68749975 15.371094-10.953125 33.234375-6.382812 50.296875 3.6875 13.765625 11.4375 25.371094 21.605468 33.902344h-13.90625c-5.519531 0-9.9999995 4.476562-9.9999995 10s4.4804685 10 9.9999995 10h198.125c5.523438 0 10-4.476562 10-10v-46.167969c3.910157 1.707031 8.222657 2.660157 12.753907 2.660157h15.117187v21.023437c0 17.914063 14.574219 32.484375 32.484375 32.484375 17.910157 0 32.484375-14.570312 32.484375-32.484375v-21.023437h88.113282v21.023437c0 17.914063 14.574218 32.484375 32.484374 32.484375 17.910157 0 32.484376-14.570312 32.484376-32.484375v-21.023437h15.945312c17.644531 0 32-14.355469 32-32 0-9.402344-4.078125-17.871094-10.558594-23.730469zm-248.101562-89.65625-23.894532-23.890625v-81.355469h93.542969l-36.023437 36.023437c-3.90625 3.902344-3.90625 10.234376 0 14.140626 1.953125 1.953124 4.511718 2.929687 7.070312 2.929687s5.121094-.976563 7.070313-2.929687l50.167969-50.164063h65.65625l-105.246094 105.246094zm191.875-105.246094h36.226562v81.992187l-23.253906 23.253907h-118.21875zm-185.160156-57.359375h190.777343c16.878907 0 30.609375 13.730469 30.609375 30.609375v6.75h-251.996094v-6.75c0-16.878906 13.730469-30.609375 30.609376-30.609375zm-30.609376 243.996094v-77l12.679688 12.679687c1.875 1.875 4.421875 2.929688 7.070312 2.929688h213.132813c2.652344 0 5.195313-1.054688 7.070313-2.929688l12.042968-12.039062v76.359375zm-116.664062-76.453125c2.578125-.691407 5.273438-.335938 7.585938.996093 2.3125 1.335938 3.96875 3.492188 4.660156 6.074219.691406 2.578125.335937 5.273438-1 7.585938-1.335938 2.3125-3.492188 3.96875-6.070313 4.660156l-35.417969 9.488281c-2.5625.6875-4.746093 2.363282-6.070312 4.660156-1.328125 2.296876-1.6875 5.027344-1 7.589844l7.851562 29.296875c1.429688 5.335938 6.90625 8.5 12.246094 7.070313l38.636719-10.351563c4.527344-1.214843 9.363281.9375 11.503906 5.132813l24.953125 48.609375c2.34375 4.597656.773438 10.179687-3.46875 12.929687l-3.726562 1.46875c-4.257813.746094-8.625-1.398437-10.636719-5.339844l-17.601563-34.210937c-1.746093-3.390625-5.214843-5.425781-8.890624-5.425781-.859376 0-1.730469.113281-2.589844.34375l-42.320313 11.339844c-5.328125 1.429687-10.820312-1.746094-12.25-7.070313l-21.222656-79.207031c-.6875-2.578125-.335937-5.273438 1-7.585938s3.492187-3.96875 6.074219-4.660156c3.75-1 7.785156.289062 10.277344 3.296875 2.496093 3.003906 6.515624 4.28125 10.285156 3.269531zm20.148438 134.917969 2.097656 4.074218c1.09375 2.144532 2.4375 4.097656 3.957031 5.863282l-10.3125 4.0625c1.9375-4.535157 3.371094-9.222657 4.257813-14zm-99.992188-172.523438c1.980469-3.429688 5.179688-5.886719 9.003906-6.910156 1.28125-.34375 2.570313-.507813 3.835938-.507813 6.546875 0 12.558594 4.378907 14.332031 10.996094 1.023437 3.828125.5 7.824219-1.484375 11.253906-1.980469 3.433594-5.179688 5.886719-9.003906 6.914063-3.828125 1.023437-7.824219.496094-11.257813-1.484375-3.429687-1.980469-5.882812-5.179688-6.910156-9.007813-1.023437-3.824218-.496094-7.824218 1.484375-11.253906zm11.902344 118.902344 5.019531 18.726562c2.074219 7.738282 7.039063 14.210938 13.976563 18.214844 6.941406 4.007812 15.023437 5.070312 22.765624 3l26.613282-7.132812c2.074218 11.019531.175781 22.292968-5.488282 32.105468-5.097656 8.824219-12.730468 15.609375-21.910156 19.589844l-2.691406 1.058594c-1.289062.46875-2.601562.890625-3.9375 1.25-25.035156 6.707031-50.855469-8.203125-57.5625-33.234375-5.707031-21.304688 4.46875-43.480469 23.214844-53.578125zm153.292968 92.660156h-78.460937l49.765625-19.605469c.019531-.003906.039062-.007812.058594-.011719 2.03125-.542968 4.011718-1.308593 5.890625-2.265624.148437-.074219.289062-.15625.433593-.234376l22.3125-8.789062zm92.839844-12.484375c0 6.886719-5.597656 12.484375-12.484375 12.484375-6.882812 0-12.484375-5.597656-12.484375-12.484375v-21.023437h24.96875zm153.082032 0c0 6.886719-5.597657 12.484375-12.484376 12.484375-6.882812 0-12.484374-5.597656-12.484374-12.484375v-21.023437h24.96875zm35.945312-41.023437h-249.113281c-6.617188 0-12-5.382813-12-12 0-6.617188 5.382812-12 12-12h249.113281c6.617188 0 12 5.382812 12 12 0 6.617187-5.382812 12-12 12zm0 0"/></svg>