<svg height="512pt" viewBox="0 0 512 512" width="512pt" xmlns="http://www.w3.org/2000/svg"><path d="m368 101c-2.628906 0-5.210938 1.070312-7.070312 2.929688-1.859376 1.859374-2.929688 4.441406-2.929688 7.070312s1.070312 5.210938 2.929688 7.070312c1.859374 1.859376 4.441406 2.929688 7.070312 2.929688s5.210938-1.070312 7.070312-2.929688c1.859376-1.859374 2.929688-4.441406 2.929688-7.070312s-1.070312-5.210938-2.929688-7.070312c-1.859374-1.859376-4.441406-2.929688-7.070312-2.929688zm0 0"/><path d="m502 207h-124v-56c0-5.523438-4.476562-10-10-10s-10 4.476562-10 10v341h-36v-124c0-5.523438-4.476562-10-10-10h-112c-5.523438 0-10 4.476562-10 10v124h-36v-472h204v51c0 5.523438 4.476562 10 10 10s10-4.476562 10-10v-61c0-5.523438-4.476562-10-10-10h-224c-5.523438 0-10 4.476562-10 10v197h-124c-5.523438 0-10 4.476562-10 10v285c0 5.523438 4.476562 10 10 10h492c5.523438 0 10-4.476562 10-10v-285c0-5.523438-4.476562-10-10-10zm-482 20h114v265h-114zm190 151h36v114h-36zm56 114v-47h4.5c5.523438 0 10-4.476562 10-10s-4.476562-10-10-10h-4.5v-47h36v114zm226 0h-114v-265h114zm0 0"/><path d="m282 101h-16v-16c0-5.523438-4.476562-10-10-10s-10 4.476562-10 10v16h-16c-5.523438 0-10 4.476562-10 10s4.476562 10 10 10h16v16c0 5.523438 4.476562 10 10 10s10-4.476562 10-10v-16h16c5.523438 0 10-4.476562 10-10s-4.476562-10-10-10zm0 0"/><path d="m256 40c-39.148438 0-71 31.851562-71 71s31.851562 71 71 71 71-31.851562 71-71-31.851562-71-71-71zm0 122c-28.121094 0-51-22.878906-51-51s22.878906-51 51-51 51 22.878906 51 51-22.878906 51-51 51zm0 0"/><path d="m53 333.25c-5.523438 0-10 4.476562-10 10v32.5c0 5.523438 4.476562 10 10 10s10-4.476562 10-10v-32.5c0-5.523438-4.476562-10-10-10zm0 0"/><path d="m101 333.25c-5.523438 0-10 4.476562-10 10v32.5c0 5.523438 4.476562 10 10 10s10-4.476562 10-10v-32.5c0-5.523438-4.476562-10-10-10zm0 0"/><path d="m53 410.75c-5.523438 0-10 4.476562-10 10v32.5c0 5.523438 4.476562 10 10 10s10-4.476562 10-10v-32.5c0-5.523438-4.476562-10-10-10zm0 0"/><path d="m101 410.75c-5.523438 0-10 4.476562-10 10v32.5c0 5.523438 4.476562 10 10 10s10-4.476562 10-10v-32.5c0-5.523438-4.476562-10-10-10zm0 0"/><path d="m53 255.75c-5.523438 0-10 4.476562-10 10v32.5c0 5.523438 4.476562 10 10 10s10-4.476562 10-10v-32.5c0-5.523438-4.476562-10-10-10zm0 0"/><path d="m101 255.75c-5.523438 0-10 4.476562-10 10v32.5c0 5.523438 4.476562 10 10 10s10-4.476562 10-10v-32.5c0-5.523438-4.476562-10-10-10zm0 0"/><path d="m413.085938 385.75c5.523437 0 10-4.476562 10-10v-32.5c0-5.523438-4.476563-10-10-10-5.523438 0-10 4.476562-10 10v32.5c0 5.523438 4.476562 10 10 10zm0 0"/><path d="m461.085938 385.75c5.523437 0 10-4.476562 10-10v-32.5c0-5.523438-4.476563-10-10-10-5.523438 0-10 4.476562-10 10v32.5c0 5.523438 4.476562 10 10 10zm0 0"/><path d="m413.085938 463.25c5.523437 0 10-4.476562 10-10v-32.5c0-5.523438-4.476563-10-10-10-5.523438 0-10 4.476562-10 10v32.5c0 5.523438 4.476562 10 10 10zm0 0"/><path d="m461.085938 463.25c5.523437 0 10-4.476562 10-10v-32.5c0-5.523438-4.476563-10-10-10-5.523438 0-10 4.476562-10 10v32.5c0 5.523438 4.476562 10 10 10zm0 0"/><path d="m413.085938 308.25c5.523437 0 10-4.476562 10-10v-32.5c0-5.523438-4.476563-10-10-10-5.523438 0-10 4.476562-10 10v32.5c0 5.523438 4.476562 10 10 10zm0 0"/><path d="m461.085938 308.25c5.523437 0 10-4.476562 10-10v-32.5c0-5.523438-4.476563-10-10-10-5.523438 0-10 4.476562-10 10v32.5c0 5.523438 4.476562 10 10 10zm0 0"/><path d="m210 215c0-5.523438-4.476562-10-10-10s-10 4.476562-10 10v32.5c0 5.523438 4.476562 10 10 10s10-4.476562 10-10zm0 0"/><path d="m266 215c0-5.523438-4.476562-10-10-10s-10 4.476562-10 10v32.5c0 5.523438 4.476562 10 10 10s10-4.476562 10-10zm0 0"/><path d="m322 215c0-5.523438-4.476562-10-10-10s-10 4.476562-10 10v32.5c0 5.523438 4.476562 10 10 10s10-4.476562 10-10zm0 0"/><path d="m200 282.5c-5.523438 0-10 4.476562-10 10v32.5c0 5.523438 4.476562 10 10 10s10-4.476562 10-10v-32.5c0-5.523438-4.476562-10-10-10zm0 0"/><path d="m256 282.5c-5.523438 0-10 4.476562-10 10v32.5c0 5.523438 4.476562 10 10 10s10-4.476562 10-10v-32.5c0-5.523438-4.476562-10-10-10zm0 0"/><path d="m312 282.5c-5.523438 0-10 4.476562-10 10v32.5c0 5.523438 4.476562 10 10 10s10-4.476562 10-10v-32.5c0-5.523438-4.476562-10-10-10zm0 0"/></svg>