<svg height="512pt" viewBox="-54 0 512 512" width="512pt" xmlns="http://www.w3.org/2000/svg"><path d="m351.113281 361.691406c-.539062-.273437-1.101562-.496094-1.675781-.664062-9.292969-3.527344-19.359375-5.476563-29.875-5.476563h-24.421875c-.027344 0-.054687 0-.082031 0-3.636719 0-7.226563-.347656-10.75-1.027343-.039063-.003907-.078125-.011719-.117188-.019532-3.703125-.71875-7.332031-1.804687-10.863281-3.261718l-122.117187-50.4375c-2.730469-1.125-5.816407-.992188-8.433594.371093l-17.777344 9.242188v-5.960938c0-15.566406-8.835938-29.097656-21.75-35.867187v-89.800782c13.734375-3.8125 23.84375-16.417968 23.84375-31.347656v-17.441406c0-5.523438-4.476562-10-10-10s-10 4.476562-10 10v17.441406c0 6.914063-5.625 12.539063-12.535156 12.539063h-46.617188c-6.910156 0-12.535156-5.625-12.535156-12.539063v-7.109375h34.257812c5.523438 0 10-4.476562 10-10 0-5.519531-4.476562-10-10-10h-34.257812v-100.332031h71.6875v30c0 5.523438 4.476562 10 10 10s10-4.476562 10-10v-40c0-5.523438-4.476562-10-10-10h-91.6875c-5.523438 0-10 4.476562-10 10v137.441406c0 14.929688 10.109375 27.535156 23.84375 31.347656v89.800782c-12.914062 6.769531-21.75 20.304687-21.75 35.867187v13.589844l-4.207031-1.46875c-3.058594-1.066406-6.445313-.585937-9.082031 1.289063-2.644532 1.875-4.210938 4.914062-4.210938 8.152343v175.980469c0 5.523438 4.476562 10 10 10h307.292969c26.023437 0 51.671875-4.378906 76.222656-13.019531l3.804687-1.335938c4-1.410156 6.679688-5.191406 6.679688-9.433593v-48.226563c0-35.402344-21.914062-65.769531-52.886719-78.292969zm32.523438 71.429688c-20.488281 7.074218-41.792969 10.894531-63.484375 11.390625-.089844-1.507813-.152344-3.015625-.152344-4.523438 0-22.617187 10.332031-43.859375 27.878906-57.863281 19.417969 9.539062 33.371094 28.5625 35.757813 50.996094zm-300.386719-253.140625v84h-24v-84zm-25.273438 104h26.546876c11.292968 0 20.476562 9.183593 20.476562 20.476562v14.507813c-13.632812 4.5625-27.996094 6.9375-42.382812 6.9375-8.464844 0-16.863282-.800782-25.117188-2.382813v-19.0625c0-11.292969 9.1875-20.476562 20.476562-20.476562zm-37.976562 100.742187c30.921875 4.40625 55.441406 28.925782 59.847656 59.847656h-59.847656zm297.292969 107.277344h-297.292969v-27.429688h110.570312c5.523438 0 10-4.476562 10-10 0-5.523437-4.476562-10-10-10h-30.554687c-4.632813-41.96875-38.046875-75.386718-80.015625-80.015624v-24.691407c13.84375 4.007813 28.144531 6.035157 42.613281 6.035157 24.523438 0 48.984375-5.976563 70.742188-17.285157l14.519531-7.546875 15.972656 6.597656-22.03125 22.03125c-3.90625 3.90625-3.90625 10.238282 0 14.144532 1.953125 1.949218 4.511719 2.925781 7.070313 2.925781 2.558593 0 5.121093-.976563 7.074219-2.925781l27.90625-27.910156 27.394531 11.316406-22.316407 22.3125c-3.90625 3.90625-3.90625 10.238281 0 14.144531 1.953126 1.953125 4.511719 2.929687 7.070313 2.929687s5.121094-.976562 7.070313-2.929687l28.191406-28.191406 32.386718 13.378906-19.121093 19.117187c-3.902344 3.90625-3.902344 10.238282 0 14.144532 1.953125 1.953125 4.511719 2.929687 7.070312 2.929687 2.5625 0 5.121094-.976562 7.074219-2.929687l27.167969-27.167969c3.035156.363281 6.09375.566406 9.179687.566406h.113282 24.410156c1.941406 0 3.859375.09375 5.757812.265625-16.097656 17.238282-25.316406 40.089844-25.316406 64.171875 0 1.527344.046875 3.054688.121094 4.582031h-89.550782c-5.523437 0-10 4.476563-10 10 0 5.523438 4.476563 10 10 10h100.613282c.023437 0 .042968.003907.066406.003907s.046875-.003907.066406-.003907h3.980469c23.429687 0 46.476563-3.542968 68.703125-10.523437v27.058594c-21.535156 7.230469-43.964844 10.894531-66.707031 10.894531zm0 0"/><path d="m170.570312 444.570312c-2.628906 0-5.210937 1.070313-7.070312 2.929688s-2.929688 4.4375-2.929688 7.070312c0 2.628907 1.070313 5.210938 2.929688 7.070313s4.441406 2.929687 7.070312 2.929687c2.628907 0 5.210938-1.070312 7.070313-2.929687s2.929687-4.441406 2.929687-7.070313c0-2.632812-1.070312-5.210937-2.929687-7.070312s-4.441406-2.929688-7.070313-2.929688zm0 0"/><path d="m117.101562 79.988281c-2.640624 0-5.222656 1.070313-7.082031 2.933594-1.859375 1.859375-2.917969 4.4375-2.917969 7.066406 0 2.632813 1.058594 5.210938 2.917969 7.070313 1.871094 1.859375 4.441407 2.929687 7.082031 2.929687 2.628907 0 5.199219-1.066406 7.058594-2.929687 1.871094-1.859375 2.941406-4.4375 2.941406-7.070313 0-2.628906-1.070312-5.207031-2.941406-7.066406-1.851562-1.863281-4.429687-2.933594-7.058594-2.933594zm0 0"/></svg>