<svg height="512pt" viewBox="0 0 511 512" width="512pt" xmlns="http://www.w3.org/2000/svg"><path d="m278.964844 182.929688c-1.859375 1.859374-2.929688 4.4375-2.929688 7.070312 0 2.628906 1.070313 5.210938 2.929688 7.066406 1.859375 1.863282 4.441406 2.933594 7.070312 2.933594 2.632813 0 5.210938-1.070312 7.070313-2.933594 1.859375-1.855468 2.929687-4.4375 2.929687-7.066406 0-2.632812-1.070312-5.210938-2.929687-7.070312-1.859375-1.859376-4.4375-2.929688-7.070313-2.929688-2.628906 0-5.210937 1.070312-7.070312 2.929688zm0 0"/><path d="m84.375 109.5c-2.628906 0-5.207031 1.070312-7.070312 2.929688-1.859376 1.859374-2.929688 4.441406-2.929688 7.070312s1.070312 5.210938 2.929688 7.070312c1.863281 1.859376 4.441406 2.929688 7.070312 2.929688 2.632812 0 5.210938-1.070312 7.070312-2.929688 1.859376-1.859374 2.929688-4.441406 2.929688-7.070312s-1.070312-5.210938-2.929688-7.070312c-1.859374-1.859376-4.4375-2.929688-7.070312-2.929688zm0 0"/><path d="m480.570312 191.460938c-14.300781-5.367188-30.542968-3.699219-43.449218 4.460937l-14.066406 8.890625c-16.3125-15.375-38.273438-24.8125-62.402344-24.8125h-34.617188c-5.523437 0-10 4.476562-10 10s4.476563 10 10 10h34.617188c39.171875 0 71.042968 31.871094 71.042968 71.042969 0 7.175781-1.082031 14.28125-3.214843 21.132812l-2.289063 7.347657c-4.898437 15.722656-4.25 32.808593 1.820313 48.113281 2.445312 6.152343 3.683593 12.632812 3.683593 19.253906v125.109375h-27.777343l5.964843-8.507812c1.179688-1.683594 1.8125-3.6875 1.8125-5.742188v-70.664062c0-3.953126-2.332031-7.539063-5.945312-9.140626-31.453125-13.964843-57.449219-38.507812-73.191406-69.109374l-.210938-.410157c-2.527344-4.910156-8.558594-6.847656-13.46875-4.316406-4.910156 2.523437-6.84375 8.554687-4.320312 13.464844l.214844.410156c1.53125 2.980469 3.152343 5.910156 4.855468 8.785156h-64.617187c.660156-2.820312 1.023437-5.75 1.023437-8.765625v-135.222656c0-12.28125-5.691406-23.253906-14.566406-30.4375l155.273438-155.273438c3.902343-3.90625 3.902343-10.234374 0-14.140624-3.90625-3.90625-10.238282-3.90625-14.144532 0l-161 161c-1.542968-.1875-3.113281-.292969-4.710937-.292969-2.050781 0-4.027344.308593-5.902344.863281-.0625-.066406-.132813-.128906-.195313-.191406-5.421874-5.617188-9.550781-12.511719-11.945312-19.941406l-22.402344-69.550782c-3.863281-12.003906-14.933594-20.066406-27.542968-20.066406h-36.65625c-6.453126 0-12.796876 2.191406-17.871094 6.175781l-42.132813 33.074219h-24.023437c-8.894532 0-17.019532 4.105469-22.296875 11.269531-5.273438 7.164063-6.785157 16.140625-4.148438 24.636719l6.835938 21.996094c5.21875 16.804687 20.546875 28.097656 38.148437 28.097656h27.332032l17.101562 31.410156c4.761719 8.75 7.878906 18.109375 9.339844 27.882813-4.800782 4.390625-7.816406 10.703125-7.816406 17.707031v12c0 7.574219 3.527343 14.335938 9.027343 18.738281 2.585938 16.453125 9.109375 32.164063 18.960938 45.617188l13.496093 18.417969v115.976562l-10.0625 13.863281c-4.246093 5.855469-4.847656 13.496094-1.558593 19.9375 3.285156 6.445313 9.820312 10.449219 17.054687 10.449219h44.566406c5.523438 0 10-4.476562 10-10v-60.898438c0-23.058593 5.597657-45.691406 16.253907-66.019531 2.273437.808594 4.710937 1.253907 7.257812 1.253907 9.683594 0 18.535157-3.621094 25.292969-9.566407h90.476562c15.695313 19.542969 35.59375 35.570313 58.21875 46.679688v61.148437l-4.390624 6.261719c-4.25 6.066406-4.769532 13.914063-1.351563 20.488281 3.417969 6.570313 10.144531 10.652344 17.554687 10.652344h38.1875c5.523438 0 10-4.476562 10-10v-135.109375c0-9.160156-1.714843-18.121094-5.089843-26.632813-4.390625-11.066406-4.859375-23.417968-1.320313-34.785156l2.289063-7.351562c2.734375-8.773438 4.121093-17.886719 4.121093-27.078125 0-3.46875-.203124-6.890625-.582031-10.257813 4.226563 3.46875 6.929688 8.726563 6.929688 14.609375v45.730469c0 29.730469 14.382812 57.886719 38.472656 75.308594 1.738281 1.257812 3.792969 1.898437 5.863281 1.898437 1.550782 0 3.113282-.363281 4.546875-1.097656 3.34375-1.707031 5.453125-5.144531 5.453125-8.902344v-150.949219c-.003906-20.324218-12.785156-38.777343-31.808594-45.921874zm-360.796874 41.539062c-.09375-.523438-.199219-1.046875-.300782-1.570312l66.722656-66.722657c2.863282 4.878907 6.285157 9.429688 10.207032 13.492188.152344.160156.316406.316406.472656.476562-.535156 1.847657-.839844 3.792969-.839844 5.8125v48.511719zm37.632812-152.050781 7.734375 24.011719-18.234375 21.9375c-1.640625 1.96875-4.046875 3.101562-6.613281 3.101562-4.738281 0-8.597657-3.855469-8.597657-8.597656v-46.652344h17.203126c3.894531 0 7.3125 2.492188 8.507812 6.199219zm-68.59375 84.269531c-1.753906-3.21875-5.121094-5.21875-8.785156-5.21875h-33.273438c-8.789062 0-16.445312-5.640625-19.050781-14.03125l-6.835937-21.996094c-.730469-2.359375-.3125-4.855468 1.152343-6.84375 1.464844-1.988281 3.722657-3.128906 6.195313-3.128906h27.476562c2.242188 0 4.414063-.753906 6.175782-2.136719l44.851562-35.207031c1.425781-1.117188 3.171875-1.773438 4.972656-1.882812v46.625c0 15.773437 12.832032 28.601562 28.601563 28.601562 8.527343 0 16.542969-3.761719 21.992187-10.320312l10.117188-12.167969 5.53125 17.171875-65.230469 65.230468c-1.199219-2.730468-2.511719-5.421874-3.953125-8.066406zm85.382812 275.882812v50.898438h-32.886718l10.980468-15.132812c1.238282-1.707032 1.90625-3.765626 1.90625-5.875v-122.492188c0-2.125-.675781-4.195312-1.933593-5.910156l-15.425781-21.054688c-6.285157-8.574218-10.886719-18.289062-13.582032-28.535156h72.78125v61.664062c0 1.511719.15625 2.988282.453125 4.414063-14.582031 24.871094-22.292969 53.148437-22.292969 82.023437zm41.839844-86.4375v-71.664062c0-5.523438-4.476562-10-10-10h-89.324218c-2.207032 0-4-1.792969-4-4v-12c0-2.207031 1.792968-4 4-4h89.324218c5.523438 0 10-4.476562 10-10v-58.492188c.324219-.265624.632813-.558593.929688-.867187 10.519531.039063 19.070312 8.609375 19.070312 19.140625v135.222656c0 10.105469-8.222656 18.332032-18.332031 18.332032-.917969-.003907-1.667969-.753907-1.667969-1.671876zm276.339844 9.855469c-9.179688-12.421875-14.332031-27.625-14.332031-43.394531v-45.730469c0-19.433593-14.328125-35.585937-32.976563-38.445312-2.398437-5.914063-5.394531-11.523438-8.921875-16.75l11.664063-7.371094c7.644531-4.832031 17.261718-5.816406 25.730468-2.640625 11.265626 4.230469 18.835938 15.160156 18.835938 27.195312zm0 0"/></svg>