<svg height="511pt" viewBox="-2 1 511 511.99851" width="511pt" xmlns="http://www.w3.org/2000/svg"><path d="m434.480469 184.78125h.003906c.003906-.003906.003906-.003906.003906-.003906l41.082031-41.082032c.003907-.003906.007813-.007812.011719-.011718.003907-.003906.007813-.011719.011719-.015625l21.1875-21.183594c6.269531-6.273437 9.726562-14.609375 9.726562-23.480469s-3.457031-17.210937-9.726562-23.480468c-3.351562-3.351563-7.25-5.828126-11.410156-7.445313l10.234375-10.234375c12.949219-12.945312 12.949219-34.011719 0-46.960938-12.933594-12.929687-33.984375-12.945312-46.933594-.03125l-10.269531 10.246094c-1.617188-4.152344-4.089844-8.042968-7.4375-11.390625-12.929688-12.929687-33.984375-12.945312-46.933594-.027343l-16.136719 16.09375c-1.644531-4.210938-4.152343-8.074219-7.445312-11.367188-12.929688-12.929688-33.984375-12.945312-46.941407-.019531l-101.773437 101.773437c-21.527344 21.527344-34.882813 50.085938-37.597656 80.40625l-1.570313 17.503906c-.148437 1.679688.144532 3.34375.796875 4.855469-.441406.371094-.875.75-1.289062 1.164063l-16.554688 16.554687c-6.28125 6.28125-7.730469 15.574219-4.382812 23.265625-8.527344 1.480469-16.691407 5.492188-23.261719 12.0625l-42.699219 42.699219c-3.90625 3.902344-3.90625 10.234375 0 14.140625s10.238281 3.90625 14.144531 0l42.695313-42.695312c4.441406-4.441407 10.347656-6.886719 16.625-6.886719s12.179687 2.445312 16.621094 6.882812l51.125 51.128907c4.4375 4.4375 6.878906 10.339843 6.878906 16.613281 0 6.28125-2.445313 12.183593-6.886719 16.625l-117.371094 117.375-84.367187-84.363281 18.109375-18.105469c3.90625-3.90625 3.90625-10.238281 0-14.144531-3.90625-3.902344-10.238281-3.90625-14.144531 0l-25.175781 25.179687c-1.875 1.875-2.929688 4.417969-2.929688 7.070313 0 2.652343 1.054688 5.195312 2.929688 7.070312l98.503906 98.507812c1.953125 1.949219 4.511718 2.929688 7.074218 2.929688 2.558594 0 5.117188-.980469 7.070313-2.929688l124.445313-124.449218c6.570312-6.566406 10.585937-14.734375 12.066406-23.261719 2.671875 1.164063 5.535156 1.765625 8.402344 1.765625 5.378906 0 10.761718-2.050781 14.859374-6.148438l16.554688-16.554687c.648438-.648437 1.226562-1.339844 1.773438-2.046875.644531.128906 1.296874.195312 1.957031.195312.75 0 1.503906-.085937 2.25-.257812l83.445312-19.253906c.683594-.15625 1.34375-.386719 1.980469-.683594l87.367188-40.738281c9.664062-4.507813 16.992187-12.507813 20.640624-22.523438 3.644532-10.023437 3.171876-20.859375-1.332031-30.523437-9.304687-19.949219-33.101562-28.609375-53.046875-19.308594l-35.628906 16.613281-.507812-3.9375zm-64.644531-132.699219 18.714843 18.714844-18.710937 18.710937-18.738282-18.738281zm26.863281 38.855469 18.949219-18.902344 18.8125 18.816406-30.308594 30.253907-18.8125-18.808594zm38.964843 26.96875 18.703126 18.703125-26.957032 26.957031-18.726562-18.730468zm46.972657-9.566406-14.128907 14.128906-18.6875-18.691406 14.152344-14.125c5.148438-5.136719 13.519532-5.132813 18.664063.011718 2.496093 2.492188 3.867187 5.8125 3.867187 9.339844 0 3.523438-1.371094 6.84375-3.867187 9.335938zm-19.839844-83.328125c5.148437-5.132813 13.523437-5.128907 18.664063.011719 5.152343 5.148437 5.152343 13.53125 0 18.679687l-32.929688 32.929687-18.722656-18.71875zm-64.640625-1.175781c5.148438-5.136719 13.523438-5.128907 18.664062.011718 5.152344 5.148438 5.152344 13.527344 0 18.679688l-14.125 14.128906-18.695312-18.699219zm-70.515625 4.703124c5.148437-5.136718 13.523437-5.132812 18.664063.011719 2.496093 2.496094 3.871093 5.8125 3.871093 9.339844s-1.375 6.84375-3.871093 9.335937l-23.636719 23.636719-18.675781-18.675781zm-49.375 297.742188-16.554687 16.554688c-.398438.394531-1.042969.394531-1.441407 0l-90.605469-90.609376c-.398437-.394531-.398437-1.042968 0-1.4375l16.550782-16.554687c.398437-.398437 1.046875-.398437 1.441406 0l10.332031 10.332031-4.105469 4.105469c-3.902343 3.90625-3.902343 10.238281 0 14.144531 1.953126 1.953125 4.511719 2.929688 7.074219 2.929688 2.558594 0 5.117188-.976563 7.070313-2.929688l4.105468-4.105468 13.753907 13.753906-4.105469 4.105468c-3.90625 3.90625-3.90625 10.238282 0 14.144532 1.953125 1.953125 4.511719 2.929687 7.070312 2.929687 2.5625 0 5.121094-.976562 7.074219-2.929687l4.105469-4.105469 13.757812 13.757813-4.109374 4.105468c-3.902344 3.90625-3.90625 10.238282 0 14.144532 1.953124 1.949218 4.511718 2.925781 7.074218 2.925781 2.558594 0 5.117188-.976563 7.070313-2.925781l4.105469-4.109376 10.335937 10.335938c.199219.195312.296875.4375.296875.71875 0 .277344-.097656.519531-.296875.71875zm98.046875-26.472656-77.023438 17.769531-24.554687-24.550781-5.949219-5.949219 26.019532-26.019531c14.148437-14.148438 37.167968-14.148438 51.332031.015625l1.109375 1.101562c2.972656 2.960938 7.476562 3.746094 11.277344 1.976563l39.253906-18.304688c.019531-.011718.039062-.019531.058594-.027344l12.351562-5.761718 17.070312 35.992187zm69.578125-76.398438c9.953125-4.644531 21.828125-.320312 26.46875 9.632813 2.25 4.820312 2.484375 10.230469.664063 15.230469-1.816407 5-5.476563 8.988281-10.296876 11.238281l-17.34375 8.085937-17.066406-35.992187zm-89.738281 19.777344c-22.089844-18.136719-54.867188-16.894531-75.488282 3.726562l-26.019531 26.019532-52.84375-52.84375c-.003906 0-.003906-.003906-.003906-.003906l-8.890625-8.890626 1.152344-12.84375c2.296875-25.660156 13.597656-49.828124 31.816406-68.046874l63.972656-63.976563 18.679688 18.679687-20.441406 20.4375c-3.902344 3.90625-3.902344 10.238282 0 14.144532 3.90625 3.90625 10.238281 3.90625 14.144531 0l30.167969-30.167969 4.539062-4.527344 18.761719 18.757813-35.292969 35.289062c-3.902344 3.90625-3.90625 10.238282 0 14.144532 1.953125 1.953124 4.511719 2.929687 7.074219 2.929687 2.558593 0 5.117187-.976563 7.070312-2.929687l36.648438-36.648438 18.796875 18.796875-36.085938 36.023437c-3.910156 3.902344-3.914062 10.234376-.011718 14.140626 3.902343 3.910156 10.234374 3.917968 14.140624.015624l26.492188-26.445312 18.738281 18.742188-29.578125 29.582031c-2.191406 2.191406-3.242187 5.273437-2.847656 8.347656l1.945312 15.132813zm0 0"/><path d="m297 156.492188h-55.816406c-5.523438 0-10 4.480468-10 10 0 5.523437 4.476562 10 10 10h55.816406c5.523438 0 10-4.476563 10-10 0-5.519532-4.476562-10-10-10zm0 0"/><path d="m63.625 360.375c2.628906 0 5.199219-1.070312 7.070312-2.933594 1.859376-1.867187 2.929688-4.4375 2.929688-7.070312 0-2.628906-1.070312-5.207032-2.929688-7.078125-1.871093-1.859375-4.441406-2.921875-7.070312-2.921875-2.640625 0-5.210938 1.0625-7.070312 2.921875-1.859376 1.871093-2.929688 4.441406-2.929688 7.078125 0 2.632812 1.070312 5.210937 2.929688 7.070312 1.859374 1.863282 4.429687 2.933594 7.070312 2.933594zm0 0"/><path d="m198.171875 353.132812c0-21.398437-17.410156-38.808593-38.808594-38.808593-21.398437 0-38.808593 17.410156-38.808593 38.808593 0 21.402344 17.410156 38.808594 38.808593 38.808594 21.398438 0 38.808594-17.410156 38.808594-38.808594zm-57.617187 0c0-10.371093 8.4375-18.808593 18.808593-18.808593 10.371094 0 18.808594 8.4375 18.808594 18.808593 0 10.371094-8.4375 18.808594-18.808594 18.808594-10.371093 0-18.808593-8.4375-18.808593-18.808594zm0 0"/><path d="m166.4375 360.203125c1.863281-1.859375 2.933594-4.441406 2.933594-7.070313 0-2.628906-1.070313-5.210937-2.933594-7.070312-1.859375-1.859375-4.4375-2.929688-7.070312-2.929688-2.636719 0-5.21875 1.070313-7.078126 2.929688-1.859374 1.859375-2.929687 4.441406-2.929687 7.070312 0 2.628907 1.070313 5.210938 2.929687 7.070313 1.871094 1.859375 4.441407 2.929687 7.078126 2.929687 2.632812 0 5.203124-1.070312 7.070312-2.929687zm0 0"/></svg>