<svg height="512pt" viewBox="0 -87 512 512" width="512pt" xmlns="http://www.w3.org/2000/svg"><path d="m115 221.730469c-28.570312 0-52.363281 20.769531-57.117188 48h-37.882812v-96h41.3125c13.992188 0 25.375-11.382813 25.375-25.375v-35c0-13.992188-11.382812-25.375-25.375-25.375h-35.316406c.972656-1.617188 2.050781-3.175781 3.242187-4.65625 7.976563-9.910157 19.847657-15.59375 32.566407-15.59375h53.195312c5.523438 0 10-4.476563 10-10 0-5.519531-4.476562-10-10-10h-53.195312c-18.804688 0-36.355469 8.402343-48.148438 23.054687-8.804688 10.945313-13.65625 24.707032-13.65625 38.753906v170.191407c0 5.523437 4.476562 10 10 10h47.882812c4.753907 27.230469 28.546876 48 57.117188 48 31.980469 0 58-26.019531 58-58s-26.019531-58-58-58zm-53.6875-113.75c2.964844 0 5.375 2.410156 5.375 5.375v35c0 2.964843-2.410156 5.375-5.375 5.375h-41.3125v-44.191407c0-.519531.015625-1.039062.03125-1.558593zm53.6875 209.75c-20.953125 0-38-17.046875-38-38s17.046875-38 38-38 38 17.046875 38 38-17.046875 38-38 38zm0 0"/><path d="m203 269.734375c-2.628906 0-5.210938 1.0625-7.070312 2.921875-1.859376 1.871094-2.929688 4.4375-2.929688 7.078125 0 2.632813 1.070312 5.199219 2.929688 7.070313 1.859374 1.859374 4.441406 2.929687 7.070312 2.929687s5.210938-1.070313 7.070312-2.929687c1.859376-1.871094 2.929688-4.4375 2.929688-7.070313 0-2.640625-1.070312-5.207031-2.929688-7.078125-1.859374-1.859375-4.441406-2.921875-7.070312-2.921875zm0 0"/><path d="m507.367188 201.292969-70.4375-44.796875-65.636719-104.097656c-1.832031-2.90625-5.023438-4.667969-8.457031-4.667969h-36.976563v-17.925781c0-16.433594-13.371094-29.804688-29.804687-29.804688h-.109376c-16.433593 0-29.804687 13.371094-29.804687 29.804688v17.925781h-63.140625c-5.523438 0-10 4.480469-10 10 0 5.523437 4.476562 10 10 10h83v202h-43c-5.523438 0-10 4.480469-10 10 0 5.523437 4.476562 10 10 10h112.777344c4.753906 27.230469 28.546875 48 57.117187 48 28.570313 0 52.367188-20.769531 57.121094-48h31.984375c5.523438 0 10-4.476563 10-10v-70c0-3.417969-1.746094-6.601563-4.632812-8.4375zm-201.367188-47.5625v-16.386719l58.390625-58.394531 11.117187 17.632812-57.152343 57.148438zm80.445312-39.800781 25.09375 39.800781h-64.894531zm-100.304687-84.125c0-5.40625 4.394531-9.804688 9.804687-9.804688h.109376c5.40625 0 9.804687 4.398438 9.804687 9.804688v17.925781h-19.722656v-17.925781zm61.183594 37.925781-41.324219 41.328125v-41.328125zm65.570312 250c-20.953125 0-38-17.046875-38-38s17.046875-38 38-38 38 17.046875 38 38-17.042969 38-38 38zm79.105469-48h-21.984375c-4.753906-27.230469-28.546875-48-57.117187-48-28.570313 0-52.367188 20.769531-57.121094 48h-49.777344v-96h120.757812l65.242188 41.492187zm0 0"/><path d="m154.828125 67.734375c2.632813 0 5.210937-1.070313 7.070313-2.929687 1.871093-1.871094 2.929687-4.4375 2.929687-7.078126 0-2.632812-1.058594-5.199218-2.929687-7.070312-1.859376-1.859375-4.429688-2.929688-7.070313-2.929688-2.628906 0-5.207031 1.070313-7.066406 2.929688-1.863281 1.859375-2.933594 4.4375-2.933594 7.070312 0 2.640626 1.070313 5.207032 2.933594 7.078126 1.859375 1.859374 4.4375 2.929687 7.066406 2.929687zm0 0"/><path d="m115 269.734375c-2.628906 0-5.210938 1.0625-7.070312 2.921875-1.859376 1.859375-2.929688 4.4375-2.929688 7.078125 0 2.632813 1.070312 5.199219 2.929688 7.070313 1.859374 1.859374 4.441406 2.929687 7.070312 2.929687s5.210938-1.070313 7.070312-2.929687c1.859376-1.871094 2.929688-4.4375 2.929688-7.070313 0-2.640625-1.070312-5.207031-2.929688-7.078125-1.859374-1.859375-4.441406-2.921875-7.070312-2.921875zm0 0"/><path d="m412.898438 269.734375c-2.636719 0-5.207032 1.0625-7.070313 2.921875-1.867187 1.859375-2.929687 4.4375-2.929687 7.078125 0 2.632813 1.0625 5.210937 2.929687 7.070313 1.863281 1.859374 4.433594 2.929687 7.070313 2.929687 2.632812 0 5.210937-1.070313 7.070312-2.929687 1.859375-1.859376 2.929688-4.4375 2.929688-7.070313 0-2.640625-1.070313-5.21875-2.929688-7.078125s-4.4375-2.921875-7.070312-2.921875zm0 0"/><path d="m339 195.480469h-6.625c-5.523438 0-10 4.480469-10 10 0 5.523437 4.476562 10 10 10h6.625c5.523438 0 10-4.476563 10-10 0-5.519531-4.476562-10-10-10zm0 0"/><path d="m252.6875 195.480469c-5.523438 0-10 4.480469-10 10 0 5.523437 4.476562 10 10 10h6.625c5.523438 0 10-4.476563 10-10 0-5.519531-4.476562-10-10-10zm0 0"/><path d="m105 113.355469v35c0 13.992187 11.382812 25.375 25.375 25.375h106.9375c13.992188 0 25.375-11.382813 25.375-25.375v-35c0-13.992188-11.382812-25.375-25.375-25.375h-106.9375c-13.992188 0-25.375 11.382812-25.375 25.375zm20 0c0-2.964844 2.410156-5.375 5.375-5.375h106.9375c2.964844 0 5.375 2.410156 5.375 5.375v35c0 2.964843-2.410156 5.375-5.375 5.375h-106.9375c-2.964844 0-5.375-2.410157-5.375-5.375zm0 0"/></svg>