<svg height="512pt" viewBox="0 0 512 512" width="512pt" xmlns="http://www.w3.org/2000/svg"><path d="m288 412c-2.628906 0-5.210938 1.070312-7.070312 2.929688-1.859376 1.859374-2.929688 4.441406-2.929688 7.070312s1.070312 5.210938 2.929688 7.070312c1.859374 1.859376 4.441406 2.929688 7.070312 2.929688s5.210938-1.070312 7.070312-2.929688c1.859376-1.859374 2.929688-4.441406 2.929688-7.070312 0-2.640625-1.070312-5.210938-2.929688-7.070312-1.859374-1.859376-4.441406-2.929688-7.070312-2.929688zm0 0"/><path d="m288 452c-5.523438 0-10 4.476562-10 10v30h-44v-268.777344c0-5.523437-4.476562-10-10-10s-10 4.476563-10 10v278.777344c0 5.523438 4.476562 10 10 10h64c5.523438 0 10-4.476562 10-10v-40c0-5.523438-4.476562-10-10-10zm0 0"/><path d="m224 193.21875c2.628906 0 5.210938-1.070312 7.070312-2.929688 1.859376-1.859374 2.929688-4.4375 2.929688-7.070312 0-2.628906-1.070312-5.207031-2.929688-7.070312-1.859374-1.859376-4.441406-2.929688-7.070312-2.929688s-5.210938 1.070312-7.070312 2.929688c-1.859376 1.863281-2.929688 4.441406-2.929688 7.070312 0 2.632812 1.070312 5.210938 2.929688 7.070312 1.859374 1.859376 4.441406 2.929688 7.070312 2.929688zm0 0"/><path d="m512 176.90625v-70.90625c0-5.523438-4.476562-10-10-10h-74v-37.042969c17.175781-4.042969 30-19.480469 30-37.871093v-11.085938c0-5.523438-4.476562-10-10-10s-10 4.476562-10 10v11.085938c0 7.207031-4.054688 13.480468-10 16.675781v-2.09375c0-5.523438-4.476562-10-10-10s-10 4.476562-10 10v.707031c-4.730469-3.441406-7.824219-9.003906-7.824219-15.289062v-11.085938c0-5.523438-4.480469-10-10-10h-268.351562c-5.519531 0-10 4.476562-10 10v11.085938c0 6.285156-3.09375 11.847656-7.824219 15.289062v-.707031c0-5.523438-4.476562-10-10-10s-10 4.476562-10 10v2.09375c-5.945312-3.191407-10-9.46875-10-16.675781v-11.085938c0-5.523438-4.476562-10-10-10s-10 4.476562-10 10v11.085938c0 18.390624 12.828125 33.828124 30 37.871093v37.042969h-74c-5.523438 0-10 4.476562-10 10v145.425781c0 33.234375 21.699219 61.484375 51.667969 71.371094v29.78125c0 4.953125 3.605469 9.054687 8.332031 9.847656v25.574219c0 15.269531 10.117188 28.21875 24 32.496094v81.503906c0 5.523438 4.476562 10 10 10s10-4.476562 10-10v-81.503906c13.882812-4.28125 24-17.226563 24-32.496094v-25.574219c4.726562-.792969 8.332031-4.898437 8.332031-9.851562v-29.777344c29.96875-9.886719 51.667969-38.136719 51.667969-71.371094v-74.480469c0-.011718 0-.023437 0-.039062v-70.90625c0-5.523438-4.476562-10-10-10h-74v-37.617188c16.070312-4.785156 27.824219-19.691406 27.824219-37.296874v-1.085938h82.175781v123.222656c0 5.519532 4.476562 10 10 10s10-4.480468 10-10v-123.222656h44v362c0 5.523438 4.476562 10 10 10s10-4.476562 10-10v-362h82.175781v1.085938c0 17.605468 11.753907 32.507812 27.824219 37.296874v37.617188h-74c-5.523438 0-10 4.476562-10 10v145.425781c0 33.234375 21.699219 61.484375 51.667969 71.371094v29.78125c0 4.953125 3.605469 9.054687 8.332031 9.847656v25.574219c0 15.269531 10.117188 28.21875 24 32.496094v81.503906c0 5.523438 4.476562 10 10 10s10-4.476562 10-10v-81.503906c13.882812-4.28125 24-17.226563 24-32.496094v-25.574219c4.726562-.792969 8.332031-4.898437 8.332031-9.851562v-29.777344c29.96875-9.886719 51.667969-38.136719 51.667969-71.371094v-74.480469c0-.011718 0-.023437 0-.039062zm-404 211.09375c0 7.71875-6.28125 14-14 14s-14-6.28125-14-14v-25.425781h28zm8.332031-61.425781v16h-44.664062v-16zm-3.484375-20h-37.695312c-30.410156 0-55.152344-24.738281-55.152344-55.148438v-62.269531l1.074219.78125-.101563.132812c.773438-.980468 19.441406-23.722656 68.257813 2.757813 18.628906 10.105469 34.445312 13.523437 47.316406 13.523437 10.222656 0 18.59375-2.160156 25.039063-4.835937 2.308593-.957031 4.441406-2.011719 6.414062-3.109375v53.015625c0 30.414063-24.742188 55.152344-55.152344 55.152344zm55.152344-133.175781c-5.933594 6.4375-27.601562 24.433593-69.230469 1.847656-38.746093-21.015625-64.25-16.480469-78.769531-9.074219v-50.171875h148zm324-57.398438v57.398438c-5.933594 6.4375-27.601562 24.433593-69.230469 1.847656-38.746093-21.015625-64.25-16.480469-78.769531-9.074219v-50.171875zm-60 272c0 7.71875-6.28125 14-14 14s-14-6.28125-14-14v-25.425781h28zm8.332031-61.425781v16h-44.667969v-16zm-3.484375-20h-37.695312c-30.410156 0-55.152344-24.738281-55.152344-55.148438v-62.269531l1.074219.78125-.101563.132812c.773438-.980468 19.441406-23.722656 68.257813 2.757813 18.628906 10.105469 34.445312 13.523437 47.316406 13.523437 10.222656 0 18.59375-2.160156 25.039063-4.835937 2.308593-.957031 4.441406-2.011719 6.414062-3.109375v53.015625c0 30.414063-24.742188 55.152344-55.152344 55.152344zm0 0"/></svg>