<svg height="512pt" viewBox="-124 0 512 512" width="512pt" xmlns="http://www.w3.org/2000/svg"><path d="m168.1875 326c-2.632812 0-5.210938 1.070312-7.070312 2.929688-1.859376 1.863281-2.929688 4.441406-2.929688 7.070312s1.066406 5.210938 2.929688 7.070312c1.859374 1.859376 4.4375 2.929688 7.070312 2.929688 2.628906 0 5.207031-1.070312 7.066406-2.929688 1.863282-1.859374 2.933594-4.441406 2.933594-7.070312s-1.070312-5.210938-2.933594-7.070312c-1.859375-1.859376-4.4375-2.929688-7.066406-2.929688zm0 0"/><path d="m261.246094 235.503906-49.453125-111.71875c-10.066407-22.734375-31.921875-37.875-56.488281-39.527344 7.007812-8.871093 11.207031-20.054687 11.207031-32.207031 0-28.699219-23.351563-52.050781-52.050781-52.050781-28.699219 0-52.050782 23.351562-52.050782 52.050781 0 12.140625 4.191406 23.3125 11.183594 32.175781-24.804688 1.46875-46.78125 16.75-56.695312 39.785157l-13.660157 31.742187c-5.28125 12.273438-4.046875 26.265625 3.296875 37.425782 7.347656 11.15625 19.710938 17.820312 33.074219 17.820312h10.578125v291c0 5.523438 4.476562 10 10 10h108c5.519531 0 10-4.476562 10-10v-126c0-5.523438-4.480469-10-10-10-5.523438 0-10 4.476562-10 10v74.152344h-34v-143.082032c0-5.523437-4.480469-10-10-10-5.523438 0-10 4.476563-10 10v143.082032h-34v-184.023438h88v29.871094c0 5.523438 4.476562 10 10 10 5.519531 0 10-4.476562 10-10v-75.332031l21.96875 43.695312c5.953125 11.839844 17.726562 18.664063 30.078125 18.664063 4.84375 0 9.777344-1.050782 14.484375-3.261719 16.488281-7.746094 23.902344-27.601563 16.527344-44.261719zm-150.746094-68.34375c3.183594 2.429688 5.253906 6.253906 5.253906 10.558594 0 7.324219-5.960937 13.28125-13.285156 13.28125h-15.808594zm-17.433594-63.058594h35.933594l-19.617188 30.914063zm21.394532-84.101562c17.671874 0 32.050781 14.378906 32.050781 32.050781s-14.378907 32.050781-32.050781 32.050781c-17.671876 0-32.050782-14.378906-32.050782-32.050781s14.378906-32.050781 32.050782-32.050781zm-43.742188 84.601562 21.019531 39.832032h-18.015625l.355469-1.164063c1.621094-5.277343-1.34375-10.871093-6.621094-12.496093-5.28125-1.625-10.875 1.34375-12.496093 6.621093l-2.746094 8.933594-15.511719-15.511719c-.210937-.210937-.433594-.40625-.660156-.597656 6.640625-13.863281 19.683593-23.382812 34.675781-25.617188zm-49.203125 74.363282c-2.070313-4.867188-2.066406-10.28125.09375-15.304688l5.914063-13.738281 11.515624 11.515625zm16.332031 11.953125 26.480469-26.484375h20.613281l-26.496094 26.5c-.023437.019531-.042968.046875-.066406.066406h-18.769531c-.59375 0-1.179687-.035156-1.761719-.082031zm32.339844 279.238281h34v21.84375h-34zm54 21.84375v-21.84375h34v21.84375zm112.023438-230.335938c-6.8125 3.203126-14.800782.441407-18.183594-6.285156l-39.839844-79.234375v-22.476562c0-5.523438-4.480469-10-10-10-5.523438 0-10 4.476562-10 10v92.460937h-88v-35.128906h32.28125c18.351562 0 33.285156-14.929688 33.285156-33.28125 0-10.738281-5.117187-20.300781-13.039062-26.390625l29.945312-47.191406c17.722656.695312 33.621094 11.429687 40.84375 27.742187l49.453125 111.71875c3.011719 6.800782-.015625 14.90625-6.746093 18.066406zm0 0"/></svg>