<svg height="512pt" viewBox="0 -27 512.00005 512" width="512pt" xmlns="http://www.w3.org/2000/svg"><path d="m510.863281 337.980469c-2.554687-4.894531-8.59375-6.796875-13.488281-4.242188l-23.117188 12.058594-56.710937-83.230469c-1.859375-2.730468-4.953125-4.367187-8.261719-4.367187h-11.535156v-43.699219c0-46.316406-37.683594-84-84-84h-47.625v-8.4375c0-32.015625-26.046875-58.0625-58.0625-58.0625h-62.640625v-30.789062c0-18.3125-14.898437-33.210938-33.210937-33.210938h-81.210938c-17.09375 0-31 13.90625-31 31s13.90625 31 31 31h94.421875v73.039062c-29.351563 7.066407-55.644531 22.058594-76.484375 42.574219-.335938.261719-.667969.535157-.976562.847657-.308594.308593-.585938.640624-.847657.976562-29.117187 29.574219-47.113281 70.128906-47.113281 114.8125 0 90.289062 73.457031 163.75 163.75 163.75 44.683594 0 85.234375-18 114.8125-47.117188.335938-.257812.667969-.535156.976562-.84375.308594-.3125.585938-.640624.847657-.980468 29.117187-29.574219 47.113281-70.125 47.113281-114.808594 0-5.417969-.269531-10.769531-.789062-16.054688h51.039062v58.132813c-29.03125 4.789063-51.25 30.050781-51.25 60.417969 0 33.773437 27.476562 61.25 61.25 61.25s61.25-27.472656 61.25-61.246094c0-30.367188-22.21875-55.632812-51.25-60.421875v-58.128906h6.246094l58.738281 86.203125c1.917969 2.820312 5.054687 4.371094 8.269531 4.371094 1.5625 0 3.148438-.367188 4.617188-1.136719l31-16.164063c4.898437-2.554687 6.796875-8.59375 4.242187-13.492187zm-302.800781-253.980469c20.988281 0 38.0625 17.074219 38.0625 38.0625v8.4375h-100.703125v-46.5zm-34.3125 66.851562c32.125 2.222657 61.378906 15.035157 84.28125 34.976563l-74.894531 74.890625c-2.914063-1.691406-6.0625-3.015625-9.386719-3.902344zm-142.75-108.851562c-6.066406 0-11-4.933594-11-11s4.933594-11 11-11h81.210938c7.285156 0 13.210937 5.925781 13.210937 13.210938v8.789062zm122.75 108.851562v105.964844c-3.328125.886719-6.476562 2.210938-9.386719 3.902344l-74.894531-74.890625c22.902344-19.941406 52.15625-32.757813 84.28125-34.976563zm-98.425781 49.117188 74.894531 74.894531c-1.691406 2.910157-3.015625 6.058594-3.902344 9.386719h-105.960937c2.214843-32.125 15.03125-61.378906 34.96875-84.28125zm98.425781 237.675781c-71.3125-4.925781-128.472656-62.085937-133.394531-133.394531h105.960937c.886719 3.328125 2.214844 6.476562 3.902344 9.386719l-25.636719 25.640625c-3.90625 3.902344-3.90625 10.234375 0 14.140625 1.953125 1.953125 4.511719 2.929687 7.070313 2.929687s5.117187-.976562 7.070312-2.929687l25.640625-25.636719c2.910157 1.691406 6.058594 3.015625 9.386719 3.902344zm-8.75-143.394531c0-10.339844 8.410156-18.75 18.75-18.75s18.75 8.410156 18.75 18.75c0 10.335938-8.410156 18.75-18.75 18.75s-18.75-8.414062-18.75-18.75zm28.75 143.394531v-105.960937c3.328125-.890625 6.472656-2.214844 9.386719-3.90625l74.894531 74.894531c-22.902344 19.941406-52.15625 32.753906-84.28125 34.972656zm98.421875-49.113281-74.894531-74.894531c1.691406-2.914063 3.019531-6.0625 3.90625-9.386719h105.960937c-2.21875 32.125-15.03125 61.378906-34.972656 84.28125zm-70.988281-104.28125c-.886719-3.328125-2.214844-6.476562-3.90625-9.386719l74.894531-74.894531c19.941406 22.902344 32.753906 52.15625 34.972656 84.28125zm122.308594-26.054688c-6.828126-30.265624-22.058594-57.378906-43.105469-78.757812-.261719-.339844-.539063-.667969-.847657-.976562-.3125-.3125-.640624-.585938-.976562-.847657-10.800781-10.632812-23.058594-19.785156-36.453125-27.113281h71.640625c35.289062 0 64 28.707031 64 64v43.695312zm105.507812 138.554688c0 22.742188-18.507812 41.25-41.25 41.25-22.746094 0-41.25-18.507812-41.25-41.25 0-22.746094 18.503906-41.25 41.25-41.25 22.742188 0 41.25 18.503906 41.25 41.25zm0 0"/><path d="m83.96875 364.027344c-2.628906 0-5.210938 1.070312-7.070312 2.929687-1.867188 1.859375-2.929688 4.441407-2.929688 7.070313 0 2.640625 1.070312 5.210937 2.929688 7.070312 1.859374 1.859375 4.441406 2.929688 7.070312 2.929688 2.632812 0 5.210938-1.070313 7.070312-2.929688 1.859376-1.859375 2.929688-4.4375 2.929688-7.070312 0-2.628906-1.070312-5.210938-2.929688-7.070313-1.859374-1.859375-4.4375-2.929687-7.070312-2.929687zm0 0"/><path d="m380.679688 389.679688c-1.859376 1.859374-2.929688 4.429687-2.929688 7.070312 0 2.628906 1.066406 5.207031 2.929688 7.066406 1.859374 1.859375 4.4375 2.933594 7.070312 2.933594 2.628906 0 5.207031-1.070312 7.066406-2.933594 1.859375-1.859375 2.933594-4.4375 2.933594-7.066406 0-2.632812-1.070312-5.210938-2.933594-7.070312-1.859375-1.859376-4.4375-2.929688-7.066406-2.929688-2.632812 0-5.210938 1.066406-7.070312 2.929688zm0 0"/></svg>