<svg height="512pt" viewBox="-135 0 512 512" width="512pt" xmlns="http://www.w3.org/2000/svg"><path d="m137.167969 321.671875c-2.632813 0-5.210938 1.058594-7.070313 2.929687-1.859375 1.859376-2.929687 4.429688-2.929687 7.070313 0 2.628906 1.066406 5.207031 2.929687 7.066406 1.859375 1.859375 4.4375 2.933594 7.070313 2.933594 2.628906 0 5.210937-1.070313 7.066406-2.933594 1.863281-1.859375 2.933594-4.4375 2.933594-7.066406 0-2.632813-1.070313-5.210937-2.933594-7.070313-1.855469-1.871093-4.4375-2.929687-7.066406-2.929687zm0 0"/><path d="m220.5 453.617188v-11.617188c0-3.972656-2.351562-7.570312-5.992188-9.160156l-67.339843-29.460938v-31.710937c0-5.523438-4.480469-10-10-10-5.523438 0-10 4.476562-10 10v30h-16v-167.632813c0-45.414062 13.136719-89.507812 37.988281-127.519531 4.804688-7.347656 7.34375-15.875 7.34375-24.652344v-5.097656c0-10.410156-3.582031-20.347656-10-28.289063v-21.691406c16.195312 11.335938 26 29.890625 26 49.980469v5.097656c0 11.898438-3.441406 23.449219-9.953125 33.410157-23.144531 35.398437-35.378906 76.464843-35.378906 118.761718v57.632813c0 5.519531 4.476562 10 10 10 5.519531 0 10-4.480469 10-10v-57.632813c0-38.398437 11.105469-75.683594 32.117187-107.816406 8.644532-13.222656 13.214844-28.5625 13.214844-44.355469v-5.097656c0-29.933594-16.390625-57.3125-42.777344-71.445313-1.957031-1.046874-9.222656-5.320312-13.222656-5.320312h-105c-16.542969 0-30 13.457031-30 30s13.457031 30 30 30h98.554688c4.125 4.566406 6.445312 10.511719 6.445312 16.765625v5.097656c0 4.882813-1.410156 9.621094-4.085938 13.710938-26.984374 41.269531-41.246093 89.148437-41.246093 138.460937v171.09375l-63.34375 27.710938c-3.640625 1.589844-5.988281 5.1875-5.988281 9.160156v11.617188c-12.671876 4.203124-21.835938 16.15625-21.835938 30.214843v18.167969c0 5.523438 4.476562 10 10 10h43.667969c5.519531 0 10-4.476562 10-10v-18.167969c0-13.023437-7.867188-24.242187-19.097657-29.164062h153.195313c-11.230469 4.921875-19.101563 16.140625-19.101563 29.164062v18.167969c0 5.523438 4.480469 10 10 10h43.667969c5.523438 0 10-4.476562 10-10v-18.167969c.003907-14.058593-9.164062-26.011719-21.832031-30.214843zm-199-423.617188c0-5.515625 4.484375-10 10-10h95v20h-95c-5.515625 0-10-4.484375-10-10zm115.667969 391.667969c.542969 0 1.070312-.054688 1.59375-.140625l30.027343 13.140625h-95.246093l29.714843-13zm-93.5 70.332031h-23.667969v-8.167969c0-6.523437 5.308594-11.832031 11.835938-11.832031 6.523437 0 11.832031 5.308594 11.832031 11.832031zm178.667969 0h-23.667969v-8.167969c0-6.523437 5.308593-11.832031 11.832031-11.832031s11.835938 5.308594 11.835938 11.832031zm0 0"/></svg>