<svg height="512pt" viewBox="-84 0 512 512" width="512pt" xmlns="http://www.w3.org/2000/svg"><path d="m94.691406 327.546875v-57.410156c7.417969-7.578125 12-17.9375 12-29.355469 0-11.414062-4.582031-21.773438-12-29.351562v-66.03125c9.6875-9.289063 15.742188-22.34375 15.742188-36.796876v-77.464843c0-17.167969-13.96875-31.136719-31.136719-31.136719h-57.355469c-8.648437 0-16.273437 4.878906-19.894531 12.734375s-2.378906 16.820313 3.238281 23.394531c2.03125 2.375 3.148438 5.40625 3.148438 8.53125v63.941406c0 19.148438 10.609375 35.859376 26.257812 44.578126v58.25c-7.414062 7.578124-12 17.9375-12 29.351562 0 11.417969 4.585938 21.777344 12 29.355469v56.273437h-12.492187c-5.523438 0-10 4.476563-10 10 0 5.523438 4.476562 10 10 10h61.019531c21.269531 0 38.570312 17.304688 38.570312 38.570313 0 5.375-1.097656 10.59375-3.257812 15.511719l-28.855469 65.683593c-1.96875 4.480469-4.664062 8.566407-8.007812 12.140625-8.140625 8.695313-19.636719 13.683594-31.546875 13.683594h-27.921875c-5.523438 0-10 4.476562-10 10s4.476562 10 10 10h27.921875c17.421875 0 34.246094-7.296875 46.148437-20.019531 4.890625-5.226563 8.835938-11.203125 11.714844-17.761719l28.855469-65.679688c3.285156-7.472656 4.949218-15.398437 4.949218-23.558593 0-28.371094-20.277343-52.085938-47.097656-57.433594zm-52-86.765625c0-12.128906 9.871094-22 22-22 12.132813 0 22 9.871094 22 22 0 12.132812-9.867187 22-22 22-12.128906 0-22-9.867188-22-22zm47.742188-132.175781c0 11.546875-6.351563 21.632812-15.742188 26.964843v-34.226562c0-7.140625 5.808594-12.949219 12.949219-12.949219h2.792969zm-69.941406-85.46875c-.195313-.226563-.789063-.921875-.28125-2.03125.511718-1.105469 1.425781-1.105469 1.730468-1.105469h57.355469c6.140625 0 11.136719 4.996094 11.136719 11.136719v37.257812h-2.792969c-18.167969 0-32.949219 14.78125-32.949219 32.949219v37.898438c-14.851562-2.289063-26.257812-15.15625-26.257812-30.640626v-63.941406c0-7.882812-2.820313-15.527344-7.941406-21.523437zm38.941406 136.46875c2.117187 0 4.207031-.148438 6.257812-.398438.03125-.003906.058594-.007812.089844-.011719 3.058594-.382812 6.042969-1.023437 8.910156-1.925781v42.726563c-3.207031-.785156-6.554687-1.214844-10-1.214844-3.445312 0-6.792968.429688-10 1.214844v-40.617188c1.5625.140625 3.140625.226563 4.742188.226563zm-4.742188 166.804687v-44.839844c3.207032.785157 6.554688 1.210938 10 1.210938 3.449219 0 6.792969-.425781 10-1.210938v44.839844zm0 0"/><path d="m224.71875 492c-2.628906 0-5.207031 1.070312-7.066406 2.929688-1.871094 1.859374-2.933594 4.441406-2.933594 7.070312s1.0625 5.210938 2.933594 7.070312c1.859375 1.859376 4.429687 2.929688 7.066406 2.929688 2.632812 0 5.210938-1.070312 7.070312-2.929688 1.863282-1.859374 2.929688-4.441406 2.929688-7.070312s-1.066406-5.210938-2.929688-7.070312c-1.859374-1.859376-4.4375-2.929688-7.070312-2.929688zm0 0"/><path d="m297.214844 327.546875v-57.410156c7.414062-7.578125 12-17.9375 12-29.355469 0-11.414062-4.585938-21.773438-12-29.351562v-66.03125c9.6875-9.289063 15.738281-22.34375 15.738281-36.796876v-77.464843c0-17.167969-13.964844-31.136719-31.132813-31.136719h-57.359374c-8.648438 0-16.269532 4.878906-19.890626 12.734375-3.621093 7.855469-2.378906 16.816406 3.234376 23.394531 2.03125 2.375 3.148437 5.40625 3.148437 8.53125v63.941406c0 19.148438 10.613281 35.859376 26.261719 44.578126v58.25c-7.417969 7.578124-12 17.9375-12 29.351562 0 11.417969 4.582031 21.777344 12 29.355469v56.273437h-12.496094c-5.523438 0-10 4.476563-10 10 0 5.523438 4.476562 10 10 10h61.019531c21.269531 0 38.570313 17.304688 38.570313 38.570313 0 5.375-1.097656 10.59375-3.257813 15.511719l-28.855469 65.683593c-1.96875 4.480469-4.664062 8.566407-8.007812 12.140625-5.863281 6.265625-13.378906 10.609375-21.738281 12.554688-5.378907 1.257812-8.722657 6.632812-7.46875 12.011718 1.074219 4.613282 5.1875 7.730469 9.726562 7.730469.753907 0 1.519531-.085937 2.28125-.261719 12.226563-2.851562 23.226563-9.203124 31.800781-18.371093 4.894532-5.226563 8.835938-11.203125 11.714844-17.761719l28.855469-65.679688c3.285156-7.472656 4.949219-15.398437 4.949219-23.558593 0-28.371094-20.273438-52.085938-47.09375-57.433594zm-52-86.765625c0-12.128906 9.867187-22 22-22 12.128906 0 22 9.871094 22 22 0 12.132812-9.871094 22-22 22-12.132813 0-22-9.867188-22-22zm47.738281-132.175781c0 11.546875-6.351563 21.632812-15.738281 26.964843v-34.226562c0-7.140625 5.808594-12.949219 12.949218-12.949219h2.789063zm-69.9375-85.464844c-.195313-.230469-.792969-.925781-.28125-2.035156.507813-1.105469 1.425781-1.105469 1.726563-1.105469h57.359374c6.136719 0 11.132813 4.996094 11.132813 11.136719v37.257812h-2.789063c-18.167968 0-32.949218 14.78125-32.949218 32.949219v37.898438c-14.851563-2.289063-26.261719-15.15625-26.261719-30.640626v-63.941406c0-7.882812-2.820313-15.527344-7.9375-21.519531zm38.9375 136.464844c2.121094 0 4.207031-.148438 6.261719-.398438.03125-.003906.058594-.007812.085937-.011719 3.0625-.382812 6.042969-1.023437 8.914063-1.925781v42.726563c-3.207032-.785156-6.554688-1.214844-10-1.214844-3.445313 0-6.792969.429688-10 1.214844v-40.617188c1.5625.140625 3.140625.226563 4.738281.226563zm-4.738281 166.804687v-44.839844c3.207031.785157 6.554687 1.210938 10 1.210938 3.445312 0 6.792968-.425781 10-1.210938v44.839844zm0 0"/></svg>