<svg height="511pt" viewBox="0 -8 511.99924 511" width="511pt" xmlns="http://www.w3.org/2000/svg"><path d="m507.628906 308.574219c-2.734375-1.859375-6.210937-2.25-9.292968-1.035157l-57.019532 22.464844c-5.136718 2.023438-7.660156 7.828125-5.636718 12.964844 2.023437 5.140625 7.828124 7.664062 12.96875 5.640625l43.355468-17.082031v143.449218h-364.117187l246.335937-97.046874c5.136719-2.023438 7.664063-7.832032 5.636719-12.96875-2.023437-5.140626-7.832031-7.664063-12.964844-5.640626l-113.015625 44.523438c8.726563-11.273438 15.609375-23.589844 20.535156-36.59375l127.625-50.621094c.339844-.132812.664063-.285156.980469-.453125l10.78125-4.222656c3.574219-1.402344 6.261719-4.3125 7.375-7.984375 1.113281-3.675781.492188-7.585938-1.703125-10.734375-13.699218-19.648437-37.230468-28.894531-60.21875-24.257813l-39.859375-48.984374c-18.742187-23.03125-51.261719-29.421876-77.328125-15.191407l-5.621094 3.066407-10.847656-70.242188c-2.164062-13.996094-9.15625-26.804688-19.710937-36.210938 18.460937-8.214843 31.371093-26.71875 31.371093-48.191406 0-29.070312-23.652343-52.722656-52.722656-52.722656-29.074218 0-52.726562 23.652344-52.726562 52.722656 0 13.851563 5.378906 26.464844 14.144531 35.882813-10.378906 3.476562-19.742187 9.722656-27.015625 18.25l-18.457031 21.636719c-14.125 16.5625-20.664063 38.195312-18.378907 59.554687-25.273437 11.753906-46.964843 31.109375-61.519531 55.054687-16.175781 26.605469-23.023437 57.082032-19.808593 88.132813 1.828124 17.652344 6.835937 34.546875 14.886718 50.203125 1.773438 3.445312 5.269532 5.425781 8.898438 5.425781 1.539062 0 3.101562-.355469 4.566406-1.105469 4.910156-2.527343 6.84375-8.554687 4.320312-13.464843-6.910156-13.4375-11.210937-27.945313-12.78125-43.121094-5.175781-50 21.523438-98.359375 65.703126-120.980469l5.726562 22.777344c-33.402344 19.394531-52.839844 57.046875-48.824219 95.863281 5.265625 50.859375 48.355469 88.824219 98.410157 88.820313 3.394531 0 6.824218-.175782 10.273437-.53125 26.304687-2.722656 49.976563-15.527344 66.652344-36.054688s24.359375-46.320312 21.632812-72.625c-4.636719-44.804687-38.785156-80.457031-82.539062-87.535156l-3.84375-23.425781c56.949219 5.597656 103 50.730469 108.992187 108.621093 1.820313 17.574219-.148437 34.960938-5.605468 51.226563-.15625.378906-.285157.765625-.390626 1.160156-4.59375 13.238281-11.507812 25.710938-20.605468 36.910157-12.914063 15.898437-29.246094 28.023437-47.648438 35.664062l-3.847656 1.515625c-9.683594 3.632813-19.894531 6.058594-30.457031 7.152344-23.808594 2.460937-47.554688-2.050781-68.683594-13.058594-4.894531-2.550781-10.933594-.648437-13.488281 4.25-2.550782 4.898437-.648438 10.933594 4.25 13.488281 13.421875 6.992188 27.75 11.71875 42.5 14.121094l-47.308594 18.636719c-4.46875 1.761719-7.054688 6.453125-6.160156 11.167969.898437 4.71875 5.019531 8.136718 9.824218 8.136718h426.773438c5.523438 0 10-4.476562 10-10v-168.132812c0-3.308594-1.636719-6.402344-4.371094-8.265625zm-224.890625-6.035157c-1.207031-11.664062-3.820312-22.878906-7.644531-33.492187l.796875-.414063 46.878906 57.925782-41.609375 16.503906c2.433594-13.191406 3-26.804688 1.578125-40.523438zm21.144531-69.925781 43.914063 53.964844c2.609375 3.207031 6.921875 4.476563 10.855469 3.199219 13.359375-4.355469 27.539062-1.320313 37.765625 7.507812l-54.367188 21.308594-55.746093-68.882812c-2.988282-3.6875-8.160157-4.773438-12.375-2.585938l-6.949219 3.605469c-5.113281-9.628907-11.292969-18.589844-18.378907-26.71875l3.046876-1.660157c17.605468-9.613281 39.574218-5.296874 52.234374 10.261719zm-119.351562-212.121093c18.046875 0 32.730469 14.683593 32.730469 32.726562 0 18.046875-14.683594 32.726562-32.730469 32.726562-18.042969 0-32.726562-14.679687-32.726562-32.726562 0-18.042969 14.683593-32.726562 32.726562-32.726562zm35.820312 288.507812c2.171876 20.992188-3.960937 41.578125-17.265624 57.957031-13.308594 16.382813-32.199219 26.601563-53.191407 28.773438-21 2.171875-41.578125-3.957031-57.957031-17.265625-16.382812-13.308594-26.601562-32.199219-28.773438-53.191406-3.007812-29.027344 10.429688-57.234376 34.058594-73.410157l4.03125 16.046875c3.5625 14.171875 16.257813 24.070313 30.871094 24.070313 9.359375 0 18.203125-4.089844 24.261719-11.226563 6.058593-7.132812 8.664062-16.519531 7.148437-25.753906l-2.375-14.480469c31.664063 7.980469 55.726563 35.035157 59.191406 68.480469zm-70.691406-138.601562c-.890625-5.449219-6.03125-9.144532-11.484375-8.25-5.449219.894531-9.140625 6.035156-8.246093 11.484374l9.039062 55.121094c.027344.855469.171875 1.683594.40625 2.476563l4.429688 27.003906c.570312 3.484375-.375 6.886719-2.660157 9.578125-2.285156 2.691406-5.488281 4.171875-9.019531 4.171875-5.433594 0-10.152344-3.679687-11.476562-8.949219l-17.242188-68.585937c-4.628906-18.414063-.035156-38.035157 12.289062-52.484375l18.453126-21.632813c7.796874-9.144531 19.164062-14.386719 31.179687-14.386719 20.363281 0 37.394531 14.605469 40.503906 34.726563l8.445313 54.664063c-18.914063-11.292969-40.628906-18.28125-63.753906-19.679688zm0 0"/><path d="m400.695312 346.898438c-1.859374 1.859374-2.929687 4.441406-2.929687 7.070312s1.070313 5.207031 2.929687 7.066406c1.859376 1.863282 4.4375 2.929688 7.070313 2.929688 2.628906 0 5.207031-1.066406 7.066406-2.929688 1.859375-1.859375 2.929688-4.4375 2.929688-7.066406 0-2.640625-1.070313-5.210938-2.929688-7.070312-1.859375-1.871094-4.4375-2.929688-7.066406-2.929688-2.632813 0-5.210937 1.0625-7.070313 2.929688zm0 0"/><path d="m48.382812 400.082031c-2.628906 0-5.210937 1.070313-7.070312 2.929688s-2.929688 4.4375-2.929688 7.070312c0 2.636719 1.070313 5.207031 2.929688 7.066407 1.859375 1.871093 4.441406 2.929687 7.070312 2.929687 2.640626 0 5.210938-1.058594 7.070313-2.929687 1.867187-1.859376 2.929687-4.429688 2.929687-7.066407 0-2.632812-1.0625-5.210937-2.929687-7.070312-1.859375-1.859375-4.429687-2.929688-7.070313-2.929688zm0 0"/></svg>