<svg height="512pt" viewBox="0 -20 512.0005 512" width="512pt" xmlns="http://www.w3.org/2000/svg"><path d="m217.605469 400.195312c-2.640625 0-5.210938 1.070313-7.074219 2.933594-1.859375 1.859375-2.929688 4.441406-2.929688 7.070313 0 2.632812 1.070313 5.214843 2.929688 7.074219 1.863281 1.859374 4.445312 2.933593 7.074219 2.933593 2.632812 0 5.214843-1.070312 7.074219-2.933593 1.859374-1.859376 2.929687-4.441407 2.929687-7.074219 0-2.628907-1.070313-5.210938-2.929687-7.070313-1.859376-1.863281-4.441407-2.933594-7.074219-2.933594zm0 0"/><path d="m509.839844 149.578125c-1.898438-2.394531-4.789063-3.792969-7.84375-3.792969h-66.394532v-46.738281c0-16.546875-13.464843-30.011719-30.015624-30.011719-16.382813 0-29.730469 13.195313-30 29.511719h-72.6875c-2.105469 0-4.058594.65625-5.671876 1.769531-3.410156-1.136718-7.046874-1.757812-10.804687-1.757812h-48.8125c-20.394531 0-40.898437-4.398438-61.046875-13.0625 10.191406-8.957032 16.640625-22.070313 16.640625-36.671875 0-26.921875-21.902344-48.824219-48.824219-48.824219s-48.828125 21.902344-48.828125 48.824219c0 16 7.738281 30.226562 19.664063 39.136719-13.820313 9.972656-22.84375 26.203124-22.84375 44.511718v82.738282c0 8.417968 2.445312 16.269531 6.652344 22.90625h-15.234376c-16.546874 0-30.011718 13.464843-30.011718 30.015624 0 4.625 1.054687 9.011719 2.933594 12.933594-1.8125 1.808594-2.933594 4.3125-2.933594 7.074219v37.242187c-31.757813 15.042969-53.777344 47.40625-53.777344 84.816407 0 5.527343 4.480469 10.007812 10.003906 10.007812h22.578125c4.800781 29.460938 30.417969 52.023438 61.214844 52.023438s56.410156-22.5625 61.210937-52.023438h22.578126c5.527343 0 10.003906-4.480469 10.003906-10.007812 0-51.71875-42.074219-93.792969-93.792969-93.792969-6.867187 0-13.5625.746094-20.011719 2.15625v-20.417969h128.332032l45.125 77.089844c1.792968 3.066406 5.082031 4.953125 8.632812 4.953125h72.84375c-2.476562 6.328125-4.199219 13.035156-5.042969 20.007812h-66.054687c-5.523438 0-10.003906 4.480469-10.003906 10.003907 0 5.527343 4.480468 10.007812 10.003906 10.007812h86.753906c4.800781 29.460938 30.414062 52.023438 61.210938 52.023438 34.203124 0 62.03125-27.828125 62.03125-62.03125 0-13.179688-4.097657-25.730469-11.667969-36.210938l8.003906-8.003906c3.90625-3.90625 3.90625-10.242187 0-14.148437-8.210937-8.207032-17.851563-14.453126-28.351563-18.546876v-82.453124h46.386719c4.640625 0 8.671875-3.191407 9.738281-7.710938l20.007813-85.042969c.699219-2.976562 0-6.105469-1.894531-8.503906zm-416.042969 302.644531c-19.722656 0-36.308594-13.664062-40.808594-32.015625h81.613281c-4.5 18.351563-21.082031 32.015625-40.804687 32.015625zm73.109375-52.027344h-146.21875c4.894531-35.972656 35.816406-63.78125 73.109375-63.78125s68.214844 27.808594 73.109375 63.78125zm208.664062-254.410156h-57.894531c2.28125-5.167968 3.269531-10.890625 2.761719-16.632812-.328125-3.742188-1.296875-7.304688-2.792969-10.59375h57.925781zm-231.191406-125.773437c15.886719 0 28.816406 12.925781 28.816406 28.8125 0 15.890625-12.929687 28.816406-28.816406 28.816406-15.890625 0-28.816406-12.925781-28.816406-28.816406 0-15.886719 12.925781-28.8125 28.816406-28.8125zm2.863282 77.601562c5.207031 0 10.210937 1.117188 14.867187 3.320313 24.730469 11.703125 50.128906 17.636718 75.496094 17.636718h48.816406c7.289063 0 13.472656 5.421876 14.085937 12.339844.34375 3.894532-.90625 7.605469-3.511718 10.453125-2.613282 2.851563-6.179688 4.421875-10.042969 4.421875h-94.84375c-5.527344 0-10.007813 4.480469-10.007813 10.003906v42.308594h-69.71875v-65.625c0-19.222656 15.636719-34.859375 34.859376-34.859375zm-34.671876 120.492188h125.308594c10.234375 0 19.40625 6.097656 23.386719 15.582031l42.894531 100.777344c2.539063 5.976562-.011718 12.9375-5.8125 15.855468-3.121094 1.570313-6.636718 1.753907-9.902344.519532-3.269531-1.234375-5.789062-3.699219-7.089843-6.941406l-39.957031-99.503907c-1.523438-3.792969-5.199219-6.277343-9.285157-6.277343h-54.777343c-.585938 0-1.15625.0625-1.714844.160156-1.25-.09375-2.511719-.160156-3.785156-.160156h-36.546876c-11.652343 0-21.289062-8.742188-22.71875-20.011719zm-28.78125 60.03125c-5.515624 0-10.003906-4.488281-10.003906-10.003907 0-5.519531 4.488282-10.007812 10.003906-10.007812h88.042969c13.046875 0 24.171875 8.363281 28.300781 20.011719zm137.535157 13.214843c.339843-1.007812.535156-2.085937.535156-3.210937 0-11.253906-3.738281-21.648437-10.03125-30.015625h13.523437l37.4375 93.226562c1.296876 3.234376 3.109376 6.207032 5.324219 8.824219h-6.5zm96.167969 68.824219c7.644531-9.074219 9.984374-22.011719 5.078124-33.546875l-42.875-100.730468c-7.085937-16.886719-23.5-27.800782-41.816406-27.800782h-35.765625v-32.300781h173.457031v50.308594c0 5.523437 4.480469 10.003906 10.007813 10.003906 5.523437 0 10.003906-4.480469 10.003906-10.003906v-117.058594c0-5.515625 4.488281-10.003906 10.003907-10.003906 5.515624 0 10.003906 4.488281 10.003906 10.003906v227.113281h-20.007813v-30.015625c0-5.523437-4.480469-10.003906-10.003906-10.003906-5.527344 0-10.007813 4.480469-10.007813 10.003906v37.191407c-14.183593 5.554687-26.464843 14.917968-35.578124 26.839843zm130.113281 50.023438c0 23.171875-18.847657 42.023437-42.019531 42.023437-19.722657 0-36.304688-13.664062-40.808594-32.015625h40.808594c2.652343 0 5.199218-1.054687 7.074218-2.933593l28.867188-28.867188c3.960937 6.503906 6.078125 13.984375 6.078125 21.792969zm-12.285157-43.882813c-.007812.007813-.015624.015625-.023437.019532-.007813.007812-.011719.015624-.019531.023437l-33.835938 33.835937h-57.585937c4.804687-29.738281 30.65625-52.523437 61.730469-52.523437 13.320312 0 26 4.132813 36.578124 11.796875zm38.742188-135.488281h-38.460938v-65.03125h53.761719zm0 0"/><path d="m385.578125 266.128906c2.632813 0 5.210937-1.070312 7.074219-2.929687 1.859375-1.863281 2.929687-4.441407 2.929687-7.074219s-1.070312-5.210938-2.929687-7.074219c-1.863282-1.859375-4.441406-2.929687-7.074219-2.929687s-5.210937 1.070312-7.074219 2.929687c-1.867187 1.863281-2.929687 4.441407-2.929687 7.074219s1.0625 5.210938 2.929687 7.074219c1.863282 1.859375 4.433594 2.929687 7.074219 2.929687zm0 0"/></svg>