<svg height="512pt" viewBox="-54 0 512 512" width="512pt" xmlns="http://www.w3.org/2000/svg"><path d="m379.292969 90.804688c-2.777344-4.773438-8.898438-6.390626-13.671875-3.613282-4.773438 2.78125-6.390625 8.902344-3.609375 13.675782 11.148437 19.152343 18.21875 40.445312 20.824219 62.449218-14.371094-7.402344-30.4375-11.359375-46.757813-11.359375-16.652344 0-33.070313 4.132813-47.683594 11.84375-1.402343-40.082031-7.292969-77.335937-16.949219-106.425781-4.503906-13.570312-9.640624-24.816406-15.320312-33.660156 19.050781 4.136718 37.238281 11.6875 53.75 22.414062 4.632812 3.007813 10.824219 1.691406 13.832031-2.9375 3.011719-4.632812 1.695313-10.824218-2.9375-13.835937-29.558593-19.203125-63.898437-29.355469-99.300781-29.355469-100.605469 0-182.472656 81.847656-182.5 182.453125 0 3.855469 2.214844 7.371094 5.695312 9.03125 3.480469 1.65625 7.605469 1.167969 10.601563-1.261719 14.746094-11.949218 32.585937-18.269531 51.59375-18.269531 18.050781 0 35.066406 5.726563 49.371094 16.550781 1.824219 2.421875 4.714843 3.996094 7.984375 3.996094 3.34375 0 6.296875-1.648438 8.113281-4.171875 11.578125-8.699219 24.917969-14.0625 39.140625-15.773437v103.664062c0 18.792969 15.292969 34.082031 34.085938 34.082031 18.792968 0 34.082031-15.289062 34.082031-34.082031v-9.21875c0-5.523438-4.476563-10-10-10-5.523438 0-10 4.476562-10 10v9.21875c0 7.765625-6.316407 14.082031-14.082031 14.082031-7.769532 0-14.085938-6.316406-14.085938-14.082031v-103.660156c14.222656 1.707031 27.566406 7.070312 39.144531 15.773437 1.816407 2.519531 4.769531 4.167969 8.113281 4.167969 3.265626 0 6.15625-1.574219 7.984376-3.996094 14.300781-10.824218 31.320312-16.550781 49.367187-16.550781 19.011719 0 36.851563 6.320313 51.59375 18.273437 1.816406 1.472657 4.046875 2.230469 6.300781 2.230469 1.460938 0 2.929688-.320312 4.300782-.972656 3.480468-1.660156 5.699218-5.175781 5.695312-9.03125-.007812-32.242187-8.539062-63.933594-24.675781-91.648437zm-157.824219 61.148437c-16.355469 0-32.484375 3.996094-46.898438 11.449219 1.394532-37.773438 6.917969-72.648438 15.90625-99.726563 10.6875-32.203125 23.015626-43.675781 30.992188-43.675781s20.308594 11.472656 30.996094 43.675781c8.988281 27.078125 14.511718 61.953125 15.90625 99.726563-14.414063-7.453125-30.542969-11.449219-46.902344-11.449219zm-161.375 11.367187c8.160156-69.0625 59.804688-124.996093 126.710938-139.59375-5.675782 8.84375-10.808594 20.082032-15.3125 33.648438-9.65625 29.089844-15.546876 66.339844-16.949219 106.425781-14.609375-7.710937-31.027344-11.847656-47.683594-11.847656-16.320313 0-32.386719 3.960937-46.765625 11.367187zm0 0"/><path d="m346.320312 73.464844c2.40625 0 4.820313-.863282 6.738282-2.613282 4.082031-3.726562 4.367187-10.050781.644531-14.128906-.050781-.054687-.164063-.175781-.214844-.226562-3.8125-3.996094-10.132812-4.136719-14.128906-.328125-3.984375 3.800781-4.140625 10.109375-.363281 14.105469 1.96875 2.117187 4.640625 3.191406 7.324218 3.191406zm0 0"/><path d="m223.695312 391.53125c-8.277343-15.203125-24.175781-24.648438-41.484374-24.648438h-20.925782v-12.648437h22.316406c15.597657 0 28.285157-12.6875 28.285157-28.285156 0-15.59375-12.6875-28.28125-28.285157-28.28125h-22.863281c-1.378906-8.039063-5.351562-15.511719-11.351562-21.164063 8.34375-7.257812 13.636719-17.9375 13.636719-29.839844 0-21.808593-17.746094-39.550781-39.554688-39.550781s-39.550781 17.742188-39.550781 39.550781c0 11.949219 5.332031 22.667969 13.734375 29.929688-7.382813 7.03125-11.996094 17.007812-11.996094 27.945312v10.425782c-48.679688 6.503906-85.65625 48.023437-85.65625 98.074218 0 54.566407 44.394531 98.960938 98.960938 98.960938 21.773437 0 42.425781-6.933594 59.734374-20.054688 13.171876-9.984374 23.691407-23.28125 30.480469-38.253906l24.675781 43.171875c5.394532 9.433594 15.382813 14.816407 25.671876 14.816407 4.261718 0 8.582031-.925782 12.640624-2.871094 7.277344-3.488282 12.871094-9.894532 15.351563-17.570313s1.6875-16.140625-2.167969-23.222656zm-100.226562-164.417969c10.78125 0 19.554688 8.769531 19.554688 19.550781 0 10.785157-8.773438 19.554688-19.554688 19.554688s-19.550781-8.773438-19.550781-19.554688c0-10.777343 8.769531-19.550781 19.550781-19.550781zm0 203.390625h12.527344c-6.585938 14.070313-20.816406 23.480469-37.070313 23.480469-22.574219 0-40.941406-18.363281-40.941406-40.9375 0-17.828125 11.527344-33.1875 27.671875-38.730469v18.371094c0 20.851562 16.964844 37.816406 37.8125 37.816406zm51.214844 5.007813c-9.855469 33.257812-40.992188 56.488281-75.71875 56.488281-43.542969 0-78.964844-35.421875-78.964844-78.960938 0-39.011718 28.15625-71.511718 65.65625-77.832031v18.363281c-27.371094 6.09375-47.667969 30.613282-47.667969 59.476563 0 33.601563 27.335938 60.9375 60.9375 60.9375 27.335938 0 50.820313-17.894531 58.398438-43.480469h18.597656l.765625 1.339844c-.890625 1.039062-1.589844 2.269531-2.003906 3.667969zm73.800781 49.578125c-.8125 2.519531-2.578125 4.539062-4.964844 5.683594-4.449219 2.132812-9.855469.449218-12.300781-3.835938l-40.8125-71.398438c-1.78125-3.113281-5.09375-5.035156-8.683594-5.035156h-58.253906c-9.820312 0-17.8125-7.992187-17.8125-17.8125v-88.152344c0-9.5625 7.21875-17.585937 16.433594-18.269531.460937-.035156.921875-.050781 1.378906-.050781 4.527344 0 8.789062 1.660156 12.121094 4.753906 3.671875 3.414063 5.695312 8.050782 5.695312 13.058594v3.636719c0 5.519531 4.476563 10 10 10h32.316406c4.570313 0 8.285157 3.714843 8.285157 8.28125 0 4.570312-3.714844 8.285156-8.285157 8.285156h-32.316406c-5.523437 0-10 4.476563-10 10v32.648437c0 5.523438 4.476563 10 10 10h30.925782c9.980468 0 19.144531 5.445313 23.921874 14.210938l41.648438 76.484375c1.269531 2.324219 1.519531 4.992187.703125 7.511719zm0 0"/></svg>