<svg height="512pt" viewBox="-50 0 512 512" width="512pt" xmlns="http://www.w3.org/2000/svg"><path d="m401.949219 151.5625c-5.523438 0-10 4.476562-10 9.996094v13.75c-3.59375-1.382813-7.507813-2.144532-11.609375-2.144532h-22.808594c-3.191406 0-6.40625-.15625-9.554688-.464843-23.851562-2.328125-43.703124-20.269531-49.394531-44.636719-1.039062-4.445312-2.695312-8.625-4.859375-12.457031 20.988282-5.355469 36.554688-24.417969 36.554688-47.050781 0-26.777344-21.78125-48.558594-48.554688-48.558594-26.777344 0-48.558594 21.78125-48.558594 48.558594 0 9.199218 2.574219 17.808593 7.035157 25.148437-12.457031 3.601563-23.230469 12.292969-29.125 24.296875-5.519531 11.234375-10.101563 22.941406-13.746094 34.933594-5.011719-3.628906-11.09375-5.890625-17.667969-6.164063l-23.410156-.972656c-8.15625-.339844-16.214844-1.65625-23.953125-3.917969-16.265625-4.753906-30.089844-16.882812-37.929687-33.277344-2.757813-5.765624-6.578126-10.84375-11.15625-15.046874 14.921874-8.707032 24.976562-24.878907 24.976562-43.367188-.003906-27.671875-22.519531-50.1875-50.191406-50.1875-27.675782 0-50.191406 22.515625-50.191406 50.191406 0 14.714844 6.363281 27.96875 16.488281 37.160156-14.53125 8.660157-24.292969 24.527344-24.292969 42.636719v132.96875c0 18.90625 5.433594 37.292969 15.710938 53.164063l8.285156 12.804687v173.027344c0 5.523437 4.476562 10 10 10h75.214844c5.523437 0 10-4.476563 10-10 0-16.320313-7.863282-30.839844-20-39.96875 0-.011719 0-.019531 0-.027344v-264.476562c17.226562 6.992187 35.460937 10.921875 54.40625 11.710937l23.976562.996094c3.382812.132812 6.699219-.261719 9.855469-1.136719-.207031 4.011719-.328125 8.03125-.328125 12.046875v35.285156c0 17.292969 3.632812 34.285157 10.429687 49.902344l-11.050781 60.453125-45.472656 58.53125c-.003906.003907-.003906.007813-.007813.011719-.175781.230469-.34375.476562-.503906.726562-.03125.046876-.066406.089844-.09375.136719-.003906.003907-.003906.003907-.007813.007813l-17.769531 28.789062c-2.039062 3.304688-2.667969 7.207032-1.777343 10.984375.894531 3.777344 3.207031 6.980469 6.511718 9.019531l57.542969 35.515626c1.636719 1.011718 3.449219 1.492187 5.242187 1.492187 3.351563 0 6.625-1.6875 8.515626-4.75 9.035156-14.636719 9.292968-32.25 2.253906-46.671875l19.679687-22.160156-3.054687 23.945312c-.003906.039063-.003906.074219-.007813.109375-.023437.199219-.03125.398438-.042969.601563-.007812.152344-.023437.304687-.023437.457031 0 .03125-.003906.0625-.003906.097656v38.371094c0 5.523437 4.476562 10 9.996093 10h72.15625c5.523438 0 10-4.476563 10-10 0-15.648437-7.476562-29.582031-19.042968-38.425781l15.375-93.394532c3.066406-18.628906 1.671875-37.988281-4.039063-55.984374l-18.816406-59.3125v-37.945313c22.753906 12.132813 48.160156 18.480469 74.421875 18.480469h23.3125c3.863281 0 7.609375-.703125 11.105469-2.035156v228.527343c0 5.523438 4.476562 10 9.996093 10 5.523438 0 10-4.476562 10-10v-300.304687c0-5.519532-4.476562-9.996094-9.996093-9.996094zm-343.953125-131.5625c16.648437 0 30.191406 13.542969 30.191406 30.191406 0 16.644532-13.542969 30.191406-30.191406 30.191406-16.648438 0-30.195313-13.542968-30.195313-30.191406 0-16.648437 13.546875-30.191406 30.195313-30.191406zm-14 471.953125v-19.996094h25.21875c13.035156 0 24.15625 8.359375 28.285156 19.996094zm0-39.996094v-125.988281c0-1.925781-.558594-3.8125-1.605469-5.433594l-9.894531-15.28125c-8.175782-12.628906-12.496094-27.253906-12.496094-42.296875v-6.980469h59.210938v195.980469zm134.425781-261.75-23.972656-.996093c-21.425781-.890626-41.808594-6.355469-60.578125-16.242188-.066406-.035156-.136719-.058594-.203125-.089844-6.675781-3.53125-13.121094-7.625-19.171875-12.191406-4.40625-3.328125-10.675782-2.453125-14.003906 1.953125-3.328126 4.40625-2.453126 10.675781 1.957031 14.003906 5.34375 4.039063 10.964843 7.753907 16.765625 11.097657v48.234374h-59.214844v-105.988281c0-16.324219 13.28125-29.605469 29.605469-29.605469 11.339843 0 21.824219 6.613282 26.722656 16.851563 10.289063 21.515625 28.644531 37.496094 50.359375 43.84375 9.292969 2.714844 18.960938 4.296875 28.734375 4.703125l23.410156.972656c6.558594.273438 11.855469 5.574219 11.804688 11.816406-.023438 3.21875-1.316407 6.203126-3.640625 8.414063-2.324219 2.210937-5.367188 3.347656-8.574219 3.222656zm103.300781-150.210937c15.746094 0 28.558594 12.8125 28.558594 28.558594 0 15.75-12.8125 28.558593-28.558594 28.558593-15.75 0-28.558594-12.808593-28.558594-28.558593 0-15.746094 12.808594-28.558594 28.558594-28.558594zm-96.355468 447.242187-42.835938-26.4375 9.648438-15.636719 20.242187 12.492188c10.320313 6.371094 15.132813 18.328125 12.945313 29.582031zm3.390624-43.113281-25.085937-15.402344 40.121094-51.644531c.984375-1.269531 1.648437-2.757813 1.9375-4.335937l7.332031-40.117188c4.105469 5.347656 8.644531 10.390625 13.613281 15.046875l4.914063 4.601563-6.496094 50.933593zm48.71875 47.828125v-18.371094h23.789063c12.125 0 22.5 7.648438 26.550781 18.371094zm48.757813-125.066406-14.273437 86.699219h-33.125l5.699218-44.707032c0-.011718 0-.023437.003906-.035156l7.535157-59.105469c.40625-3.183593-.742188-6.367187-3.082031-8.5625l-8.640626-8.097656c-18.675781-17.503906-30.300781-41.386719-32.746093-66.695313h58.1875l17.074219 53.8125c4.757812 15.007813 5.925781 31.152344 3.367187 46.691407zm102.601563-154.910157c-2.113282 2.1875-4.949219 3.394532-7.992188 3.394532h-23.308594c-28.335937 0-55.511718-8.4375-78.589844-24.410156-.039062-.027344-.078124-.042969-.117187-.070313-6.835937-4.738281-13.316406-10.152344-19.257813-16.097656-3.902343-3.902344-10.234374-3.902344-14.140624 0-3.90625 3.90625-3.90625 10.234375 0 14.140625 5.519531 5.523437 11.457031 10.640625 17.683593 15.277344v.132812 42.042969h-55.996093v-25.285157c0-32.507812 7.574218-65.105468 21.90625-94.28125 4.855468-9.886718 15.492187-15.851562 26.457031-14.84375 11.492187 1.054688 20.988281 9.351563 23.628906 20.640626 7.640625 32.714843 34.539063 56.824218 66.925781 59.988281 3.789063.371093 7.660156.558593 11.5.558593h22.804688c6.191406 0 11.394531 4.796876 11.605468 10.691407.105469 3.050781-1 5.933593-3.109374 8.121093zm0 0"/><path d="m401.949219 491.953125c-5.523438 0-10 4.480469-10 10v.09375c0 5.523437 4.476562 9.953125 10 9.953125 5.519531 0 9.996093-4.523438 9.996093-10.046875s-4.476562-10-9.996093-10zm0 0"/></svg>