<svg height="512pt" viewBox="0 0 511 512" width="512pt" xmlns="http://www.w3.org/2000/svg"><path d="m49.222656 463.164062c-3.914062-3.894531-10.246094-3.875-14.140625.042969-3.890625 3.917969-3.871093 10.246094.046875 14.140625l.234375.234375c1.949219 1.9375 4.5 2.90625 7.046875 2.90625 2.570313 0 5.140625-.984375 7.09375-2.949219 3.890625-3.917968 3.871094-10.25-.042968-14.140624zm0 0"/><path d="m156.726562 393.730469c0-20.929688-17.027343-37.957031-37.957031-37.957031-20.925781 0-37.953125 17.027343-37.953125 37.957031 0 20.925781 17.027344 37.953125 37.953125 37.953125 20.929688 0 37.957031-17.027344 37.957031-37.953125zm-55.914062 0c0-9.902344 8.054688-17.960938 17.957031-17.960938 9.902344 0 17.957031 8.058594 17.957031 17.960938 0 9.898437-8.054687 17.957031-17.957031 17.957031-9.902343 0-17.957031-8.058594-17.957031-17.957031zm0 0"/><path d="m502.40625 0h-348.519531c-5.523438 0-10 4.476562-10 10v123.199219c-20.078125 4.5625-35.113281 22.542969-35.113281 43.980469 0 14.136718 6.539062 26.769531 16.746093 35.046874-1.46875 1.160157-2.886719 2.398438-4.234375 3.746094-8.953125 8.9375-14.089844 21.234375-14.089844 33.738282v26.3125c-7.027343.6875-13.878906 1.988281-20.496093 3.851562v-48.800781c0-5.523438-4.476563-10-9.996094-10h-48.730469c-15.148437 0-27.472656 12.324219-27.472656 27.472656s12.324219 27.46875 27.472656 27.46875h38.730469v11.539063c-39.179687 19.289062-66.203125 59.632812-66.203125 106.175781 0 16.242187 3.238281 31.988281 9.621094 46.789062 2.1875 5.074219 8.070312 7.410157 13.140625 5.226563 5.066406-2.1875 7.40625-8.070313 5.21875-13.140625-5.296875-12.292969-7.984375-25.371094-7.984375-38.875 0-54.191407 44.085937-98.277344 98.273437-98.277344s98.277344 44.085937 98.277344 98.277344c0 54.1875-44.085937 98.273437-98.277344 98.273437-13.535156 0-26.644531-2.699218-38.957031-8.023437-5.066406-2.191407-10.953125.144531-13.144531 5.210937-2.191407 5.070313.140625 10.953125 5.207031 13.144532 14.835938 6.414062 30.613281 9.664062 46.894531 9.664062 38.550781 0 72.847657-18.542969 94.457031-47.175781h39.820313c-1.847656 4.15625-2.882813 8.753906-2.882813 13.589843 0 18.519532 15.066407 33.585938 33.585938 33.585938s33.585938-15.066406 33.585938-33.585938c0-4.835937-1.035157-9.433593-2.882813-13.589843h12.925781c5.523438 0 10-4.476563 10-10v-6.042969c0-18.054688-12.949218-33.144531-30.050781-36.46875l-25.199219-64.761719c-8.375-21.515625-28.707031-35.421875-51.800781-35.421875h-25.59375c-.136719 0-.273437.015625-.410156.019532-1.222657-1.28125-2.476563-2.527344-3.75-3.753907v-20.945312c18.039062 1.03125 36.222656-1.976563 53.183593-8.878907 6.285157-2.554687 11.203126-7.113281 14.28125-12.617187h234.363282c5.523437 0 10-4.480469 10-10v-245.953125c.003906-5.523438-4.472656-10-9.996094-10zm-474.4375 256.023438c-4.121094 0-7.472656-3.355469-7.472656-7.476563s3.351562-7.472656 7.472656-7.472656h38.734375v14.945312h-38.734375zm125.917969-103.957032c13.847656 0 25.117187 11.269532 25.117187 25.117188s-11.269531 25.117187-25.117187 25.117187c-13.851563 0-25.117188-11.269531-25.117188-25.117187 0-13.851563 11.265625-25.117188 25.117188-25.117188zm83.15625 241.664063c0-1.269531-.027344-2.53125-.070313-3.789063l24.921875 54.886719h-36.472656c7.445313-15.476563 11.621094-32.808594 11.621094-51.097656zm60.296875 84.683593c0 7.492188-6.097656 13.589844-13.589844 13.589844s-13.589844-6.097656-13.589844-13.589844c0-7.492187 6.097656-13.589843 13.589844-13.589843s13.589844 6.097656 13.589844 13.589843zm-67.007813-146.289062c14.785157 0 27.800781 8.902344 33.164063 22.679688l27.414062 70.453124c1.496094 3.839844 5.195313 6.371094 9.316406 6.371094 8.101563 0 14.90625 5.640625 16.695313 13.199219h-33.066406l-33.761719-74.359375c-1.621094-3.570312-5.179688-5.867188-9.101562-5.867188h-7.582032c-2.949218-11.597656-7.617187-22.519531-13.714844-32.472656h10.636719zm15.898438-72.074219c-17.230469 7.007813-35.945313 9.226563-54.125 6.421875-2.886719-.445312-5.820313.390625-8.035157 2.289063-2.214843 1.902343-3.488281 4.671875-3.488281 7.589843v16.582032c-15.75-9.691406-33.925781-15.796875-53.390625-17.171875v-26.046875c0-7.234375 2.996094-14.375 8.222656-19.589844 5.054688-5.050781 11.617188-7.828125 18.476563-7.828125h.039063c7.519531.011719 14.472656 3.066406 19.574218 8.597656 16.296875 17.667969 41.410156 23.710938 63.984375 15.390625 1.066407-.394531 2.128907-.808594 3.1875-1.246094 2.003907-.828124 4.210938-.8125 6.207031.039063 1.996094.855469 3.527344 2.449219 4.3125 4.480469 1.5625 4.035156-.667968 8.742187-4.964843 10.492187zm246.179687-14.097656h-217.757812l86.550781-86.546875c3.902344-3.902344 3.902344-10.234375 0-14.140625-3.90625-3.902344-10.238281-3.902344-14.140625 0l-85.542969 85.539063c-2.019531-1.65625-4.285156-3.046876-6.761719-4.105469-6.988281-2.996094-14.699218-3.042969-21.71875-.144531-.820312.339843-1.644531.664062-2.472656.96875-14.945312 5.511718-31.574218 1.507812-42.367187-10.1875-1.773438-1.925782-3.707031-3.675782-5.753907-5.257813 10.097657-8.28125 16.554688-20.847656 16.554688-34.894531 0-21.441406-15.039062-39.421875-35.117188-43.984375v-113.203125h328.527344zm0 0"/><path d="m210.121094 73.988281h97.21875c5.519531 0 9.996094-4.480469 9.996094-10s-4.476563-10-9.996094-10h-97.21875c-5.523438 0-9.996094 4.480469-9.996094 10s4.472656 10 9.996094 10zm0 0"/><path d="m210.121094 121.972656c2.628906 0 5.210937-1.058594 7.070312-2.929687 1.859375-1.859375 2.929688-4.4375 2.929688-7.066407 0-2.628906-1.070313-5.210937-2.929688-7.070312s-4.441406-2.929688-7.070312-2.929688-5.207032 1.070313-7.066406 2.929688c-1.863282 1.863281-2.929688 4.441406-2.929688 7.070312 0 2.640626 1.066406 5.207032 2.929688 7.066407 1.859374 1.871093 4.4375 2.929687 7.066406 2.929687zm0 0"/><path d="m282.78125 149.972656h-44.324219c-5.523437 0-10 4.476563-10 9.996094 0 5.523438 4.476563 10 10 10h44.324219c5.523438 0 10-4.476562 10-10 0-5.519531-4.476562-9.996094-10-9.996094zm0 0"/><path d="m351.199219 73.988281h97.21875c5.523437 0 9.996093-4.480469 9.996093-10s-4.472656-10-9.996093-10h-97.21875c-5.519531 0-9.996094 4.480469-9.996094 10s4.476563 10 9.996094 10zm0 0"/><path d="m448.417969 101.980469h-198.304688c-5.519531 0-9.996093 4.476562-9.996093 10 0 5.519531 4.476562 9.996093 9.996093 9.996093h198.304688c5.523437 0 9.996093-4.476562 9.996093-9.996093 0-5.523438-4.472656-10-9.996093-10zm0 0"/><path d="m448.417969 149.972656h-30.328125c-5.523438 0-9.996094 4.476563-9.996094 9.996094 0 5.523438 4.472656 10 9.996094 10h30.328125c5.523437 0 9.996093-4.476562 9.996093-10 0-5.519531-4.472656-9.996094-9.996093-9.996094zm0 0"/></svg>