<svg height="512pt" viewBox="0 0 512 512" width="512pt" xmlns="http://www.w3.org/2000/svg"><path d="m156.460938 0c-86.273438 0-156.460938 70.1875-156.460938 156.460938v59.667968c0 5.519532 4.476562 10 10 10s10-4.480468 10-10v-59.667968c0-59.621094 38.433594-110.425782 91.824219-128.957032v140.839844l-15.925781 2.992188c-14.902344 2.796874-25.71875 15.832031-25.71875 30.996093v107.335938c0 15.160156 10.816406 28.199219 25.71875 30.996093l15.925781 2.992188v140.839844c-53.390625-18.535156-91.824219-69.339844-91.824219-128.957032v-63.453124c0-5.523438-4.476562-10-10-10s-10 4.476562-10 10v63.453124c0 86.273438 70.1875 156.460938 156.460938 156.460938 17.390624 0 31.539062-14.148438 31.539062-31.539062v-116.679688c0-15.164062-10.816406-28.199219-25.714844-30.996094l-62.695312-11.777344c-5.453125-1.023437-9.40625-5.792968-9.40625-11.339843v-107.335938c0-5.546875 3.957031-10.316406 9.40625-11.339843l62.691406-11.777344c14.902344-2.796875 25.71875-15.832032 25.71875-30.996094v-116.679688c0-17.390624-14.148438-31.539062-31.539062-31.539062zm11.539062 363.78125v116.679688c0 6.363281-5.175781 11.539062-11.539062 11.539062-8.410157 0-16.640626-.769531-24.636719-2.234375v-142.351563l26.769531 5.027344c5.449219 1.023438 9.40625 5.792969 9.40625 11.339844zm0-215.5625c0 5.546875-3.957031 10.316406-9.410156 11.339844l-26.765625 5.027344v-142.351563c7.996093-1.464844 16.226562-2.234375 24.636719-2.234375 6.363281 0 11.539062 5.175781 11.539062 11.539062zm0 0"/><path d="m10 266.128906c2.628906 0 5.210938-1.070312 7.070312-2.929687 1.859376-1.871094 2.929688-4.4375 2.929688-7.070313 0-2.628906-1.070312-5.207031-2.929688-7.070312-1.859374-1.867188-4.441406-2.929688-7.070312-2.929688s-5.210938 1.0625-7.070312 2.929688c-1.859376 1.863281-2.929688 4.441406-2.929688 7.070312 0 2.632813 1.070312 5.199219 2.929688 7.070313 1.859374 1.859375 4.441406 2.929687 7.070312 2.929687zm0 0"/><path d="m502 20h-56c-5.523438 0-10 4.476562-10 10v56c0 5.523438 4.476562 10 10 10h56c5.523438 0 10-4.476562 10-10v-56c0-5.523438-4.476562-10-10-10zm-10 56h-36v-36h36zm0 0"/><path d="m342 96h56c5.523438 0 10-4.476562 10-10v-56c0-5.523438-4.476562-10-10-10h-56c-5.523438 0-10 4.476562-10 10v56c0 5.523438 4.476562 10 10 10zm10-56h36v36h-36zm0 0"/><path d="m238 96h56c5.523438 0 10-4.476562 10-10v-56c0-5.523438-4.476562-10-10-10h-56c-5.523438 0-10 4.476562-10 10v56c0 5.523438 4.476562 10 10 10zm10-56h36v36h-36zm0 0"/><path d="m502 124h-56c-5.523438 0-10 4.476562-10 10v56c0 5.523438 4.476562 10 10 10h56c5.523438 0 10-4.476562 10-10v-56c0-5.523438-4.476562-10-10-10zm-10 56h-36v-36h36zm0 0"/><path d="m342 200h56c5.523438 0 10-4.476562 10-10v-56c0-5.523438-4.476562-10-10-10h-56c-5.523438 0-10 4.476562-10 10v56c0 5.523438 4.476562 10 10 10zm10-56h36v36h-36zm0 0"/><path d="m238 200h56c5.523438 0 10-4.476562 10-10v-56c0-5.523438-4.476562-10-10-10h-56c-5.523438 0-10 4.476562-10 10v56c0 5.523438 4.476562 10 10 10zm10-56h36v36h-36zm0 0"/><path d="m502 228h-56c-5.523438 0-10 4.476562-10 10v56c0 5.523438 4.476562 10 10 10h56c5.523438 0 10-4.476562 10-10v-56c0-5.523438-4.476562-10-10-10zm-10 56h-36v-36h36zm0 0"/><path d="m342 304h56c5.523438 0 10-4.476562 10-10v-56c0-5.523438-4.476562-10-10-10h-56c-5.523438 0-10 4.476562-10 10v56c0 5.523438 4.476562 10 10 10zm10-56h36v36h-36zm0 0"/><path d="m238 304h56c5.523438 0 10-4.476562 10-10v-56c0-5.523438-4.476562-10-10-10h-56c-5.523438 0-10 4.476562-10 10v56c0 5.523438 4.476562 10 10 10zm10-56h36v36h-36zm0 0"/><path d="m502 332h-56c-5.523438 0-10 4.476562-10 10v56c0 5.523438 4.476562 10 10 10h56c5.523438 0 10-4.476562 10-10v-56c0-5.523438-4.476562-10-10-10zm-10 56h-36v-36h36zm0 0"/><path d="m342 408h56c5.523438 0 10-4.476562 10-10v-56c0-5.523438-4.476562-10-10-10h-56c-5.523438 0-10 4.476562-10 10v56c0 5.523438 4.476562 10 10 10zm10-56h36v36h-36zm0 0"/><path d="m238 408h56c5.523438 0 10-4.476562 10-10v-56c0-5.523438-4.476562-10-10-10h-56c-5.523438 0-10 4.476562-10 10v56c0 5.523438 4.476562 10 10 10zm10-56h36v36h-36zm0 0"/><path d="m362.929688 434.929688c-1.859376 1.859374-2.929688 4.441406-2.929688 7.070312s1.070312 5.210938 2.929688 7.070312c1.859374 1.859376 4.441406 2.929688 7.070312 2.929688s5.210938-1.070312 7.070312-2.929688c1.859376-1.859374 2.929688-4.441406 2.929688-7.070312s-1.070312-5.210938-2.929688-7.070312c-1.859374-1.859376-4.441406-2.929688-7.070312-2.929688s-5.210938 1.070312-7.070312 2.929688zm0 0"/><path d="m502 432h-92c-5.523438 0-10 4.476562-10 10s4.476562 10 10 10h82v20h-244v-20h82c5.523438 0 10-4.476562 10-10s-4.476562-10-10-10h-92c-5.523438 0-10 4.476562-10 10v40c0 5.523438 4.476562 10 10 10h264c5.523438 0 10-4.476562 10-10v-40c0-5.523438-4.476562-10-10-10zm0 0"/></svg>