<svg height="511pt" viewBox="-33 0 511 511.99997" width="511pt" xmlns="http://www.w3.org/2000/svg"><path d="m385.074219 138.828125c-37.894531-40.734375-89.125-65.589844-144.355469-70.078125l-30.199219-63.066406c-2.386719-4.980469-8.359375-7.085938-13.339843-4.699219-4.980469 2.382813-7.085938 8.355469-4.699219 13.335937l32.339843 67.535157-58.171874 16.46875-5.96875-12.464844c-.003907-.007813-.007813-.019531-.011719-.03125l-38.378907-80.144531c-2.386718-4.980469-8.359374-7.085938-13.339843-4.699219-4.980469 2.382813-7.082031 8.355469-4.699219 13.335937l33.691406 70.359376c-68.78125 28.363281-119.484375 90.0625-133.496094 163.445312-1.035156 5.425781 2.523438 10.660156 7.949219 11.695312.632813.121094 1.261719.183594 1.886719.183594 4.703125 0 8.894531-3.335937 9.8125-8.128906 12.816406-67.128906 59.398438-123.492188 122.511719-149.105469l3.792969 7.921875-15.070313 34.105469c-.835937 1.890625-1.503906 3.828125-2.035156 5.789063-47.777344 30.628906-76.292969 82.707031-76.292969 139.414062 0 91.257812 74.246094 165.5 165.5 165.5 91.257812 0 165.5-74.242188 165.5-165.5 0-29-7.613281-57.535156-22.011719-82.523438-11.941406-20.71875-28.328125-38.667968-47.789062-52.492187.527343-3.34375.164062-6.84375-1.191407-10.148437l-7.855468-19.175782c-4.066406-9.925781-11.578125-18.066406-21.144532-22.921875l-17.777343-9.023437c88.6875 21.648437 154.269531 102.371094 154.269531 196.285156 0 111.382812-90.617188 202-201.996094 202-96.835937 0-180.277344-68.921875-198.410156-163.875-1.035156-5.425781-6.277344-8.984375-11.699219-7.949219-5.421875 1.035157-8.980469 6.273438-7.945312 11.699219 19.925781 104.375 111.628906 180.125 218.050781 180.125 59.296875 0 115.046875-23.09375 156.976562-65.023438 41.929688-41.929687 65.023438-97.679687 65.023438-156.976562 0-56.292969-21.105469-109.980469-59.425781-151.171875zm-17.074219 151.171875c0 80.230469-65.273438 145.5-145.5 145.5-80.230469 0-145.5-65.269531-145.5-145.5 0-45.820312 21.1875-88.195312 57.226562-115.667969.523438 1.472657 1.128907 2.921875 1.832032 4.339844l14.867187 30.070313c6.785157 13.730468 20.515625 22.257812 35.832031 22.257812h71.40625c21.324219 0 38.667969-17.34375 38.667969-38.664062v-21.542969c2.738281.386719 5.523438.15625 8.167969-.65625 39.605469 27.210937 63 71.394531 63 119.863281zm-77.355469-156.753906 6.355469 15.515625c-.28125.203125-.554688.425781-.816406.664062-3.8125-1.097656-7.964844-.6875-11.535156 1.289063-4.820313 2.671875-7.816407 7.753906-7.816407 13.265625v28.355469c0 10.292968-8.375 18.667968-18.667969 18.667968h-71.40625c-7.652343 0-14.511718-4.265625-17.90625-11.125l-14.863281-30.070312c-2.632812-5.324219-2.765625-11.492188-.367187-16.925782l15.191406-34.382812 68.082031-19.277344 42.058594 21.351563c5.289063 2.683593 9.441406 7.183593 11.691406 12.671875zm0 0"/><path d="m10.53125 300.464844c5.523438-.015625 9.988281-4.507813 9.96875-10.03125v-.433594c0-5.519531-4.476562-10-10-10s-10 4.480469-10 10v.496094c.019531 5.515625 4.492188 9.96875 10 9.96875zm0 0"/><path d="m222.5 261.097656c-16.113281 0-29.222656 13.105469-29.222656 29.21875 0 16.113282 13.109375 29.21875 29.222656 29.21875 16.109375 0 29.21875-13.105468 29.21875-29.21875 0-16.113281-13.109375-29.21875-29.21875-29.21875zm0 38.4375c-5.085938 0-9.222656-4.136718-9.222656-9.21875 0-5.082031 4.136718-9.21875 9.222656-9.21875 5.082031 0 9.21875 4.136719 9.21875 9.21875 0 5.082032-4.136719 9.21875-9.21875 9.21875zm0 0"/><path d="m258.609375 378.441406c-5.109375 2.089844-7.5625 7.925782-5.472656 13.039063 1.585937 3.871093 5.320312 6.21875 9.261719 6.21875 1.257812 0 2.542968-.238281 3.78125-.746094 43.628906-17.835937 71.820312-59.816406 71.820312-106.953125 0-5.519531-4.476562-10-10-10s-10 4.480469-10 10c0 38.980469-23.3125 73.691406-59.390625 88.441406zm0 0"/><path d="m222.71875 385.5h-.21875c-5.523438 0-10 4.476562-10 10s4.476562 10 10 10h.21875c5.523438 0 10-4.476562 10-10s-4.476562-10-10-10zm0 0"/></svg>