<svg height="512pt" viewBox="0 0 512 512.00019" width="512pt" xmlns="http://www.w3.org/2000/svg"><path d="m93.058594 492c-2.628906 0-5.210938 1.066406-7.070313 2.929688-1.859375 1.859374-2.929687 4.4375-2.929687 7.070312 0 2.628906 1.070312 5.207031 2.929687 7.066406s4.441407 2.933594 7.070313 2.933594c2.640625 0 5.210937-1.070312 7.070312-2.933594 1.871094-1.859375 2.929688-4.4375 2.929688-7.066406 0-2.632812-1.058594-5.210938-2.929688-7.070312-1.859375-1.863282-4.441406-2.929688-7.070312-2.929688zm0 0"/><path d="m511.789062 499.953125-26.492187-126.855469c-7.101563-34.003906-34.949219-60.347656-69.292969-65.554687l-110.070312-16.683594v-18.8125c22.28125-14.917969 37.566406-39.507813 39.785156-67.714844h8.65625c17.4375 0 31.625-14.1875 31.625-31.625v-14.75c0-17.4375-14.1875-31.625-31.625-31.625h-3.527344c8.28125-9.855469 13.277344-22.554687 13.277344-36.402343v-79.929688c0-3.34375-1.667969-6.46875-4.453125-8.320312-2.78125-1.855469-6.304687-2.195313-9.390625-.910157l-34.976562 14.578125h-110.496094c-31.253906 0-56.683594 25.425782-56.683594 56.679688v17.902344c0 13.847656 5 26.546874 13.277344 36.402343h-3.777344c-17.4375 0-31.625 14.1875-31.625 31.625v14.75c0 17.4375 14.1875 31.625 31.625 31.625h8.65625c2.21875 28.207031 17.5 52.800781 39.78125 67.714844v18.8125l-110.066406 16.683594c-34.34375 5.207031-62.191406 31.550781-69.292969 65.554687l-26.492187 126.855469c-.613282 2.949219.128906 6.015625 2.027343 8.351563 1.898438 2.335937 4.75 3.695312 7.761719 3.695312h43.0625c5.523438 0 10-4.480469 10-10 0-5.523438-4.476562-10-10-10h-30.757812l23.976562-114.8125c5.402344-25.867188 26.585938-45.910156 52.710938-49.867188l44.433593-6.738281 27.480469 64.917969h-34.90625c-3.875 0-7.402344 2.238281-9.050781 5.746094-1.648438 3.507812-1.121094 7.652344 1.355469 10.636718l74.742187 90.117188h-69.984375c-5.519531 0-10 4.476562-10 10 0 5.519531 4.480469 10 10 10h122.8125.253906.058594.042969.039062 245.730469c3.011719 0 5.859375-1.359375 7.757812-3.695312 1.898438-2.335938 2.644532-5.402344 2.03125-8.351563zm-194.125-98.933594c1.851563 2.796875 4.980469 4.480469 8.335938 4.480469h28.714844l-71.746094 86.5h-14.71875l35.941406-181.175781 43.972656 6.667969-31.375 74.109374c-1.304687 3.085938-.980468 6.625.875 9.417969zm-61.507812 49.164063-25.675781-129.449219c7.996093 3.289063 16.632812 5.019531 25.515625 5.019531h.207031c8.941406-.023437 17.625-1.808594 25.660156-5.164062zm-70.15625-299.996094c0-2.125 1.730469-3.855469 3.855469-3.855469h9.335937c1.847656.183594 3.722656.28125 5.617188.28125h38.757812c1.421875.566407 2.433594 1.953125 2.433594 3.574219v30.289062c0 2.125-1.730469 3.855469-3.859375 3.855469h-52.285156c-2.125 0-3.855469-1.730469-3.855469-3.855469zm80 0c0-1.621094 1.007812-3.007812 2.429688-3.574219h39.015624c1.894532 0 3.769532-.097656 5.617188-.28125h9.078125c2.128906 0 3.859375 1.730469 3.859375 3.855469v30.289062c0 2.125-1.730469 3.855469-3.859375 3.855469h-52.285156c-2.125 0-3.855469-1.730469-3.855469-3.855469zm100 7.769531v14.75c0 6.410157-5.214844 11.625-11.625 11.625h-8.375v-38h8.375c6.410156 0 11.625 5.214844 11.625 11.625zm-197.875-85.929687c0-20.226563 16.457031-36.683594 36.683594-36.683594h112.496094c1.320312 0 2.628906-.261719 3.847656-.769531l22.976562-9.574219v64.929688c0 18.71875-14.097656 34.195312-32.226562 36.402343h-42.042969c-1.242187 0-2.464844.09375-3.65625.277344h-20.402344c-1.191406-.183594-2.414062-.277344-3.65625-.277344h-41.789062c-18.132813-2.207031-32.226563-17.683593-32.226563-36.402343v-17.902344zm-22.125 100.679687v-14.75c0-6.410156 5.214844-11.625 11.625-11.625h8.375v38h-8.375c-6.410156 0-11.625-5.214843-11.625-11.625zm40.339844 31.363281c1.148437.167969 2.320312.261719 3.515625.261719h52.285156c5.164063 0 9.949219-1.65625 13.859375-4.457031 3.90625 2.800781 8.691406 4.457031 13.855469 4.457031h52.285156c1.195313 0 2.367187-.09375 3.515625-.261719-3.457031 35.386719-33.375 63.136719-69.660156 63.136719-36.28125 0-66.195313-27.75-69.65625-63.136719zm69.660156 83.136719c10.492188 0 20.566406-1.808593 29.933594-5.125v12.921875c-17.429688 14.445313-42.414063 14.457032-59.867188-.003906v-12.917969c9.367188 3.316407 19.441406 5.125 29.933594 5.125zm-98.714844 118.292969h28.714844c3.355469 0 6.484375-1.683594 8.335938-4.480469 1.851562-2.792969 2.179687-6.332031.871093-9.421875l-31.371093-74.109375 44.28125-6.710937 35.945312 181.222656h-15.03125zm151.667969 86.5 74.742187-90.117188c2.476563-2.984374 3.003907-7.128906 1.355469-10.636718-1.648437-3.507813-5.175781-5.746094-9.050781-5.746094h-34.90625l27.480469-64.917969 44.433593 6.738281c26.125 3.957032 47.308594 24 52.710938 49.867188l23.976562 114.8125zm0 0"/><path d="m438.042969 417h-37.875c-5.523438 0-10 4.476562-10 10 0 5.519531 4.476562 10 10 10h37.875c5.519531 0 10-4.480469 10-10 0-5.523438-4.480469-10-10-10zm0 0"/></svg>