<svg height="512pt" viewBox="0 0 512 512" width="512pt" xmlns="http://www.w3.org/2000/svg"><path d="m288.304688 382.277344c-2.628907 0-5.207032 1.066406-7.066407 2.929687-1.863281 1.855469-2.929687 4.4375-2.929687 7.066407 0 2.632812 1.066406 5.210937 2.929687 7.070312 1.859375 1.859375 4.4375 2.929688 7.066407 2.929688 2.632812 0 5.210937-1.070313 7.070312-2.929688 1.871094-1.859375 2.929688-4.4375 2.929688-7.070312 0-2.628907-1.058594-5.210938-2.929688-7.066407-1.859375-1.863281-4.429688-2.929687-7.070312-2.929687zm0 0"/><path d="m412.148438 94.890625 12.183593-4.109375c24.707031-8.335938 41.304688-31.457031 41.304688-57.53125v-.917969c0-12.3125-10.015625-22.332031-22.332031-22.332031h-20.332032c0-5.523438-4.476562-10-10-10h-87.996094c-5.523437 0-10 4.476562-10 10h-20.832031c-12.316406 0-22.335937 10.019531-22.335937 22.332031v.917969c0 26.074219 16.601562 49.195312 41.308594 57.53125l12.863281 4.339844c4.101562 5.390625 9.1875 9.996094 14.996093 13.535156v22.460938c-6.722656 1.664062-12.746093 5.109374-17.539062 9.8125-8.390625.46875-16.398438 4.050781-22.351562 10.101562-20.539063 20.875-48.160157 33.898438-77.171876 36.703125 8.136719-9.875 13.027344-22.511719 13.027344-36.273437 0-31.503907-25.628906-57.128907-57.132812-57.128907s-57.128906 25.625-57.128906 57.128907c0 13.773437 4.898437 26.425781 13.046874 36.300781-29.136718-2.730469-56.890624-15.773438-77.507812-36.730469-13.148438-13.359375-34.714844-13.539062-48.082031-.390625-13.359375 13.148437-13.539063 34.714844-.390625 48.082031 27.0625 27.507813 62.527344 46.46875 100.636718 53.964844v23.144531c-4.464843-2.097656-9.441406-3.277343-14.691406-3.277343-19.132812 0-34.695312 15.5625-34.695312 34.695312v170.054688c0 19.132812 15.5625 34.695312 34.695312 34.695312 8.730469 0 16.710938-3.25 22.816406-8.59375 5.171876 5.289062 12.375 8.578125 20.339844 8.578125h81.609375c7.964844 0 15.167969-3.289063 20.339844-8.578125 6.105469 5.34375 14.085937 8.59375 22.816406 8.59375 19.132813 0 34.695313-15.566406 34.695313-34.695312v-45.027344c0-5.523438-4.476563-10-10-10-5.519532 0-10 4.476562-10 10v45.027344c0 8.105468-6.589844 14.695312-14.695313 14.695312-8.101562 0-14.691406-6.59375-14.691406-14.695312v-170.058594c0-8.101563 6.589844-14.691406 14.691406-14.691406 8.105469 0 14.695313 6.589843 14.695313 14.691406v45.03125c0 5.523437 4.480468 10 10 10 5.523437 0 10-4.476563 10-10v-45.03125c0-19.128906-15.5625-34.691406-34.695313-34.691406-5.25 0-10.226562 1.179687-14.691406 3.273437v-23.140625c38.109375-7.496094 73.574219-26.460938 100.636719-53.96875 2.527344-2.570312 4.625-5.523438 6.214844-8.726562h60.199218c5.523438 0 10-4.476563 10-10v-11.832032c0-17.882812-12.367187-32.929687-29-37.042968v-22.464844c5.894532-3.585938 11.042969-8.269532 15.175782-13.761719zm31.15625-64.890625c1.289062 0 2.335937 1.046875 2.335937 2.332031v.917969c0 15.851562-9.148437 30.074219-23.203125 36.757812.34375-2.457031.535156-4.960937.535156-7.511718v-32.496094zm-108.328126-10h67.996094v42.496094c0 18.75-15.25 34-34 34-18.746094 0-33.996094-15.25-33.996094-34zm-43.167968 13.25v-.917969c0-1.285156 1.046875-2.332031 2.335937-2.332031h20.832031v32.496094c0 2.632812.199219 5.21875.5625 7.75-14.347656-6.578125-23.730468-20.949219-23.730468-36.996094zm-112 81.078125c20.476562 0 37.132812 16.65625 37.132812 37.132813 0 18.945312-14.269531 34.613281-32.625 36.847656h-9.011718c-18.355469-2.234375-32.625-17.898438-32.625-36.847656-.003907-20.476563 16.65625-37.132813 37.128906-37.132813zm49.113281 245.515625v82.6875h-39.269531v-82.6875zm-59.269531 82.6875h-39.269532v-82.6875h39.269532zm-73.960938 49.46875c-8.105468 0-14.695312-6.59375-14.695312-14.695312v-170.058594c0-8.101563 6.59375-14.691406 14.695312-14.691406 8.101563 0 14.691406 6.589843 14.691406 14.691406v170.058594c0 8.101562-6.589843 14.695312-14.691406 14.695312zm133.230469-8.476562c0 4.664062-3.796875 8.460937-8.464844 8.460937h-81.613281c-4.664062 0-8.460938-3.796875-8.460938-8.460937v-12.53125c0-4.667969 3.796876-8.460938 8.460938-8.460938h81.613281c4.667969 0 8.464844 3.792969 8.464844 8.460938zm8.511719-249.136719c-4.894532.734375-8.511719 4.9375-8.511719 9.886719v95.574218h-98.539063v-95.574218c0-4.949219-3.621093-9.152344-8.515624-9.886719-37.0625-5.570313-71.816407-23.21875-97.863282-49.691407-5.414062-5.503906-5.34375-14.386718.160156-19.796874 5.503907-5.417969 14.382813-5.34375 19.796876.15625 27.042968 27.488281 64.664062 43.253906 103.226562 43.253906h64.929688c36.988281 0 73.105468-14.515625 99.859374-39.957032v11.640626c0 5.523437 4.476563 10 9.996094 10h7.863282c-25.347657 23.527343-57.871094 39.207031-92.402344 44.394531zm168.539062-66.226563v1.835938h-73.996094v-1.835938c0-10.015625 8.148438-18.164062 18.164063-18.164062h37.667969c10.015625 0 18.164062 8.148437 18.164062 18.164062zm-29-38.164062h-16v-14.097656c2.613282.390624 5.285156.597656 8 .597656 2.71875 0 5.390625-.207032 8-.597656zm0 0"/><path d="m501.96875 108.328125h-10.496094v-10.5c0-5.519531-4.480468-10-10-10-5.523437 0-10 4.480469-10 10v10.5h-10.5c-5.523437 0-10 4.480469-10 10 0 5.523437 4.476563 10 10 10h10.5v10.5c0 5.523437 4.476563 10 10 10 5.519532 0 10-4.476563 10-10v-10.5h10.496094c5.523438 0 10-4.476563 10-10 0-5.519531-4.476562-10-10-10zm0 0"/><path d="m189.980469 53.496094h10.5v10.5c0 5.523437 4.476562 10 10 10 5.519531 0 9.996093-4.476563 9.996093-10v-10.5h10.5c5.523438 0 10-4.476563 10-10 0-5.519532-4.476562-9.996094-10-9.996094h-10.5v-10.5c0-5.523438-4.476562-10-9.996093-10-5.523438 0-10 4.476562-10 10v10.5h-10.5c-5.523438 0-10 4.476562-10 9.996094 0 5.523437 4.476562 10 10 10zm0 0"/></svg>