<svg height="511pt" viewBox="1 -22 511.999 511" width="511pt" xmlns="http://www.w3.org/2000/svg"><path d="m129.808594 296.832031c-22.570313 0-40.9375 18.363281-40.9375 40.9375 0 22.570313 18.363281 40.933594 40.9375 40.933594 22.570312 0 40.933594-18.363281 40.933594-40.933594 0-22.574219-18.363282-40.9375-40.933594-40.9375zm0 61.871094c-11.542969 0-20.933594-9.394531-20.933594-20.933594 0-11.542969 9.390625-20.9375 20.933594-20.9375 11.542968 0 20.933594 9.394531 20.933594 20.9375 0 11.539063-9.390626 20.933594-20.933594 20.933594zm0 0"/><path d="m10.003906 345.410156c5.421875 0 9.878906-4.386718 9.996094-9.835937 0-.035157 0-.070313 0-.109375.0625-5.511719-4.347656-10.082032-9.859375-10.160156-.046875 0-.09375 0-.140625 0-5.449219 0-9.90625 4.421874-9.99609375 9.890624-.09375005 5.511719 4.29296875 10.105469 9.80468775 10.210938.066406.003906.128906.003906.195312.003906zm0 0"/><path d="m159.917969 413.011719c1.828125 3.296875 5.238281 5.15625 8.757812 5.15625 1.640625 0 3.300781-.402344 4.835938-1.25 28.792969-15.941407 46.683593-46.269531 46.683593-79.148438 0-5.523437-4.480468-10.003906-10-10.003906-5.523437 0-10.003906 4.480469-10.003906 10.003906 0 25.605469-13.933594 49.230469-36.363281 61.648438-4.835937 2.675781-6.585937 8.761719-3.910156 13.59375zm0 0"/><path d="m129.785156 408.175781c-5.519531 0-9.953125 4.46875-9.960937 9.988281-.007813 5.515626 4.496093 9.996094 10.011719 10.011719h.214843c5.519531-.023437 9.925781-4.515625 9.90625-10.039062-.023437-5.507813-4.542969-9.960938-10.046875-9.960938-.035156.003907-.082031 0-.125 0zm0 0"/><path d="m502 236.488281h-6.730469v-114.027343c0-16.238282-7.957031-30.644532-20.171875-39.546876 10.351563-8.542968 16.960938-21.460937 16.960938-35.894531 0-25.652343-20.867188-46.519531-46.519532-46.519531-25.648437 0-46.515624 20.867188-46.515624 46.519531 0 14.433594 6.609374 27.351563 16.960937 35.894531-7.9375 5.785157-14.066406 13.890626-17.390625 23.316407-.105469.265625-.195312.535156-.277344.8125-.335937 1.007812-.648437 2.027343-.921875 3.066406-6.511719 18.253906-36.703125 36.359375-57.859375 38.425781-2.695312.265625-5.445312.398438-8.171875.398438h-19.804687c-9.265625 0-17.488282 4.242187-22.746094 10.902344-2.566406-2.460938-5.578125-4.46875-8.949219-5.914063-7.464843-3.199219-15.707031-3.25-23.203125-.152344-.921875.378907-1.847656.742188-2.777344 1.082031-16.941406 6.25-35.796874 1.714844-48.027343-11.546874-2.238281-2.425782-4.703125-4.597657-7.332031-6.519532 11.546874-8.945312 19-22.929687 19-38.632812 0-26.9375-21.917969-48.855469-48.859376-48.855469-26.9375 0-48.855468 21.917969-48.855468 48.855469 0 15.789062 7.535156 29.84375 19.191406 38.78125-1.980469 1.476562-3.871094 3.113281-5.65625 4.894531-9.710938 9.695313-15.277344 23.027344-15.277344 36.582031v30.144532c-8.371094.753906-16.683594 2.308593-24.804687 4.679687v-55.445313c0-5.523437-4.480469-10-10-10h-53.925781c-16.175782 0-29.335938 13.160157-29.335938 29.332032 0 16.175781 13.160156 29.335937 29.335938 29.335937h43.921874v14.457031c-12.75 6.15625-24.699218 14.503907-35.261718 25.066407-13.046875 13.046875-22.96875 28.335937-29.496094 45.441406-1.96875 5.160156.621094 10.9375 5.78125 12.90625 5.15625 1.972656 10.9375-.617187 12.90625-5.777344 5.515625-14.457031 13.910156-27.386719 24.953125-38.425781 42.8125-42.816406 112.476563-42.816406 155.289063 0 42.8125 42.8125 42.8125 112.476562 0 155.289062s-112.476563 42.8125-155.289063 0c-12.273437-12.269531-21.230469-26.78125-26.625-43.132812-1.730469-5.246094-7.390625-8.09375-12.632813-6.363281-5.242187 1.730469-8.09375 7.386719-6.359374 12.632812 6.382812 19.34375 16.972656 36.503907 31.472656 51.007813 25.308594 25.304687 58.546875 37.957031 91.789062 37.957031 33.238282 0 66.480469-12.652344 91.785156-37.957031 4.492188-4.492188 8.578126-9.238282 12.269532-14.183594h46.226562c-2.429687 4.851562-3.804687 10.316406-3.804687 16.101562 0 19.902344 16.195312 36.101563 36.101562 36.101563s36.101563-16.195313 36.101563-36.101563c0-5.785156-1.375-11.25-3.800782-16.101562h15.976563c5.523437 0 10.003906-4.480469 10.003906-10v-6.6875c0-19.664062-14.25-36.066406-32.964843-39.421875l-28.101563-72.207031c-9.105469-23.398438-31.214844-38.519532-56.324219-38.519532h-28.320312c-.28125 0-.558594.019532-.835938.039063-.828125-.875-1.667968-1.742187-2.527344-2.597656-.757812-.761719-1.53125-1.511719-2.304687-2.25v-24.695313c20.179687 1.320313 40.542969-1.960937 59.515625-9.679687 5.683594-2.3125 10.320312-6.15625 13.609375-10.847657 5.171875 4.578126 11.738281 7.082032 18.726563 7.082032h20.246093c22.476563 0 44.789063-5.386719 64.449219-15.347656v46.246093h-17.027344c-5.523437 0-10 4.476563-10 10v87.753907c0 5.523437 4.476563 10 10 10h33.882813v73.375c-12.832031 8.625-21.292969 23.273437-21.292969 39.863281 0 5.523437 4.476562 10 10 10h71.460938c5.523437 0 10-4.476563 10-10v-37.960938c0-.015625 0-.027343 0-.039062v-75.234375h19.164062c5.519531 0 10-4.480469 10-10v-87.757813c0-5.523437-4.476562-10-10-10zm-472.664062-50.03125c-5.148438 0-9.335938-4.1875-9.335938-9.335937 0-5.144532 4.1875-9.332032 9.335938-9.332032h43.921874v18.667969zm139.328124-117.160156c15.910157 0 28.855469 12.945313 28.855469 28.855469 0 15.914062-12.945312 28.855468-28.855469 28.855468-15.910156 0-28.855468-12.941406-28.855468-28.855468 0-15.910156 12.945312-28.855469 28.855468-28.855469zm90.480469 258.496094 30.683594 67.582031h-43.707031c10.445312-21.140625 14.785156-44.554688 13.023437-67.582031zm69.320313 103.683593c0 8.875-7.222656 16.097657-16.101563 16.097657-8.878906 0-16.101562-7.222657-16.101562-16.097657 0-8.878906 7.222656-16.101562 16.101562-16.101562 8.878907 0 16.101563 7.222656 16.101563 16.101562zm-75.210938-162.9375c16.800782 0 31.59375 10.117188 37.6875 25.773438l30.335938 77.953125c1.496094 3.84375 5.195312 6.375 9.320312 6.375 9.921875 0 18.1875 7.25 19.769532 16.730469h-38.574219l-37.640625-82.902344c-1.621094-3.574219-5.183594-5.867188-9.105469-5.867188h-9.285156c-3.265625-13.289062-8.652344-26.15625-16.160157-38.0625zm17.992188-77.707031c-19.246094 7.828125-40.152344 10.308594-60.453125 7.171875-2.890625-.441406-5.824219.394532-8.035157 2.292969-2.21875 1.898437-3.492187 4.671875-3.492187 7.59375v20.222656c-18.714844-11.859375-39.820313-18.464843-61.203125-19.820312v-29.878907c0-8.285156 3.429688-16.460937 9.40625-22.429687 5.800781-5.789063 13.324219-8.972656 21.199219-8.972656h.046875c8.617187.015625 16.585937 3.511719 22.4375 9.855469 17.742187 19.230468 45.078125 25.808593 69.648437 16.753906 1.148438-.425782 2.320313-.882813 3.492188-1.367188 2.488281-1.027344 5.21875-1.007812 7.691406.050782 2.472656 1.0625 4.371094 3.03125 5.347656 5.550781 1.933594 5.003906-.796875 10.824219-6.085937 12.976562zm174.292968-170.332031c14.621094 0 26.519532 11.898438 26.519532 26.519531 0 14.621094-11.898438 26.515625-26.519532 26.515625-14.621093 0-26.515624-11.894531-26.515624-26.515625 0-14.621093 11.894531-26.519531 26.515624-26.519531zm.800782 73.035156c15.949218 0 28.925781 12.976563 28.925781 28.925782v114.027343h-18.242187c1.449218-3.632812 2.257812-7.589843 2.257812-11.734375v-68.542968c0-5.519532-4.476562-10-10-10s-10 4.480468-10 10v68.542968c0 6.472656-5.265625 11.734375-11.734375 11.734375s-11.730469-5.265625-11.730469-11.734375v-52.144531c0-.003906 0-.011719 0-.015625v-50.132812c0-2.359376.289063-4.652344.824219-6.851563.277344-.839844.523437-1.683594.742187-2.523437 3.90625-11.359376 14.691407-19.550782 27.359376-19.550782zm-114.976563 92.054688h-20.246093c-2.28125 0-4.410157-.902344-5.992188-2.546875-1.585938-1.640625-2.410156-3.804688-2.328125-6.09375.15625-4.421875 4.085937-8.015625 8.761719-8.015625h19.808594c3.371093 0 6.773437-.164063 10.113281-.492188 14.113281-1.378906 31.136719-8.015625 45.535156-17.753906 3.144531-2.125 6.078125-4.339844 8.796875-6.628906v23.261718c-18.859375 11.804688-41.539062 18.269532-64.449219 18.269532zm131.472657 261.894531h-49.617188c4.035156-10.519531 14.238281-18.003906 26.15625-18.003906h23.460938zm0-38.003906h-30.164063v-65.234375h30.164063zm29.164062-85.238281h-103.214844v-67.753907h103.214844zm0 0"/></svg>