<svg height="512pt" viewBox="-25 0 512 512" width="512pt" xmlns="http://www.w3.org/2000/svg"><path d="m427.9375 400.609375-29.136719-74.875c-9.371093-24.074219-32.113281-39.628906-57.945312-39.628906h-29.296875c-.359375 0-.714844.023437-1.066406.058593-1.667969-1.765624-3.382813-3.488281-5.144532-5.164062v-9.566406h42.984375c16.542969 0 30-13.457032 30-30 0-16.542969-13.457031-30-30-30h-42.992187c-.304688-16.980469-8.796875-31.988282-21.679688-41.261719 12.070313-9.175781 19.886719-23.679687 19.886719-39.976563 0-27.679687-22.519531-50.195312-50.195313-50.195312-27.679687 0-50.195312 22.515625-50.195312 50.195312 0 16.296876 7.8125 30.800782 19.886719 39.976563-13.121094 9.449219-21.691407 24.847656-21.691407 42.214844v32.265625c-5.902343.519531-11.691406 1.417968-17.351562 2.679687v-45c0-5.523437-4.476562-10-10-10h-20.761719c-.089843-7.351562-2.847656-14.675781-8.292969-20.363281l-53.152343-68.085938c-2.390625-3.855468-5.296875-7.304687-8.574219-10.316406 14.921875-8.707031 24.976562-24.882812 24.976562-43.375 0-27.671875-22.515624-50.191406-50.195312-50.191406s-50.195312 22.519531-50.195312 50.195312c0 14.714844 6.367187 27.972657 16.488281 37.164063-14.53125 8.660156-24.292969 24.527344-24.292969 42.640625v132.980469c0 18.910156 5.433594 37.296875 15.710938 53.171875l8.289062 12.800781v173.046875c0 5.523438 4.476562 10 10 10h75.21875c5.523438 0 10-4.476562 10-10 0-16.324219-7.863281-30.84375-20-39.972656 0-.011719 0-.019532 0-.027344v-13.605469c23.632812 38.140625 65.863281 63.605469 113.933594 63.605469 43.917968 0 82.960937-21.246094 107.402344-54h48.609374c-2.648437 5.09375-4.164062 10.871094-4.164062 17 0 20.402344 16.597656 37 37 37s37-16.597656 37-37c0-6.128906-1.507812-11.90625-4.152344-17h17.09375c5.523438 0 10-4.476562 10-10v-6.917969c0-20.238281-14.710937-37.105469-34.003906-40.472656zm-174.589844-300.609375c16.652344 0 30.195313 13.546875 30.195313 30.195312 0 16.648438-13.542969 30.195313-30.195313 30.195313-16.648437 0-30.195312-13.546875-30.195312-30.195313 0-16.648437 13.546875-30.195312 30.195312-30.195312zm-32 112.390625c0-17.644531 14.355469-32 32-32 17.644532 0 32 14.355469 32 32v9.042969c0 5.523437 4.476563 10 10 10h52.984375c5.515625 0 10 4.488281 10 10 0 5.515625-4.484375 10-10 10h-52.984375c-5.523437 0-10 4.476562-10 10v3.863281c-18.6875-12.003906-40.539062-19.484375-64-20.910156zm-75.414062-.058594h18.066406v41.140625c-26.976562 10.679688-49.675781 29.882813-64.78125 54.261719v-96.648437l2.828125 2.828124c5.667969 5.664063 13.199219 8.785157 21.214844 8.785157 8.011719 0 15.546875-3.121094 21.210937-8.785157.511719-.511718.996094-1.042968 1.460938-1.582031zm-87.933594-192.332031c16.648438 0 30.195312 13.546875 30.195312 30.195312 0 16.648438-13.546874 30.195313-30.195312 30.195313s-30.195312-13.546875-30.195312-30.195313c0-16.648437 13.546874-30.195312 30.195312-30.195312zm-25.5 285.28125c-8.179688-12.628906-12.5-27.257812-12.5-42.300781v-6.980469h59.21875v196h-35.21875v-126c0-1.929688-.558594-3.816406-1.605469-5.433594zm11.5 186.71875v-20h25.21875c13.039062 0 24.160156 8.359375 28.289062 20zm52.289062-312.128906c-2.859374-2.859375-7.160156-3.714844-10.898437-2.167969-3.734375 1.550781-6.171875 5.195313-6.171875 9.242187v49.054688h-59.21875v-106c0-16.328125 13.28125-29.609375 29.609375-29.609375 10.480469 0 19.96875 5.367187 25.382813 14.363281.210937.34375.4375.675782.6875.992188l53.839843 68.96875c.253907.320312.523438.625.8125.914062 1.890625 1.890625 2.929688 4.402344 2.929688 7.070313 0 2.671875-1.039063 5.183593-2.929688 7.074219-1.890625 1.886718-4.398437 2.925781-7.070312 2.925781s-5.183594-1.039063-7.070313-2.925781zm116.863282 312.128906c-62.824219 0-113.933594-51.109375-113.933594-113.933594 0-62.824218 51.109375-113.9375 113.933594-113.9375 62.824218 0 113.9375 51.113282 113.9375 113.9375 0 62.824219-51.113282 113.933594-113.9375 113.933594zm133.402344-125.828125h.054687l32.613281 71.828125h-46.316406c9.066406-18.042969 14.183594-38.402344 14.183594-59.933594 0-4.011718-.1875-7.976562-.535156-11.894531zm55.445312 125.828125c-9.375 0-17-7.625-17-17s7.625-17 17-17 17 7.625 17 17-7.625 17-17 17zm0-54h-.8125l-39.027344-85.964844c-1.625-3.570312-5.183594-5.863281-9.105468-5.863281h-9.8125c-3.53125-14.40625-9.390626-27.902344-17.171876-40.066406h14.785157c17.523437 0 32.953125 10.550781 39.304687 26.882812l31.382813 80.640625c1.496093 3.84375 5.195312 6.375 9.316406 6.375 10.578125 0 19.363281 7.828125 20.859375 17.996094zm0 0"/><path d="m255.152344 378.066406c0-23.160156-18.839844-42-42-42-23.15625 0-42 18.839844-42 42 0 23.15625 18.84375 42 42 42 23.160156 0 42-18.84375 42-42zm-64 0c0-12.132812 9.871094-22 22-22 12.132812 0 22 9.867188 22 22 0 12.128906-9.867188 22-22 22-12.128906 0-22-9.871094-22-22zm0 0"/><path d="m296.332031 368.066406c-5.523437 0-10 4.476563-10 10 0 27.195313-14.949219 52-39.011719 64.730469-4.882812 2.582031-6.746093 8.632813-4.164062 13.515625 1.792969 3.390625 5.261719 5.328125 8.847656 5.328125 1.578125 0 3.175782-.375 4.667969-1.164063 30.632813-16.207031 49.660156-47.785156 49.660156-82.410156 0-5.523437-4.476562-10-10-10zm0 0"/><path d="m213.285156 451.246094c-.003906 0-.007812 0-.015625 0-5.5625-.03125-10.070312 4.425781-10.078125 9.984375-.007812 5.515625 4.488282 9.996093 10.003906 10.015625v-.003906c.085938.003906.167969.003906.25.003906 5.519532-.035156 9.917969-4.539063 9.886719-10.058594-.03125-5.503906-4.550781-9.941406-10.046875-9.941406zm0 0"/></svg>