<svg height="512pt" viewBox="0 0 512 512" width="512pt" xmlns="http://www.w3.org/2000/svg"><path d="m488.332031 0h-464.664062c-13.050781 0-23.667969 10.617188-23.667969 23.667969v356.664062c0 13.050781 10.617188 23.667969 23.667969 23.667969h179.332031v34h-33.296875c-18.097656 0-32.820313 14.722656-32.820313 32.820312v31.179688c0 5.523438 4.476563 10 10 10h218.234376c5.523437 0 10-4.476562 10-10v-31.179688c0-18.097656-14.722657-32.820312-32.820313-32.820312h-33.296875v-34h179.332031c13.050781 0 23.667969-10.617188 23.667969-23.667969v-356.664062c0-13.050781-10.617188-23.667969-23.667969-23.667969zm-133.214843 470.820312v21.179688h-198.234376v-21.179688c0-7.070312 5.75-12.820312 12.820313-12.820312h172.59375c7.070313 0 12.820313 5.75 12.820313 12.820312zm-66.117188-32.820312h-66v-34h66zm203-57.667969c0 2.023438-1.644531 3.667969-3.667969 3.667969h-464.664062c-2.023438 0-3.667969-1.644531-3.667969-3.667969v-356.664062c0-2.023438 1.644531-3.667969 3.667969-3.667969h464.664062c2.023438 0 3.667969 1.644531 3.667969 3.667969zm0 0"/><path d="m462 40h-412c-5.523438 0-10 4.476562-10 10v304c0 5.523438 4.476562 10 10 10h40c5.519531 0 10-4.476562 10-10s-4.480469-10-10-10h-30v-284h392v284h-84.117188v-23.527344l7.269532 3.523438c5.335937 2.589844 11.1875 3.898437 17.050781 3.898437 4.539063 0 9.085937-.785156 13.398437-2.363281 10.542969-3.863281 18.917969-12.082031 22.972657-22.554688 4.054687-10.476562 3.402343-22.191406-1.796875-32.148437l-32.226563-61.757813c-8.035156-15.390624-23.8125-24.953124-41.171875-24.953124h-4.128906c6.460938-8.488282 10.304688-19.070313 10.304688-30.535157 0-27.867187-22.671876-50.535156-50.535157-50.535156-27.867187 0-50.535156 22.667969-50.535156 50.535156 0 11.464844 3.84375 22.046875 10.300781 30.535157h-3.632812c-17.363282 0-33.140625 9.5625-41.171875 24.953124l-32.226563 61.757813c-5.199218 9.957031-5.851562 21.671875-1.796875 32.144531 4.054688 10.476563 12.429688 18.695313 22.972657 22.558594 4.3125 1.578125 8.859374 2.363281 13.398437 2.363281 5.859375 0 11.71875-1.308593 17.054687-3.898437l7.265626-3.523438v23.527344h-80.648438c-5.523438 0-10 4.476562-10 10s4.476562 10 10 10h292c5.523438 0 10-4.476562 10-10v-304c0-5.523438-4.476562-10-10-10zm-183.519531 113.578125c0-16.835937 13.699219-30.535156 30.539062-30.535156 16.835938 0 30.535157 13.699219 30.535157 30.535156 0 16.839844-13.699219 30.539063-30.535157 30.539063-16.839843 0-30.539062-13.699219-30.539062-30.539063zm-2.027344 154.378906c13.765625-6.675781 19.710937-22.867187 13.535156-36.863281-3.703125-8.398438-10.964843-14.167969-19.34375-16.136719v-7.210937c0-5.519532-4.476562-10-10-10-5.519531 0-10 4.480468-10 10v9.0625l-17.757812 4.679687c-5.339844 1.40625-8.527344 6.875-7.121094 12.21875 1.410156 5.339844 6.875 8.523438 12.21875 7.121094l22.785156-6.007813c1.148438-.011718 2.246094-.226562 3.269531-.59375 3.25-.039062 6.28125 1.835938 7.652344 4.941407 1.808594 4.097656.066406 8.839843-3.964844 10.796875l-33.074218 16.039062c-4.617188 2.238282-10.03125 2.511719-14.84375.746094-5.21875-1.910156-9.195313-5.816406-11.203125-10.996094-2.003907-5.179687-1.695313-10.746094.875-15.671875l32.230469-61.757812c4.574218-8.761719 13.554687-14.207031 23.441406-14.207031h88.226562c9.882813 0 18.863282 5.445312 23.4375 14.210937l32.230469 61.753906c2.570313 4.925781 2.882813 10.492188.875 15.671875-2.007813 5.183594-5.984375 9.085938-11.199219 10.996094-4.820312 1.765625-10.230468 1.492188-14.84375-.746094l-33.074218-16.039062c-4.03125-1.957032-5.773438-6.699219-3.964844-10.796875 1.367187-3.105469 4.398437-4.980469 7.648437-4.941407 1.023438.371094 2.121094.582032 3.269531.59375l22.785157 6.007813c5.339843 1.402344 10.8125-1.78125 12.21875-7.121094 1.40625-5.34375-1.78125-10.8125-7.121094-12.21875l-17.757813-4.679687v-9.0625c0-5.519532-4.480468-10-10-10-5.523437 0-10 4.480468-10 10v7.207031c-8.378906 1.972656-15.640624 7.746094-19.34375 16.140625-6.171874 13.996094-.226562 30.1875 13.535157 36.863281l5.808593 2.816407v33.21875h-77.238281v-33.21875zm0 0"/><path d="m130 344c-2.628906 0-5.210938 1.070312-7.070312 2.929688-1.859376 1.859374-2.929688 4.441406-2.929688 7.070312s1.070312 5.210938 2.929688 7.070312c1.859374 1.859376 4.441406 2.929688 7.070312 2.929688s5.210938-1.070312 7.070312-2.929688c1.859376-1.859374 2.929688-4.441406 2.929688-7.070312s-1.070312-5.210938-2.929688-7.070312c-1.859374-1.859376-4.441406-2.929688-7.070312-2.929688zm0 0"/><path d="m94 131.800781h62.90625c5.519531 0 10-4.480469 10-10 0-5.523437-4.480469-10-10-10h-62.90625c-5.523438 0-10 4.476563-10 10 0 5.519531 4.476562 10 10 10zm0 0"/><path d="m196.910156 131.800781c2.628906 0 5.199219-1.070312 7.070313-2.929687 1.859375-1.859375 2.929687-4.441406 2.929687-7.070313 0-2.628906-1.070312-5.210937-2.929687-7.070312s-4.441407-2.929688-7.070313-2.929688c-2.640625 0-5.222656 1.070313-7.070312 2.929688-1.871094 1.859375-2.929688 4.441406-2.929688 7.070312 0 2.628907 1.058594 5.210938 2.929688 7.070313 1.859375 1.859375 4.429687 2.929687 7.070312 2.929687zm0 0"/><path d="m131.832031 207.800781h-37.832031c-5.523438 0-10 4.476563-10 10 0 5.519531 4.476562 10 10 10h37.832031c5.519531 0 10-4.480469 10-10 0-5.523437-4.476562-10-10-10zm0 0"/><path d="m94 181.398438h80.941406c5.523438 0 10-4.476563 10-10 0-5.519532-4.476562-10-10-10h-80.941406c-5.523438 0-10 4.480468-10 10 0 5.523437 4.476562 10 10 10zm0 0"/></svg>