<svg height="512pt" viewBox="-31 0 512 512.001" width="512pt" xmlns="http://www.w3.org/2000/svg"><path d="m224.535156 431.660156c-2.640625 0-5.21875 1.058594-7.082031 2.917969-1.859375 1.871094-2.917969 4.453125-2.917969 7.082031s1.058594 5.199219 2.917969 7.070313c1.863281 1.859375 4.441406 2.929687 7.082031 2.929687 2.628906 0 5.210938-1.070312 7.070313-2.929687s2.929687-4.441407 2.929687-7.070313c0-2.640625-1.070312-5.210937-2.929687-7.082031-1.859375-1.859375-4.441407-2.917969-7.070313-2.917969zm0 0"/><path d="m398.882812 351.199219h-95.066406v-102.859375l67.460938 67.457031c7.527344 7.53125 17.542968 11.679687 28.191406 11.679687s20.664062-4.148437 28.195312-11.679687c15.546876-15.546875 15.546876-40.84375.003907-56.382813l-21.464844-21.496093c-3.90625-3.90625-10.234375-3.914063-14.144531-.007813-3.90625 3.902344-3.910156 10.234375-.007813 14.140625l21.472657 21.5c7.746093 7.75 7.746093 20.355469 0 28.105469-3.757813 3.753906-8.746094 5.820312-14.054688 5.820312s-10.300781-2.066406-14.050781-5.820312l-84.53125-84.527344c-2.859375-2.859375-7.160157-3.71875-10.898438-2.167968-3.734375 1.546874-6.171875 5.191406-6.171875 9.238281v127h-118.519531v-127.054688c0-4.042969-2.4375-7.691406-6.175781-9.238281-3.734375-1.546875-8.039063-.691406-10.898438 2.167969l-84.578125 84.582031c-3.753906 3.753906-8.746093 5.820312-14.054687 5.820312s-10.296875-2.066406-14.050782-5.820312c-7.75-7.75-7.75-20.355469 0-28.105469l108.597657-108.570312c16.914062-16.90625 39.398437-26.214844 63.3125-26.214844h34.34375c23.941406 0 46.441406 9.328125 63.359375 26.269531l30.351562 30.390625c3.90625 3.910157 10.234375 3.914063 14.144532.011719 3.90625-3.902344 3.910156-10.234375.007812-14.144531l-30.351562-30.390625c-14.023438-14.042969-31.183594-23.800782-49.902344-28.640625 14.996094-12.738281 24.535156-31.710938 24.535156-52.878907 0-38.257812-31.125-69.382812-69.382812-69.382812-38.257813 0-69.382813 31.125-69.382813 69.382812 0 21.183594 9.554687 40.167969 24.566406 52.902344-18.652343 4.84375-35.753906 14.570313-49.742187 28.554688l-108.597656 108.570312c-15.546876 15.542969-15.546876 40.839844 0 56.386719 7.527343 7.53125 17.542968 11.679687 28.191406 11.679687 10.652344 0 20.664062-4.148437 28.195312-11.679687l67.511719-67.507813v102.910157h-95.066406c-27.695313 0-50.230469 22.53125-50.230469 50.230469 0 27.695312 22.53125 50.226562 50.230469 50.226562h16.445312v21.289062c0 21.535157 17.519531 39.054688 39.054688 39.054688 21.535156 0 39.054687-17.519531 39.054687-39.054688v-21.289062h39.898438c5.519531 0 10-4.476562 10-10s-4.480469-10-10-10h-134.453125c-16.667969 0-30.230469-13.558594-30.230469-30.226562 0-16.667969 13.5625-30.230469 30.230469-30.230469h348.648437c16.667969 0 30.230469 13.5625 30.230469 30.230469 0 16.667968-13.5625 30.226562-30.230469 30.226562h-134.199218c-5.519532 0-10 4.476562-10 10s4.480468 10 10 10h39.644531v21.289062c0 21.535157 17.519531 39.054688 39.054687 39.054688s39.054688-17.519531 39.054688-39.054688v-21.289062h16.449218c27.695313 0 50.226563-22.53125 50.226563-50.226562 0-27.699219-22.53125-50.230469-50.226563-50.230469zm-223.710937-281.816407c0-27.230468 22.15625-49.382812 49.382813-49.382812 27.230468 0 49.382812 22.152344 49.382812 49.382812 0 27.226563-22.152344 49.382813-49.382812 49.382813-27.226563 0-49.382813-22.15625-49.382813-49.382813zm-50.386719 382.273438v21.289062c0 10.507813-8.546875 19.054688-19.054687 19.054688-10.507813 0-19.054688-8.546875-19.054688-19.054688v-21.289062zm237.648438 21.289062c0 10.507813-8.546875 19.054688-19.054688 19.054688-10.503906 0-19.054687-8.546875-19.054687-19.054688v-21.289062h38.109375zm0 0"/><path d="m370.992188 226.8125c2.558593 0 5.121093-.976562 7.074218-2.929688 3.902344-3.902343 3.902344-10.234374 0-14.140624-3.90625-3.90625-10.238281-3.90625-14.144531 0h-.003906c-3.902344 3.90625-3.902344 10.238281.003906 14.144531 1.949219 1.949219 4.511719 2.925781 7.070313 2.925781zm0 0"/></svg>