<svg height="512pt" viewBox="0 0 512.00038 512" width="512pt" xmlns="http://www.w3.org/2000/svg"><path d="m256 69.914062c5.523438 0 10-4.476562 10-10v-49.914062c0-5.523438-4.476562-10-10-10-5.519531 0-10 4.476562-10 10v49.914062c0 5.523438 4.480469 10 10 10zm0 0"/><path d="m159.808594 85.371094c1.953125 1.953125 4.511718 2.925781 7.066406 2.925781 2.5625 0 5.121094-.976563 7.074219-2.929687 3.90625-3.90625 3.902343-10.238282-.003907-14.144532l-33.453124-33.421875c-3.90625-3.902343-10.238282-3.902343-14.140626.007813-3.902343 3.90625-3.902343 10.238281.003907 14.140625zm0 0"/><path d="m105.140625 26.589844c2.5625 0 5.117187-.976563 7.070313-2.925782l.015624-.015624c3.90625-3.90625 3.898438-10.230469-.007812-14.136719-3.902344-3.902344-10.242188-3.898438-14.148438.007812s-3.90625 10.238281 0 14.144531c1.953126 1.949219 4.511719 2.925782 7.070313 2.925782zm0 0"/><path d="m343.011719 90.503906c2.5625 0 5.121093-.980468 7.074219-2.933594l35.5625-35.59375c3.90625-3.90625 3.902343-10.238281-.003907-14.140624-3.90625-3.90625-10.238281-3.902344-14.144531.003906l-35.5625 35.59375c-3.902344 3.90625-3.898438 10.238281.007812 14.140625 1.953126 1.953125 4.507813 2.929687 7.066407 2.929687zm0 0"/><path d="m256 442.085938c-5.519531 0-10 4.476562-10 10v49.914062c0 5.523438 4.480469 10 10 10 5.523438 0 10-4.476562 10-10v-49.914062c0-5.523438-4.476562-10-10-10zm0 0"/><path d="m159.808594 426.628906-33.449219 33.421875c-3.90625 3.90625-3.910156 10.234375-.007813 14.140625 1.953126 1.957032 4.515626 2.933594 7.074219 2.933594 2.558594 0 5.117188-.976562 7.066407-2.925781l33.453124-33.421875c3.90625-3.90625 3.910157-10.234375.003907-14.144532-3.902344-3.90625-10.234375-3.910156-14.140625-.003906zm0 0"/><path d="m350.085938 424.429688c-3.902344-3.90625-10.234376-3.910157-14.140626-.003907-3.90625 3.902344-3.910156 10.234375-.007812 14.140625l35.5625 35.59375c1.953125 1.953125 4.515625 2.929688 7.074219 2.929688 2.558593 0 5.117187-.976563 7.070312-2.925782 3.902344-3.902343 3.90625-10.234374.003907-14.140624zm0 0"/><path d="m399.820312 488.304688-.015624.015624c-3.902344 3.90625-3.894532 10.230469.007812 14.136719 1.953125 1.949219 4.511719 2.925781 7.066406 2.925781 2.566406 0 5.128906-.980468 7.082032-2.933593 3.90625-3.90625 3.90625-10.238281 0-14.144531-3.902344-3.90625-10.234376-3.90625-14.140626 0zm0 0"/><path d="m510.363281 250.519531c-21.761719-33.214843-49.277343-61.265625-80.761719-83.199219l32.394532-18.707031c4.785156-2.757812 6.421875-8.875 3.660156-13.65625-2.761719-4.785156-8.875-6.425781-13.660156-3.660156l-41.324219 23.855469c-46.082031-27.257813-99.25-42.207032-154.671875-42.207032-102.832031 0-197.921875 51.429688-254.363281 137.574219-2.183594 3.328125-2.183594 7.632813 0 10.960938 21.761719 33.21875 49.277343 61.269531 80.761719 83.203125l-32.398438 18.703125c-4.78125 2.761719-6.421875 8.878906-3.660156 13.660156 1.855468 3.207031 5.214844 5 8.671875 5 1.695312 0 3.417969-.429687 4.988281-1.339844l41.324219-23.859375c46.085937 27.261719 99.253906 42.207032 154.675781 42.207032 102.832031 0 197.921875-51.429688 254.363281-137.574219 2.183594-3.328125 2.183594-7.632813 0-10.960938zm-119.800781-83.753906-16.015625 9.246094c-6.667969-9.847657-14.53125-18.820313-23.375-26.71875 13.574219 4.820312 26.742187 10.664062 39.390625 17.472656zm-11.507812 89.234375c0 67.851562-55.199219 123.054688-123.054688 123.054688-41.882812 0-78.9375-21.039063-101.171875-53.09375l35.722656-20.625c14.980469 19.824218 38.742188 32.664062 65.449219 32.664062 45.214844 0 82-36.785156 82-82 0-11.359375-2.324219-22.1875-6.519531-32.03125l35.722656-20.625c7.59375 15.972656 11.851563 33.824219 11.851563 52.65625zm-185.054688 0c0-34.1875 27.8125-62 62-62 19.3125 0 36.585938 8.878906 47.964844 22.761719l-105.945313 61.167969c-2.589843-6.824219-4.019531-14.210938-4.019531-21.929688zm119.984375-21.929688c2.585937 6.824219 4.015625 14.210938 4.015625 21.929688 0 34.1875-27.8125 62-62 62-19.308594 0-36.582031-8.875-47.960938-22.761719zm7.464844-27.402343c-14.980469-19.828125-38.742188-32.667969-65.449219-32.667969-45.214844 0-82 36.785156-82 82 0 11.359375 2.324219 22.1875 6.519531 32.03125l-35.722656 20.625c-7.59375-15.972656-11.851563-33.824219-11.851563-52.65625 0-67.851562 55.203126-123.054688 123.054688-123.054688 41.882812 0 78.941406 21.039063 101.175781 53.097657zm-299.402344 49.332031c34.46875-50.078125 83.183594-86.964844 138.785156-106.703125-29.367187 26.214844-47.886719 64.335937-47.886719 106.703125 0 22.46875 5.214844 43.742188 14.484376 62.683594l-25.746094 14.863281c-30.921875-20.035156-58.066406-46.210937-79.636719-77.546875zm99.394531 89.234375 16.011719-9.246094c6.667969 9.851563 14.53125 18.820313 23.378906 26.71875-13.578125-4.820312-26.742187-10.664062-39.390625-17.472656zm229.730469 17.472656c29.363281-26.21875 47.882813-64.335937 47.882813-106.707031 0-22.46875-5.214844-43.742188-14.484376-62.683594l25.75-14.863281c30.921876 20.039063 58.066407 46.210937 79.636719 77.546875-34.472656 50.078125-83.1875 86.964844-138.785156 106.707031zm0 0"/></svg>