<svg height="512pt" viewBox="-78 0 512 512.001" width="512pt" xmlns="http://www.w3.org/2000/svg"><path d="m145.5 0h-127c-10.199219 0-18.5 8.300781-18.5 18.5v37c0 10.199219 8.300781 18.5 18.5 18.5h101.5v153.160156c0 6.335938-.207031 12.660156-.597656 18.96875h-74.890625c-.335938-5.859375-.511719-11.730468-.511719-17.609375v-84.519531c0-5.523438-4.476562-10-10-10s-10 4.476562-10 10v84.519531c0 9.539063.429688 19.058594 1.261719 28.535157.003906.046874.007812.09375.011719.140624 1.980468 22.410157 6.277343 44.566407 12.859374 66.160157l13.449219 44.136719v124.964843c0 10.777344 8.765625 19.542969 19.542969 19.542969h20.914062c10.777344 0 19.542969-8.765625 19.542969-19.542969v-124.925781l13.476563-42.917969c9.914062-31.570312 14.941406-64.359375 14.941406-97.453125v-153.160156h5.5c10.199219 0 18.5-8.300781 18.5-18.5v-37c0-10.199219-8.296875-18.5-18.5-18.5zm-28.003906 266.128906c-2.285156 17.769532-6.125 35.324219-11.519532 52.492188l-11.734374 37.378906h-25.253907l-11.726562-38.476562c-5.125-16.824219-8.769531-34.011719-10.929688-51.394532zm-45.914063 109.871094h20v76h-20zm0 116v-20h20v20zm72.417969-438h-124v-34h124zm0 0"/><path d="m34 114c2.628906 0 5.210938-1.070312 7.070312-2.929688 1.859376-1.859374 2.929688-4.441406 2.929688-7.070312s-1.070312-5.210938-2.929688-7.070312c-1.859374-1.859376-4.441406-2.929688-7.070312-2.929688s-5.210938 1.070312-7.070312 2.929688c-1.859376 1.859374-2.929688 4.441406-2.929688 7.070312s1.070312 5.210938 2.929688 7.070312c1.863281 1.859376 4.441406 2.929688 7.070312 2.929688zm0 0"/><path d="m337.5 0h-127c-10.199219 0-18.5 8.300781-18.5 18.5v37c0 10.199219 8.300781 18.5 18.5 18.5h5.5v153.160156c0 33.09375 5.027344 65.882813 14.941406 97.453125l13.476563 42.921875v124.925782c0 10.773437 8.765625 19.539062 19.542969 19.539062h20.914062c10.777344 0 19.542969-8.765625 19.542969-19.539062v-124.972657l13.449219-44.132812c6.582031-21.59375 10.878906-43.75 12.859374-66.160157.003907-.046874.007813-.09375.011719-.140624.832031-9.476563 1.261719-18.992188 1.261719-28.535157v-4.851562c0-5.523438-4.476562-10-10-10s-10 4.476562-10 10v4.851562c0 5.878907-.175781 11.75-.511719 17.609375h-74.890625c-.390625-6.308594-.597656-12.632812-.597656-18.96875v-153.160156h76v69.667969c0 5.523437 4.476562 10 10 10s10-4.476563 10-10v-69.667969h5.5c10.199219 0 18.5-8.300781 18.5-18.5v-37c0-10.199219-8.296875-18.5-18.5-18.5zm-53.082031 452h-20v-76h20zm-20 40v-20h20v20zm45.25-225.871094c-2.160157 17.382813-5.800781 34.570313-10.929688 51.394532l-11.726562 38.476562h-25.253907l-11.734374-37.378906c-5.390626-17.167969-9.230469-34.722656-11.519532-52.492188zm26.332031-212.128906h-124v-34h124zm0 0"/><path d="m322 173.671875c-2.628906 0-5.210938 1.066406-7.070312 2.929687-1.859376 1.859376-2.929688 4.429688-2.929688 7.070313 0 2.628906 1.070312 5.207031 2.929688 7.066406 1.863281 1.863281 4.441406 2.933594 7.070312 2.933594s5.210938-1.070313 7.070312-2.933594c1.859376-1.859375 2.929688-4.4375 2.929688-7.066406 0-2.632813-1.070312-5.210937-2.929688-7.070313-1.859374-1.863281-4.441406-2.929687-7.070312-2.929687zm0 0"/></svg>